<mxfile host="app.diagrams.net" modified="2024-04-26T09:49:28.676Z" agent="Mozilla/5.0 (X11; Linux x86_64) AppleWebKit/537.36 (KHTML, like Gecko) Chrome/124.0.0.0 Safari/537.36" etag="VMHXnoVoTBnQBg28FBp5" version="24.2.5" type="device">
  <diagram name="Page-1" id="nGAgtF_Kw6f7nx91XiaN">
    <mxGraphModel dx="1434" dy="759" grid="1" gridSize="10" guides="1" tooltips="1" connect="1" arrows="1" fold="1" page="1" pageScale="1" pageWidth="827" pageHeight="1169" math="0" shadow="0">
      <root>
        <mxCell id="0" />
        <mxCell id="1" parent="0" />
        <mxCell id="p51MJaRD7cqvYZ4VCD2m-28" value="" style="endArrow=none;html=1;rounded=0;entryX=0.5;entryY=1;entryDx=0;entryDy=0;exitX=0;exitY=0;exitDx=0;exitDy=0;" parent="1" source="p51MJaRD7cqvYZ4VCD2m-22" target="p51MJaRD7cqvYZ4VCD2m-4" edge="1">
          <mxGeometry width="50" height="50" relative="1" as="geometry">
            <mxPoint x="360" y="450" as="sourcePoint" />
            <mxPoint x="410" y="400" as="targetPoint" />
          </mxGeometry>
        </mxCell>
        <mxCell id="p51MJaRD7cqvYZ4VCD2m-27" value="" style="endArrow=none;html=1;rounded=0;entryX=0.5;entryY=1;entryDx=0;entryDy=0;exitX=1;exitY=0;exitDx=0;exitDy=0;" parent="1" source="p51MJaRD7cqvYZ4VCD2m-21" edge="1">
          <mxGeometry width="50" height="50" relative="1" as="geometry">
            <mxPoint x="257.31" y="550" as="sourcePoint" />
            <mxPoint x="184.31" y="342" as="targetPoint" />
          </mxGeometry>
        </mxCell>
        <mxCell id="p51MJaRD7cqvYZ4VCD2m-22" value="" style="ellipse;whiteSpace=wrap;html=1;" parent="1" vertex="1">
          <mxGeometry x="495.5" y="459.5" width="135" height="180" as="geometry" />
        </mxCell>
        <mxCell id="p51MJaRD7cqvYZ4VCD2m-21" value="" style="ellipse;whiteSpace=wrap;html=1;fillColor=default;" parent="1" vertex="1">
          <mxGeometry x="196" y="459.5" width="135" height="180" as="geometry" />
        </mxCell>
        <mxCell id="p51MJaRD7cqvYZ4VCD2m-6" style="edgeStyle=orthogonalEdgeStyle;rounded=0;orthogonalLoop=1;jettySize=auto;html=1;exitX=0.5;exitY=0;exitDx=0;exitDy=0;entryX=0;entryY=0.5;entryDx=0;entryDy=0;endArrow=none;endFill=0;dashed=1;" parent="1" source="p51MJaRD7cqvYZ4VCD2m-2" target="p51MJaRD7cqvYZ4VCD2m-9" edge="1">
          <mxGeometry relative="1" as="geometry">
            <mxPoint x="368" y="56" as="targetPoint" />
            <Array as="points">
              <mxPoint x="184" y="145" />
              <mxPoint x="183" y="105" />
            </Array>
          </mxGeometry>
        </mxCell>
        <mxCell id="p51MJaRD7cqvYZ4VCD2m-12" style="edgeStyle=orthogonalEdgeStyle;rounded=0;orthogonalLoop=1;jettySize=auto;html=1;exitX=1;exitY=0.5;exitDx=0;exitDy=0;entryX=0;entryY=0.5;entryDx=0;entryDy=0;endArrow=classic;endFill=1;dashed=1;dashPattern=12 12;fillColor=#eeeeee;strokeColor=#36393d;startArrow=classic;startFill=1;" parent="1" source="p51MJaRD7cqvYZ4VCD2m-2" target="p51MJaRD7cqvYZ4VCD2m-4" edge="1">
          <mxGeometry relative="1" as="geometry" />
        </mxCell>
        <mxCell id="p51MJaRD7cqvYZ4VCD2m-2" value="" style="shape=image;verticalLabelPosition=bottom;labelBackgroundColor=default;verticalAlign=top;aspect=fixed;imageAspect=0;image=data:image/png,iVBORw0KGgoAAAANSUhEUgAAAgAAAAIACAYAAAD0eNT6AAAAAXNSR0IArs4c6QAAIABJREFUeAHt3QeUNEd1KOArgYRARBFFDgYMAgMCPzLGMkmAyDnaRBsOPGzAgMkSOUeTczDhAMJkEBmMyPBIAmOMyBkDIijB2yvt/l7Nv7uTqjrUfH3Onk093VVfVd2609MhwkKAAAECBAgQIECAAAECBAgQIECAAAECBAgQIECAAAECBAgQIECAAAECBAgQIECAAAECBAgQIECAAAECBAgQIECAAAECBAgQIECAAAECBAgQIECAAAECBAgQIECAAAECBAgQIECAAAECBAgQIECAAAECBAgQIECAAAECBAgQIECAAAECBAgQIECAAAECBAgQIECAAAECBAgQIECAAAECBAgQIECAAAECBAgQIECAAAECBAgQIECAAAECBAgQIECAAAECBAgQIECAAAECBAgQIECAAAECBAgQIECAAAECBAgQIECAAAECBAgQIECAAAECBAgQIECAAAECBAgQIECAAAECBAgQIECAAAECBAgQIECAAAECBAgQIECAAAECBAgQIECAAAECBAgQIECAAAECBAgQIECAAAECBAgQIECAAAECBAgQIECAAAECBAgQIECAAAECBAgQIECAAAECBAgQIECAAAECBAgQIECAAAECBAgQIECAAAECBAgQIECAAAECBAgQIECAAAECBAgQIECAAAECBAgQIECAAAECBAgQIECAAAECBAgQIECAAAECBAgQIECAAAECBAgQIECAAAECBAgQIECAAAECBAgQIECAAAECBAgQIECAAAECBAgQIECAAAECBAgQIECAAAECBAgQIECAAAECBAgQIECAAAECBAgQIECAAAECBAgQIECAAAECBAgQIECAAAECBAgQIECAAAECBAgQIECAAAECBAgQIECAAAECBAgQIECAAAECBAgQIECAAAECBAgQIECAAAECBAgQIECAAAECBAgQIECAAAECBAgQIECAAAECBAgQIECAAAECBAgQIECAAAECBAgQIECAAAECBAgQIECAAAECBAgQIECAAAECBAgQIECAAAECBAgQIECAAAECBAgQIECAAAECBAgQIECAAAECBAgQIECAAAECBAgQIECAAAECBAgQIECAAAECBAgQIECAAAECBAgQIECAAAECBAgQIECAAAECBAgQIECAAAECBAgQIECAAAECBAgQIECAAAECBAgQIECAAAECBAgQIECAAAECBAgQIECAAAECBAgQIECAAAECBAgQIECAAAECBAgQIECAAAECBAgQIECAAAECBAgQIECAAAECBAgQIECAAAECBAgQIECAAAECBAgQIECAAAECBAgQIECAAAECBAgQIECAAAECBAgQIECAAAECBAgQIECAAAECBAgQIECAAAECBAgQIECAAAECBAgQIECAwCAETh0Rl4mIu0bEoyPi5hFx/kGUTCEIECBwssD5IuKm6zHq7hFxuYjI2GUhQGABgZz0PxARv4uIP23x9ZOIeEFEnGmBbXsJAQIElhU4Q0Q8NyJ+tEV8ypj1+4j4cERcftkdeT2BVRHIrPlhEXHcNoNqMhn4bkRcd1Vw1JMAgUEIHBQR354xRh0fEYdGxF6DKLlCEBiowOkj4lMzDqrJRODxA62TYhEg0JbAoyLijwvEqc87YtlWR1CbsgLPW2BQbU4EHAko2x62RoDAKQWuueDkvxGnXnbKzfmNAIEUuNaSAysHWH4c4JwA/YkAgRoCeYTyW0u+Sck4dYMahbNNAmMV2Cciji4wsHJw5YmBFgIECJQWeGahGPWDiNi3dOFsj8BYBa5UaGBlApBn5FoIECBQWmDWk/4yDk37yo8SLAQIRMS9Zxgw0wbU5v+fhyoBAgQKCpy1cIy6f8Gy2RSBUQu8pPDgOmTUGgpPgMDQBK5dOEa9ZmgVVB4CfQl8tvDgenhfFbFfAgSaFHhg4Rj1lSaVVIrAAgJHFR5cT1igDF5CgACB7QTy2v/NHzMu+3OeT2AhQCAiJAC6AQECQxaQAAy5dZRt1AISgFE3n8ITaF5AAtB8E+9ewYtExK3Xrtl88toT6d4SEYf7qmLwm8KH176hnaq0U/b/168/q+F6EXG23YeMv3QscJaIyBPUHhIRr9Pvq/X70m9S8iFn5pM6BjlX55ydc3fO4XMvd1m7NO2nhSelZT8z8vqyn8HxLOP5hYj4y7lHmBcsK/AXEfFJMaro5/JiQpmYMDTHnMtzTp+67B8RbzeoDCp9YK4+cMLas88f42lnU+NLiRXmfVrm0IKx8rQ5yY6hXXNuzzl+y+USEfFzgX+uwD+GRlfG7gLOkRGx95ajyx9LCOTk/xExSozSBxbuAznH51x/iiUH1qKPoTXBdDfBsB6+9eNOMbL8UlLgEQL/woFf7Bh+7OiqjXKuzzl/1/IwA8vA0geK9IH8OOCKu0aWH0oJXC4ijtNHi/TRriYa+xlu0pFz/knLhQ0sg0pgLdoH3OVsI7qU+/4ZfbRoHzU5D3dy7qJtMpnOuf+kswO72KF9rHaHW7X2P3e5uW/lt5SX+q1a/1FfbV67D5x0ZcDzDC7BRR8o3gduvPLTdjmAv9E/i/fP2pOL7Q8/gcm5Pz5tcBlc+kDxPnBYuflv5bdU+kE0JqfhT07aqH4b5dwfvxb8iwd/nbd+5x268RtWftouB/AiMUqM0geK94Gc+x0B0LGKd6yhT85dlM8RgHIJgCMAEuouxuyq7eOkIwDOATC4Vq3jd1Ff5wCUSwCcAyBGdTFmV20fJ50DkGcCrlrF1Veb1+4DrgIolwC4CsB4rT1eV3H7J10F4D4ABtcqdv6adXYfgHKT/8aWPuuNijdq+kCxPrDrPgA5wNxiUxJQc0JcpW2fGBFX3pi1fC8mcGBEHG8CKDYBrNKYVNfd57ec83cteV9gGfbuSDoOk3n7wJN2jSo/lBY4VAIgAdAHlu4DOdef4lkAOVAvFRG/grs07rwThvXbSTJyYJ2m9Kxne7sE9oqIT4hRYpQ+sHAfyDk+5/otl/NFxPvgLoxrMm9nMp+nLfOwf77zN/lvGVaK/jEft/wYHweIUeapuftAzu05x++47BER93I0YG7ceSYM67aTKOQJfz7z3zGkVPnnFSLiiyYBcUofmNoH8l1/zuk5t8+87BkRB0TEnSPi2WuPOH1XRLzbVxWDYwp34m9rpyrtlP3/rRGRN/nJ6/xd6jdzOKm24v5r5y8dshbcHh0Rh+v31fr9twrHqIx55pM6BjlX55ydc3fO4TmXWwYscFThwfWMAddV0QgQGJ/AEwrHqIx5FgIEIkICoBsQIDBkAQnAkFtH2UYtIAEYdfMpPIHmBSQAzTexCvYlIAHoS95+CRCYRUACMIuSdQgsICABWADNSwgQ6ExAAtAZtR2tmoAEYNVaXH0JjEtAAjCu9lLaEQlIAEbUWIpKYAUFJAAr2Oiq3I2ABKAbZ3shQGAxAQnAYm5eRWCqgARgKpEVCBDoUUAC0CO+XbctIAFou33VjsDYBSQAY29B5R+sgARgsE2jYAQIRIQEQDcgUElAAlAJ1mYJECgiIAEowmgjBHYXkADsbuIvBAgMR0ACMJy2UJLGBCQAjTWo6hBoTEAC0FiDqs5wBCQAw2kLJSFAYHcBCcDuJv5CoIiABKAIo40QIFBJQAJQCdZmCUgA9AECBIYsIAEYcuso26gFJACjbj6FJ9C8gASg+SZWwb4EJAB9ydsvAQKzCEgAZlGyDoEFBL4eEX8q+PXMBcrgJQQIENhO4IkF41PGunzTYyGwsgKnjYi/i4hPFR5YObiOj4g3RcS1ImKPlRVWcQIElhW4ZkS8ISKOqxCnPhIRt42IvZctpNcTGIvAfhHx1Ij4RYUBtdVRhDy68A8RcaqxACknAQK9CuwZEXeLiK92FKN+HBGPjYgz9lprOydQUSDfiec7/p92NKgmk4HPRcQVK9bPpgkQGL/A5SLikz3FqB+uHxEYv6IaENgkcPG1w/Ef62lQbU4E/hgRL4iI028qmx8JECCwT0Q8PSJOGECcOiIiLqxJCLQgcFBE/HIAg2pzIvD5iDhPC7jqQIDA0gJni4iPDyxG/SwirrZ0zWyAQI8Ceci/xskzmyfzRX/+XkRctkcbuyZAoH+BPDr5zYFN/hsx7Q8Rcbv+iZSAwPwCDxzooNoYXPn9NxFxlfmr5hUECDQgcJkOT0beHHfm/fm+DVirwgoJ3Doi8vP2eTt6H+vnSYk+b1uhzqmqBCLi3BHx3ZHEqBMj4qZajcAYBK4cEb8fycDaSDi+FhFnGQOuMhIgsLTAvhHx2ZHFqN9GxBWWrrkNEKgocM6I+MnIBtZGEvCeii42TYDAcAReP9IYlZcJ5gmLFgKDFHjNSAfWRhJwx0GqKhQBAqUEDhl5jHp5KQjbIVBS4G9GPrAyCcg7cvkooGSvsC0CwxE4XUR8u4E49VfDIVUSAiffy/obDQysTAKeP6IGzbsrniMi8mzmK/li0GEfyEto8yO/vG3uWJbST/TbOHLY9fe8RfFeY0FXzvYF7tTI5J8DOR8klGcID23JZxlk5v+09VuV5hnMWdaug4/9Md/cB7IP5j018qFez1jvo0N87kYe2csT6TaXfcw/uz/A0CL0CpfnyIYGVgaFRw6oLXPSz8/98s5gYw5Yyr467ZeX1r50PRkYylB6QGPj56NDgVWO1Ra4fGMDKyeqfEdz6p6b9dIR8Y4GbSUCq5MIZFu/a/0jqj6HU35M8a0Gx1LGCAuBXgVe2ODAysB1455UzxURL4uIvPmHyZJBC30g+/Krevxo7eBGx9Jze4pRdktgl8DRjQ6uPk4GPHBEdydrYWJSh24TrLyOPU9W7XrJcxNabOs8qmEh0JtA3kK3xYGVdTqqY9WbN3aSUqv9Qr2WG/P5gJuu77fxuYbj1Pk7jlN2R2CXwF0aHlgZ6PffVdO6P+QJSmN5doIJcLkJkN/JfofVHVK7tn6mxj9Ou/OumvqBQMcCeaZvywHtVh143qZxw5b7h7otN/7v2cH4uk7j4+vFHRjaBYEtBd7X+OC6/5a1LvfHfLjH7xo3NEkuN0m27HdcRFyz3HDackt3bXx8vXfLWvsjgQ4EvtD44Mo7h9Va8mZD32/cr+XJS93KJDZ5f4uaj+N+cONj7PO1ApTtEpgm0PoE9pJpAEv8/62NByYTZJkJchUcP7TEOJr20qc2Ps7yniUWAr0IHNv44MpJusZyjcbdVmHSUseyCc71awy0iHhF42MtY7CFQC8CrQfBd1dS/WTjQan1fqF+ZSf/9Px/lR4s9LoVGGuVwpTNEthZoPVAWCMByCsLWndTP228SB+ocUmbBGDnGO6/BBYWWGSQj+k1NRKAD0sAJED6wJZ9IJ8oWHqRAJQWtT0C6wJjmswXKWvpBOCsEXGC4L9l8F+kfbymrSMNeTOs8xaOrhKAwqA2R2BDoPUAXDoByEOcrZupnzZepg/ceyO4FPouASgEaTMEJgWWGehjeG3pBOBNEgAJkD6wYx84YjLILPm7BGBJQC8nsJ3AGCbxZcpYOgH4leC/Y/Bfpq28to0jD8dHxF7bBZwF/i4BWADNSwjMItB60C2ZAORDSVr3Uj9tXKIPnG+W4DPjOhKAGaGsRmBegRKDfcjbKJkAHCABkADpAzP1gSvOG4h2WF8CsAOOfxFYRmDIk3eJspVMAFp/KlkJb9twBCH7wE2XCUoTr5UATID4lUApgdYDdskE4C7e/c307q/1PqV+05OcklcCSABKRXvbITAh0HowK5kA3E8CIAHQB2bqA/kEv1KLBKCUpO0QmBBoPQE4JiKOKvT1Y8F/puDfep9Sv+lHAH5SaMzl2P31Coy7ibDsVwLdCAhm04MZI0b6gD5Qsw90E+3thcCEQM1ObduCpj6gD+gD0/vARFj2K4FuBAzO6YOTESN9QB+o2Qe6ifb2QmBCoGantm1BUx/QB/SB6X1gIiz7lUA3Agbn9MHJiJE+oA/U7APdRHt7ITAhULNT27agqQ/oA/rA9D4wEZb9SqAbAYNz+uBkxEgf0Adq9oFuor29EJgQqNmpbVvQ1Af0AX1geh+YCMt+JdCNgME5fXAyYqQP6AM1+0A30d5eCEwI1OzUti1o6gP6gD4wvQ9MhGW/EuhGwOCcPjgZMdIH9IGafaCbaG8vBCYEanZq2xY09QF9QB+Y3gcmwrJfCXQjYHBOH5yMGOkD+kDNPtBNtLcXAhMCNTu1bQua+oA+oA9M7wMTYdmvBLoRMDinD05GjPQBfaBmH+gm2tsLgQmBmp3atgVNfUAf0Aem94GJsOxXAt0IGJzTBycjRvqAPlCzD3QT7e2FwIRAzU5t24KmPqAP6APT+8BEWPYrgW4EDM7pg5MRI31AH6jZB7qJ9vZCYEKgZqcewrb/OyKeX+jryBAEh9CmyjD8fnjEWpx5VKGvo1Zg3E2EZb8S6Eag9WB6eEHGB69AIGq9P6hfN8lDjpVSS47h1tutlJXtEJhLoPWBJQFoP3i23ofHWD8JwHzjbq6gbWUCpQTGGFzmKXPJBOD+K/BOZB5b684X5FfJ6x9LBaiIcASgIKZNEdgs0HpQKpkA3FYC0Pyh2NbHQ1f1u/XmILPkzxKAJQG9nMB2Al0FhL72UzIBuIYEQAKgD8zUB666XcBZ4O8SgAXQvITALAJ9Tcxd7bdkAnBhwX+m4N9V29rPcD+CuOAswWfGdSQAM0JZjcC8Aq0H0ZIJwD4SAAmAPjC1D/wxIvaeNxDtsL4EYAcc/yKwjIAEYD69L5sApk4Arfcp9dv5yMPn5htSU9eWAEwlsgKBxQRaD2YljwCk8GESAAmAPrBjH3jkYqFo21dJALal8Q8CywlIAObzO1Dw3zH4t96f1G/nd//pc9n5htTUtSUAU4msQGAxgdYDWukjAKn8bUmAJEAf2LIPHL1YGNrxVRKAHXn8k8DiAq0nAG9ZnGbbVz5W8N8y+Lfel9Rv+rv/x207ahb/R47h1u0X1/FKAksI/KrxwfWKJWy2e+mZI+Lnjbu1HnDVr/ykmmMix0bpJcdwy+2VMdhCoBeBrzU+uB5fSfWfGndrOeCqW50JteTtfzcP2xzDLbdZxmALgV4E3t/44LpPJdXTREQ+arjlwKRu2nfWPvCtwtf+bx62OYZnLccY18sYbCHQi8CrGh9cN6+oesOIyJuejDHoKLN2K9UHToyIgyuOsxzDpco6xO1kDLYQ6EXgiY0PritXVs3Hng4xqCiTdumqD5R89O9WwzXHcFd16WM/GYMtBHoRuFPDg+uEiDhLB6qvbNiwj4Bon+OZ8F7bwfjKMZxjudV+kTHYQqAXgf0aHlwf7Eg0zwf4aMMBqtXAq17LTapHRsRpOxpjOZZbbK9MbDIGWwj0JtDq4Pq/HYpmIMx3Qy0GKXXSrpN94I0RcboOx1eO5ckytPB7V29SOmwquxqbQKuD6wI9NMRDnRjYZKBuYbIpUYc86fVREbFHx2Mrx3KJ8g9tG12+Sem4yexuLAItDq7P94h/44j4YaMBa2gBVHm6mxizT9e8qmbakM0x3Vp79/EmZZqz/6+gwDsbG1z36LkN9107t+JhEfHrxlxbC8DqM31SzTvV5ZGt7NN9LjmmW2qvjLkWAoMQuHRE5PW8LQywvLPWqQahGnG2iHi6Wwc30a9aGBvz1OHHa5P+kyPirAMZSzmmW7lzacbajLkWAoMReFkjCUAegh/aksHrmuvJQN41bZ5AbF1eXfWBvLvl0yLi6hGx59AGUUTk2O7KouZ+MtZaCAxK4LwR8fuRD7C8HG8My/4RcfmIyLsJ5qHNR0bEE5b8ev3I265mwG1t229fsq9kX8uT+e4ZEYdExBUi4txjGDgNXHKbMTZjrYXA4ARyIhprsDxuPZANDrWjAl1vxG031j7XV7n/tqM+NcTdZLKSY70v+2X3mzHWQmCQAnnY720jHVx3H6Rod4W69kjbbdmAuoqvv2N33WqQe8qxPsZ2z9g6xI9WBtnICtWPwBki4isjG2DP6odqUHu97MjabIwBfChlrvnwnUF16h0Kk2N+KO0xSzkypmZstRAYvMBFRnTm+hERcerBi9YvYJ5XMEsgss74nQ6s350Gv4cc8zn2x9Cffx4RGVMtBEYjcLWI+MXAB1jej7yLB/6ModEyIHo88TgmhGUnrfOMoUN2UMYc+xkDlvWs+fqMoRlLLQRGJ/BnA7729tVrZ0LvMzrRegW+UcMPdqoZoMe47dvV60aj23LGgIwFQ2zHvG9BxlALgdEKnCki3j2gAZbvch8yWs3yBd97/f4CQwyAylRvYnq+BPgUgyljwpCOgGXMzNhpITB6gbyRzePWJt5je04Evh8R+U7XcrJAfq74mZ7bxCRfb5KfZvvFiLi4wbBLIGPD93oeDxkjM1YO5W6ku3D8QGBZgQtFxGt6yLTzfuT/0vEjSJe1qv36W0dEukybJPy/baPfRMQdane2EW0/H839oB7OX8rb+74yIjzgZ0SdRVEXE8izkN/XweST2XTeS38o9yNfTKvsqzLAvbADe4nDuBKHl0qQTzHQ8gTBJ0bE7zoYK3l9v3v7n4LfL6sgkCe43D8iPlzwBLR8V5u3tc0Tnc68Cohz1PESa49k/VIHAc3kP67Jf6O98lrzA+boT6uw6ukj4hbrJwr+stDYOT4iPrB2qfR9IuJ8q4CojgSmCeS79DutZ92vWnugyPsj4qsR8T9bDLo8WSefNpbP+H5HRLwoIh4dEddZ+/wsT2qz7C6Qt/o9ZgvLjeDv+zgn7dLt9tv1+/vv3oP8Za+IyDtmZqzJmJOxJ2NQxqKtTiDM2JUxLGNZxrQ8opB3YdwPJQECBLoSuOXI739eepKzvZ2TnXyH6ryArkan/RAgQKCSwF0jIk8wMukxmKcP5Dvae1fqkzZLgAABApUF8vyKeYK+dXlN9oGHVe6jNk+AAAEChQUOM/lLfgr1gaetfe69R+H+aXMECBAgUFggA/WzCwX+yXeDfl/dIwR5maCb0xQerDZHgACBUgL5QJ+8mYiJmkGNPvAmV9mUGqq2Q4AAgXICp4mIw03+kp/KfeC9EbFvuW5rSwQIECCwjEAG5LzWuMa7PtvkOtkHPuEx2ssMV68lQIBAGYG8Ocl7TP6Sn477wMfXbmyTt5W2ECBAgEAPAnnCX95hbPIdWhe/b3Xnsy72ax/9tPdW7vmRkxMDexj4dkmAAIEn9TT5/2D9tssXW7+96Y96KsdWk9Kq/C0fUpMnfF5j/fa0fT3G9nmGIQECBAh0K3C/nibdN2/xdMX8GOJmEfFOdx2sfjQm7z2fd+ibfNBVPr0uH4LVRwLkZkHdjn17I0BghQVuvc3DR2oG/3yQ0N1mMD9DRFwqIm4QEfdaP0Lwuoh4d4df+fl0aYsvR8SRHX7l2fb5wJmcXPMhWX8VEeefwT8fNpNPxCxd/2nb+7sZymYVAgQIEFhC4GoRcWzHAf4bEXHxJcrc9UsvW8HnSl1XYon9XaiHxz7nA4SutUSZvZQAAQIEdhA4V0Tk5+/T3o2V/P8HR/j40lVPALILnTEi3tVxX/lZRFxgh/7rXwQIECCwgEDe5e+jHQf0F0dEfr4/tkUCcHKL5Rn6Xd8W+tMRkTelshAgQIBAIYFndDj55+ODH1Co3H1sRgJwSvX7rJ1LcEKH/ScTRwsBAgQIFBC4bYfBO0/2u3GBMve5CQnA7voHR8SvO+xHs5wwunsp/YUAAQIEdgnkGfW/7Shw537yuvKxLxKArVswT2TsKgn4Q0RcYeti+CsBAgQITBPIE7nyDPySJ/Vtt63fR8RB0wo0kv9LALZvqKtGxG866lNHb3HPiO1L5j8ECBAgsEvgJR0F6ny3dt1dex3/DxKAndsw7ynQ1VGlN+xcFP8lQIAAgUmBG3Y0+R8XEbmvlhYJwPTWzKM9eTvh7Y4Ilfx7nsNiIUCAAIEZBM4aET/sIDjnzVtuOkN5xraKBGC2FrtOROTRn5KT/Vbb+nlE7D9bkaxFgACB1RbIW+duFUhL/i0vC7tVo8wSgNkb9vod3VnyHbMXyZoECBBYTYG8z3/JiX67bbV8mZYEYL6xc4uOni3Rcp+bT9zaBAgQmBDIW/3m7VS3m7RL/f05E/tt7VcJwPwt+pgO+l1egnjB+YvmFQQIEGhf4G0dBOEPj/T2vvO0vgRgHq2T191z7br9t3fQ//LZEnvMXzyvIECAQLsCt+wg+H4nIs7RLuGumkkAdlHM9cOZOrrvxF3nKpWVCRAg0LDA6SIiJ+dSh/i32k7e6OfyDRturpoEYLPGfD9fsoO7Bf4kIs48X7GsTYAAgTYFuvj89Y4L0OXT5K4SEfkwmZetXTL4xYj40Qi+apxH8e2IOGoEX/kRz9MjIts7J/NFDrffpIOTAp+1QH/0EgIECDQlcJEOrsXOCWHeJSePfLTrVkcT/G08Lu9f8MS7Qyu3fV6Geul5O6X1CRAg0JLAv1cOtDkB5Dv5WZdc9587SEokEd0lEXn2/T1m7QDr6+WRg9onpX5ozjJZnQABAs0I5E1Yak6E31/gYSzPrFymmvW17Z370+PmHDl5UuB/Ve4Pt5mzTFYnQIDA6AX2joj/rBxc573H/9U7+OzXJL3zJF3TJw+75yOB51n+unKf+F5E7DtPgaxLgACBsQs8pPLk/8o5gfJKhNoJSc3JzbZnSyzyRMZ95uwbz6vcVx8/Z3msToAAgdEKnK3yM9nzQUL7zanzgMpB3gQ92wTdhVOe4zHPcoaIOLpi/zg2Is4/T4GsS4AAgbEKPKFiMM0JJC/jmnd5c+UydTGx2cdsSUaeeDrvct3K/eP58xbI+gQIEBibQO13//+2IEjtGxGZnGebnLtwyiNEiyx5L4ha5XMUYJEW8RoCBEYlUPPd/48jIhOMeZdzVgzstSYM211uMj7PvJ1k/e59P6jYVxwFWKBRvIQAgXEI1H73n491XWTJs/9NqKtlcK1FOkpE3KhiX3EUYMFG8TICBIYvUPPd/xFLVP+aFYO6xGLvB2VgAAAT5klEQVSYicX1lugv76jYXxwFWKJhvJQAgWEK1Hz3/8eIuNwS1ZYADHOSrpk8LZMAHBAReU+BGuVzFGCJgeylBAgMU6Dmu/95r/mfFJIA1JnMakyQpba5TAKQ/edFlRKArJ+jAJMj1O8ECIxWoOa7/3zM77LXUEsAJADzDq79I+KYSkmAowDztob1CRAYrMBhlQJlvlvKIwvLLhIACcAifejRFfv1sxcpkNcQIEBgSAJ5z/+8PK/UodvN28nn3ucDW5ZdJAB12mdzWw3t52U/Asg+d/qI+FGlvp1PMMw7EFoIECAwWoE7VAqQOaHct5CKBEACsGhXumfF/n3vRQvldQQIEBiCwJGVAuQ3I2KvQhWUAEgAFu1Kp4qIr1bq47ldCwECBEYpcIVKgTHf/d+yoIgEQAKwTHc6pGI/P2iZgnktAQIE+hJ4eaXAmO+M9ihYqVVKAI6PiE9HxFsi4rlrt05+TkTkg5A+GRHHVWqvoX3+n+UpcQ7A5i74uUp2b9q8Ez8TIEBgDAJ56d8fKgXFuxUGWIUEIO+UeKeIOMsOdnlC5e0j4t2V2m1IiUDpBCDdatQvbzh03h3azL8IECAwOIEHVwqIeUXBPoVr23ICkO/2FzmMfI2I+ESlNqwxUc67zdIJwKkj4ruVvB5TuL/bHAECBKoJ5IlRR1cKho+oUOpWE4C8ljzbYtFlz7VL3Z5SqR3nnbBLr186AUjjB1SyyqQ3L6e1ECBAYPACN6kUCH+34ON+p4G1mADcZ1ql5/j/3Su1Z+lJfZ7t1UgAzhgRv6pkdbs52suqBAgQ6E3gvZWC4PMq1ai1BCDftZde8jD0PBPs0NetkQCk+VMrOX2sdIPaHgECBEoLnCsiTqwQBPOJfxcrXdj17bWUAHxgycP+2xHnVRfvqtCufSUKtRKAfC5FXmlRo14X2q5x/J0AAQJDEMhDzzWC31srVq6VBCATr0tXdMoErNbkVqPP7LTNWglA8r+20hjIE2stBAgQGKzAxysFvzwrvdbSSgKQ912oveSjaneaWMfyv5oJwIGVjL5Yu3FtnwABAosK5OHPPFRfehLIS9lqLq0kAFesibS+7ctWaN/S/WWW7dVMAJLqg5WcLtlBG9sFAQIE5haodRlU3mSl5tJCAvD9wndH3Mn7vytNbrNM3KXWqZ0A3KiS0aE7NYz/ESBAoC+Bz1QIer+JiNNVrlALCcBLKhtt3vy/VmjnUhP7rNupnQDkjYF+WsHpPzc3hJ8JECAwBIGLVgh2Gcxf1UHlWkgAHt6B08YuHliprWedvEusVzsBSKt81kKJsk5uIx+yZSFAgMBgBB5WKdgd3EENW0gA7tqB08Yuat33fnKiq/l7FwnAVSqNiRr3edhoW98JECAwt8CXKwS7PISah1JrLy0kALepjbRp+7Xu9Fhzwp/cdhcJQJJ9q8K4yGcOlHwa5qam9SMBAgTmE7hUhSCXATsPoXaxtJAA3K8LqPV9/H2l9p6cpGv+3lUC8NhKVjUvi+2wK9kVAQJjF6h1m9irdgTTQgLwpI6scjd5JnrNybmLbXeVAORlezXqkydiWggQINC7wOcrBLlvd3iYs4UE4EMd9oJ3VmjvGpPkTtvsKgHIZqkxPvJjAAsBAgR6FThHpZv/PL7DWrWQAJwQEWftwGzfiPiDBGAu6Vr3x/jzuUphZQIECBQWyMeU7vROa9H/1byn/SRBCwlAOudje2svt6rU3ov2k0Vf1+URgPNWekDWfWs3tu0TIEBgJ4G8//yiQXi7131ppx1W+F8rCUCecb53BZ+NTZ4qIr5Sob236wc1/95lApB+NW4N/LaNhvGdAAECfQjkLWhLB+qHdFyRVhKAbIeaVwPco0Jbl+47s26v6wTgbhXs8i6Ze3U8VuyOAAECJwkcUCGoZQC/YMe+LSUAx0TEZSr4XSIifl2pvWedtEuu13UCcOaIOLaCn8sBK3R2myRAYLpAvtssGZRzW10f/s9atpQApGE+rOds05tv5jXOEhF5D/rSbd3n9rpOABL7/RUM8xJcCwECBDoXqHE52NM6r0V7CUBOrF+PiIsXsLxIRNS4y2Ofk3/uu48EID/aKl3vTxZoY5sgQIDAXAJ5slkebi4d0K4/VynKrNzaEYCNNvmfiMiz9hddbhoRP6/Qxhvl6/N7HwnAX1awPDEi8giNhQABAp0J1Jg0j4uIvM6866VGXfqc3Cb3/fG1w89XnwP1yhHx4QqT1WS5+vy9jwRgz4j4ZQXXW8zRtlYlQIDA0gKPqxDIctLpY2k9AdiYaPPuis9aO8/i5hFxxYg4X0TkNer/JyLy3f4zIuK/KrTrxv6H9L2PBCD79psr+L6wj0FjnwQIrK7ApysEsi6fab+55VYlARjSBNx3WfpKAO5VYdzkSZ8WAgQIdCJwxkp3NrtSJ6XffScSgPLncvQ9wU/bf18JwMUqJABZ1wvt3q39hQABAuUFDqoQxPKEtbzTXB+LBEAC0GW/+06F8bPMyZ5d1t2+CBAYucA/Vwhgh/doIgGQAHTZ/V5WYfw8ucsK2BcBAqsr8MYKAezePXJKACQAXXa/21cYP10+DrpLK/siQGBgAnk2+bTPWOf9f4mb1izKJAEo357ztn/X6/d1DkD20XNVGD95m+a8zNBCgACBagJnrxC88jPRPhcJgASg6/6Xt7wunfRcsutK2B8BAqslkHfqKx24XtozoQSgfJuW7iOlt9fnEYDs7k+vMI7u1PM4snsCBBoXeGSFwHW7ns0kABKArrvgDSuMo2d3XQn7I0BgtQTeViFwdf3438kWkwBIACb7RO3f96swjo6sXWjbJ0BgtQV+VDhw5fX/fS/52WnpQ8y2N2zTA/vudBFR+n4Af4iIvQZQL0UgQKBBgbx3fOmJ7SMDcMqzp39ToW6lrWyvTP8bykRZ42jaEBKbAQxpRSBAoLTAzSpMks8pXcgFt9f60+8kD/+bPHxywT5S+mWHVRhP9yxdSNsjQIBACjy+QsC6+0Bon1qhbibd/510h2Tx3IH0uXyMb2mXFw+kbopBgEBjAkdUCFj5KNohLJeKiGMr1K90gLe95SbN4yLickPocBFx0Qr97QsDqZtiECDQmMAPCgesEyPidAMyemjh+pmsl5usa/g9akD9bY8K555kEuuOgANqZEUh0ILA6StMjkcNDObUEfHZCvWsMZHZ5vzJxecGeJb8f1Tob31fVjuwYa04BAgsK3DZCoHqDcsWqsLr87BsHkY1wbZlkG2abTu05XkV+tq1hlZJ5SFAYNwCNU5YykPuQ1zyWupDI+L4CsFZYtFtYpFtmG051Ovj86z90n3i74c4qJSJAIHxCjykQqDK26EOebl8RLxo/YiAZKD8RFV64tvYXrZVvuPPtss2HPJypQrj6ilDrrCyESAwPoF8YM9GgC31PW8sNJbltBGRwfomvgZtkG2UbTWWZd+IyJNhS42p3M7hY6m8chIgMA6BvGNfySD1i3FUWykJVBf4RuGx9eXqJbYDAgRWSuCHhYPUB1dKT2UJbC+QJ8OWTK5/HxF5iaGFAAECSwvUuATwmUuXygYItCFQ4/4TY/p4rY1WVAsCjQrUuATwLo1aqRaBeQXyZNiSRwByW389byGsT4AAga0EblkhQF1tqx35G4EVFKhxS+ChPGNjBZtTlQm0JfAvFRKAC7VFpDYEFhbI22GXPgLwxIVL44UECBDYJFD6EsA/rj1Z8DSbtu9HAqsu8MvCScCbVh1U/QkQKCPw0cLB6adlimUrBJoRyEv3Sh4F+GIzMipCgECvAqUvAfTI0l6b084HKPCewgnAMQOsoyIRIDAygXy0aOk7lb1jZAaKS6C2QOmP2fJowplqF9r2CRBoW+Dshd+ZZGB6YdtkakdgboHDKoyzP5u7FF5AgACBTQKXqBCYHrlp+34kQCAin+BX8hyA3NZVwBIgQGAZgWtUCEx3W6ZAXkugQYFDKoyzGzfopEoECHQocPMKgengDstvVwTGIHBghXEm0R5DyysjgQEL1Dg0+RcDrq+iEehD4JwVEoC8gZeFAAECCws8vEJg2m/h0nghgTYF8ul9xxUea09vk0qtCBDoSuBZhYNSPqrUQoDA7gJHFx5rr959F/5CgACB2QVeWzgofXP2XVuTwEoJ/EfhsfbeldJTWQIEigu8r3BQ+nDxEtoggTYE3lh4rH2+DRa1IECgL4G8bW/J65PziIKFAIHdBZ5ReKx9b/dd+AsBAgRmF/h+4aD05Nl3bU0CKyXwwMJj7diV0lNZAgSKC2QQKXkE4H7FS2iDBNoQuF3hsZbj1vMA2ugbakGgc4EMHiUn/9zWHTqvhR0SGIfAtSuMN88DGEfbKyWBwQlcpEJAusXgaqlABIYhcLUK483zAIbRtkpBYHQCV6oQkG4wOgUFJtCNwOUrjDfPA+im7eyFQHMC16oQkA5qTkmFCJQROKDCePORW5m2sRUCKyeQ79ZLnwNw5ZVTVGECswlcuMJ4u8tsu7YWAQIETilwswoB6XKn3IXfCBBYF9i/wnj7B7oECBBYROC2FQLSny9SEK8hsAICZ64w3lx2uwIdRxUJ1BC4c4WAdIEaBbVNAg0I7FNhvD2oARdVIECgB4F7VAhI5+ihHnZJYCwCfyw85h4xloorJwECwxK4T+FglCcUnnFYVVQaAoMS+F3hMffYQdVOYQgQGI3AAwoHo0wA9hpN7RWUQPcCPy885p7SfRXskQCBFgQeWjgYndACijoQqChQ+uFbz65YVpsmQKBhgUMLJwDHNGylagRKCHyz8Jh7YYlC2QYBAqsn8MTCweinq0eoxgTmEvhS4TH38rn2bmUCBAisCzyjcDD6DlkCBHYU+HThMfdvO+7NPwkQILCNwL8WDkZf32Y//kyAwMkCHyk85t4MlgABAosIvKRwMPriIoXwGgIrJPCewmPuHStkp6oECBQUeHXhYHRkwbLZFIEWBQ4vPOaOaBFJnQgQqC/wxsLB6IP1i2wPBEYt8LrCY+6jo9ZQeAIEehP498LB6F291cSOCYxD4GWFx9ynxlFtpSRAYGgCpY8A5EcKFgIEthd4auEE4GPb78p/CBAgsL3AwwoHo3/cflf+Q4BARNy+8JhzJ0DdigCBhQQOLhyMrr5QKbyIwOoIXKzwmLvT6tCpKQECJQXOWTAYnRgR+5YsnG0RaFBgj4j4VcFxd8kGjVSJAIGOBD5eKBi5HrmjBrOb0Qu8otCY+1pE7Dl6DRUgQKA3gYtGxG+XDEi/jIjz9lYDOyYwLoGzRsSPlhxzecTtyuOqttISIDBEgfssGYzuOMRKKROBAQvceMkx95QB103RCBAYkUB+LrnoXQHzeQIWAgTmF3j6gklAfmx32vl35xUECBDYXuDWEfGzGYPSDyLihttvyn8IEJhBIMdQjqU/zfD1h4h4UEScaobtWoUAAQJzC+SVAXmS0ve2CUhHR8QLImK/ubfsBQQIbCWQYykfzPXTbcZcnqPzvog4YKsX+xsBAgRqCJwrIg6JiH+KiLxnwNlr7MQ2CRDYJXDBiLjl2tn9h0bEXSLi0t7x77LxAwECBAgQIECAAAECBAgQIECAAAECBAgQIECAAAECBAgQIECAAAECBAgQIECAAAECBAgQIECAAAECBAgQIECAAAECBAgQIECAAAECBAgQIECAAAECBAgQIECAAAECBAgQIECAAAECBAgQIECAAAECBAgQIECAAAECBAgQIECAAAECBAgQIECAAAECBAgQIECAAAECBAgQIECAAAECBAgQIECAAAECBAgQIECAAAECBAgQIECAAAECBAgQIECAAAECBAgQIECAAAECBAgQIECAAAECBAgQIECAAAECBAgQIECAAAECBAgQIECAAAECBAgQIECAAAECBAgQIECAAAECBAgQIECAAAECBAgQIECAAAECBAgQIECAAAECBAgQIECAAAECBAgQIECAAAECBAgQIECAAAECBAgQIECAAAECBAgQIECAAAECBAgQIECAAAECBAgQIECAAAECBAgQIECAAAECBAgQIECAAAECBAgQIECAAAECBAgQIECAAAECBAgQIECAAAECBAgQIECAAAECBAgQIECAAAECBAgQIECAAAECBAgQIECAAAECBAgQIECAAAECBAgQIECAAAECBAgQIECAAAECBAgQIECAAAECBAgQIECAAAECBAgQIECAAAECBAgQIECAAAECBAgQIECAAAECBAgQIECAAAECBAgQIECAAAECBAgQIECAAAECBAgQIECAAAECBAgQIECAAAECBAgQIECAAAECBAgQIECAAAECBAgQIECAAAECBAgQIECAAAECBAgQIECAAAECBAgQIECAAAECBAgQIECAAAECBAgQIECAAAECBAgQIECAAAECBAgQIECAAAECBAgQIECAAAECBAgQIECAAAECBAgQIECAAAECBAgQIECAAAECBAgQIECAAAECBAgQIECAAAECBAgQIECAAAECBAgQIECAAAECBAgQIECAAAECBAgQIECAAAECBAgQIECAAAECBAgQIECAAAECBAgQIECAAAECBAgQIECAAAECBAgQIECAAAECBAgQIECAAAECBAgQIECAAAECBAgQIECAAAECBAgQIECAAAECBAgQIECAAAECBAgQIECAAAECBAgQIECAAAECBAgQIECAAAECBAgQIECAAAECBAgQIECAAAECBAgQIECAAAECBAgQIECAAAECBAgQIECAAAECBAgQIECAAAECBAgQIECAAAECBAgQIECAAAECBAgQIECAAAECBAgQIECAAAECBAgQIECAAAECWwn8f72PHdJoQ2U/AAAAAElFTkSuQmCC;" parent="1" vertex="1">
          <mxGeometry x="138" y="250" width="92" height="92" as="geometry" />
        </mxCell>
        <mxCell id="p51MJaRD7cqvYZ4VCD2m-7" style="edgeStyle=orthogonalEdgeStyle;rounded=0;orthogonalLoop=1;jettySize=auto;html=1;exitX=1;exitY=0.5;exitDx=0;exitDy=0;entryX=0.5;entryY=0;entryDx=0;entryDy=0;endArrow=none;endFill=0;dashed=1;" parent="1" source="p51MJaRD7cqvYZ4VCD2m-9" target="p51MJaRD7cqvYZ4VCD2m-4" edge="1">
          <mxGeometry relative="1" as="geometry">
            <mxPoint x="460" y="56" as="sourcePoint" />
            <Array as="points">
              <mxPoint x="643" y="105" />
              <mxPoint x="643" y="250" />
            </Array>
          </mxGeometry>
        </mxCell>
        <mxCell id="p51MJaRD7cqvYZ4VCD2m-4" value="" style="shape=image;verticalLabelPosition=bottom;labelBackgroundColor=default;verticalAlign=top;aspect=fixed;imageAspect=0;image=data:image/png,iVBORw0KGgoAAAANSUhEUgAAAgAAAAIACAYAAAD0eNT6AAAAAXNSR0IArs4c6QAAIABJREFUeAHt3QeUNEd1KOArgYRARBFFDgYMAgMCPzLGMkmAyDnaRBsOPGzAgMkSOUeTczDhAMJkEBmMyPBIAmOMyBkDIijB2yvt/l7Nv7uTqjrUfH3Onk093VVfVd2609MhwkKAAAECBAgQIECAAAECBAgQIECAAAECBAgQIECAAAECBAgQIECAAAECBAgQIECAAAECBAgQIECAAAECBAgQIECAAAECBAgQIECAAAECBAgQIECAAAECBAgQIECAAAECBAgQIECAAAECBAgQIECAAAECBAgQIECAAAECBAgQIECAAAECBAgQIECAAAECBAgQIECAAAECBAgQIECAAAECBAgQIECAAAECBAgQIECAAAECBAgQIECAAAECBAgQIECAAAECBAgQIECAAAECBAgQIECAAAECBAgQIECAAAECBAgQIECAAAECBAgQIECAAAECBAgQIECAAAECBAgQIECAAAECBAgQIECAAAECBAgQIECAAAECBAgQIECAAAECBAgQIECAAAECBAgQIECAAAECBAgQIECAAAECBAgQIECAAAECBAgQIECAAAECBAgQIECAAAECBAgQIECAAAECBAgQIECAAAECBAgQIECAAAECBAgQIECAAAECBAgQIECAAAECBAgQIECAAAECBAgQIECAAAECBAgQIECAAAECBAgQIECAAAECBAgQIECAAAECBAgQIECAAAECBAgQIECAAAECBAgQIECAAAECBAgQIECAAAECBAgQIECAAAECBAgQIECAAAECBAgQIECAAAECBAgQIECAAAECBAgQIECAAAECBAgQIECAAAECBAgQIECAAAECBAgQIECAAAECBAgQIECAAAECBAgQIECAAAECBAgQIECAAAECBAgQIECAAAECBAgQIECAAAECBAgQIECAAAECBAgQIECAAAECBAgQIECAAAECBAgQIECAAAECBAgQIECAAAECBAgQIECAAAECBAgQIECAAAECBAgQIECAAAECBAgQIECAAAECBAgQIECAAAECBAgQIECAAAECBAgQIECAAAECBAgQIECAAAECBAgQIECAAAECBAgQIECAAAECBAgQIECAAAECBAgQIECAAAECBAgQIECAAAECBAgQIECAAAECBAgQIECAAAECBAgQIECAAAECBAgQIECAAAECBAgQIECAAAECBAgQIECAAAECBAgQIECAAAECBAgQIECAAAECBAgQIECAAAECBAgQIECAAAECBAgQIECAAAECBAgQIECAAAECBAgQIECAAAECBAgQIECAAAECBAgQIECAAAECBAgQIECAAAECBAgQIECAAAECBAgQIECAAAECBAgQIECAAAECBAgQIECAAAECBAgQIECAAAECBAgQIECAwCAETh0Rl4mIu0bEoyPi5hFx/kGUTCEIECBwssD5IuKm6zHq7hFxuYjI2GUhQGABgZz0PxARv4uIP23x9ZOIeEFEnGmBbXsJAQIElhU4Q0Q8NyJ+tEV8ypj1+4j4cERcftkdeT2BVRHIrPlhEXHcNoNqMhn4bkRcd1Vw1JMAgUEIHBQR354xRh0fEYdGxF6DKLlCEBiowOkj4lMzDqrJRODxA62TYhEg0JbAoyLijwvEqc87YtlWR1CbsgLPW2BQbU4EHAko2x62RoDAKQWuueDkvxGnXnbKzfmNAIEUuNaSAysHWH4c4JwA/YkAgRoCeYTyW0u+Sck4dYMahbNNAmMV2Cciji4wsHJw5YmBFgIECJQWeGahGPWDiNi3dOFsj8BYBa5UaGBlApBn5FoIECBQWmDWk/4yDk37yo8SLAQIRMS9Zxgw0wbU5v+fhyoBAgQKCpy1cIy6f8Gy2RSBUQu8pPDgOmTUGgpPgMDQBK5dOEa9ZmgVVB4CfQl8tvDgenhfFbFfAgSaFHhg4Rj1lSaVVIrAAgJHFR5cT1igDF5CgACB7QTy2v/NHzMu+3OeT2AhQCAiJAC6AQECQxaQAAy5dZRt1AISgFE3n8ITaF5AAtB8E+9ewYtExK3Xrtl88toT6d4SEYf7qmLwm8KH176hnaq0U/b/168/q+F6EXG23YeMv3QscJaIyBPUHhIRr9Pvq/X70m9S8iFn5pM6BjlX55ydc3fO4XMvd1m7NO2nhSelZT8z8vqyn8HxLOP5hYj4y7lHmBcsK/AXEfFJMaro5/JiQpmYMDTHnMtzTp+67B8RbzeoDCp9YK4+cMLas88f42lnU+NLiRXmfVrm0IKx8rQ5yY6hXXNuzzl+y+USEfFzgX+uwD+GRlfG7gLOkRGx95ajyx9LCOTk/xExSozSBxbuAznH51x/iiUH1qKPoTXBdDfBsB6+9eNOMbL8UlLgEQL/woFf7Bh+7OiqjXKuzzl/1/IwA8vA0geK9IH8OOCKu0aWH0oJXC4ijtNHi/TRriYa+xlu0pFz/knLhQ0sg0pgLdoH3OVsI7qU+/4ZfbRoHzU5D3dy7qJtMpnOuf+kswO72KF9rHaHW7X2P3e5uW/lt5SX+q1a/1FfbV67D5x0ZcDzDC7BRR8o3gduvPLTdjmAv9E/i/fP2pOL7Q8/gcm5Pz5tcBlc+kDxPnBYuflv5bdU+kE0JqfhT07aqH4b5dwfvxb8iwd/nbd+5x268RtWftouB/AiMUqM0geK94Gc+x0B0LGKd6yhT85dlM8RgHIJgCMAEuouxuyq7eOkIwDOATC4Vq3jd1Ff5wCUSwCcAyBGdTFmV20fJ50DkGcCrlrF1Veb1+4DrgIolwC4CsB4rT1eV3H7J10F4D4ABtcqdv6adXYfgHKT/8aWPuuNijdq+kCxPrDrPgA5wNxiUxJQc0JcpW2fGBFX3pi1fC8mcGBEHG8CKDYBrNKYVNfd57ec83cteV9gGfbuSDoOk3n7wJN2jSo/lBY4VAIgAdAHlu4DOdef4lkAOVAvFRG/grs07rwThvXbSTJyYJ2m9Kxne7sE9oqIT4hRYpQ+sHAfyDk+5/otl/NFxPvgLoxrMm9nMp+nLfOwf77zN/lvGVaK/jEft/wYHweIUeapuftAzu05x++47BER93I0YG7ceSYM67aTKOQJfz7z3zGkVPnnFSLiiyYBcUofmNoH8l1/zuk5t8+87BkRB0TEnSPi2WuPOH1XRLzbVxWDYwp34m9rpyrtlP3/rRGRN/nJ6/xd6jdzOKm24v5r5y8dshbcHh0Rh+v31fr9twrHqIx55pM6BjlX55ydc3fO4TmXWwYscFThwfWMAddV0QgQGJ/AEwrHqIx5FgIEIkICoBsQIDBkAQnAkFtH2UYtIAEYdfMpPIHmBSQAzTexCvYlIAHoS95+CRCYRUACMIuSdQgsICABWADNSwgQ6ExAAtAZtR2tmoAEYNVaXH0JjEtAAjCu9lLaEQlIAEbUWIpKYAUFJAAr2Oiq3I2ABKAbZ3shQGAxAQnAYm5eRWCqgARgKpEVCBDoUUAC0CO+XbctIAFou33VjsDYBSQAY29B5R+sgARgsE2jYAQIRIQEQDcgUElAAlAJ1mYJECgiIAEowmgjBHYXkADsbuIvBAgMR0ACMJy2UJLGBCQAjTWo6hBoTEAC0FiDqs5wBCQAw2kLJSFAYHcBCcDuJv5CoIiABKAIo40QIFBJQAJQCdZmCUgA9AECBIYsIAEYcuso26gFJACjbj6FJ9C8gASg+SZWwb4EJAB9ydsvAQKzCEgAZlGyDoEFBL4eEX8q+PXMBcrgJQQIENhO4IkF41PGunzTYyGwsgKnjYi/i4hPFR5YObiOj4g3RcS1ImKPlRVWcQIElhW4ZkS8ISKOqxCnPhIRt42IvZctpNcTGIvAfhHx1Ij4RYUBtdVRhDy68A8RcaqxACknAQK9CuwZEXeLiK92FKN+HBGPjYgz9lprOydQUSDfiec7/p92NKgmk4HPRcQVK9bPpgkQGL/A5SLikz3FqB+uHxEYv6IaENgkcPG1w/Ef62lQbU4E/hgRL4iI028qmx8JECCwT0Q8PSJOGECcOiIiLqxJCLQgcFBE/HIAg2pzIvD5iDhPC7jqQIDA0gJni4iPDyxG/SwirrZ0zWyAQI8Ceci/xskzmyfzRX/+XkRctkcbuyZAoH+BPDr5zYFN/hsx7Q8Rcbv+iZSAwPwCDxzooNoYXPn9NxFxlfmr5hUECDQgcJkOT0beHHfm/fm+DVirwgoJ3Doi8vP2eTt6H+vnSYk+b1uhzqmqBCLi3BHx3ZHEqBMj4qZajcAYBK4cEb8fycDaSDi+FhFnGQOuMhIgsLTAvhHx2ZHFqN9GxBWWrrkNEKgocM6I+MnIBtZGEvCeii42TYDAcAReP9IYlZcJ5gmLFgKDFHjNSAfWRhJwx0GqKhQBAqUEDhl5jHp5KQjbIVBS4G9GPrAyCcg7cvkooGSvsC0CwxE4XUR8u4E49VfDIVUSAiffy/obDQysTAKeP6IGzbsrniMi8mzmK/li0GEfyEto8yO/vG3uWJbST/TbOHLY9fe8RfFeY0FXzvYF7tTI5J8DOR8klGcID23JZxlk5v+09VuV5hnMWdaug4/9Md/cB7IP5j018qFez1jvo0N87kYe2csT6TaXfcw/uz/A0CL0CpfnyIYGVgaFRw6oLXPSz8/98s5gYw5Yyr467ZeX1r50PRkYylB6QGPj56NDgVWO1Ra4fGMDKyeqfEdz6p6b9dIR8Y4GbSUCq5MIZFu/a/0jqj6HU35M8a0Gx1LGCAuBXgVe2ODAysB1455UzxURL4uIvPmHyZJBC30g+/Krevxo7eBGx9Jze4pRdktgl8DRjQ6uPk4GPHBEdydrYWJSh24TrLyOPU9W7XrJcxNabOs8qmEh0JtA3kK3xYGVdTqqY9WbN3aSUqv9Qr2WG/P5gJuu77fxuYbj1Pk7jlN2R2CXwF0aHlgZ6PffVdO6P+QJSmN5doIJcLkJkN/JfofVHVK7tn6mxj9Ou/OumvqBQMcCeaZvywHtVh143qZxw5b7h7otN/7v2cH4uk7j4+vFHRjaBYEtBd7X+OC6/5a1LvfHfLjH7xo3NEkuN0m27HdcRFyz3HDackt3bXx8vXfLWvsjgQ4EvtD44Mo7h9Va8mZD32/cr+XJS93KJDZ5f4uaj+N+cONj7PO1ApTtEpgm0PoE9pJpAEv8/62NByYTZJkJchUcP7TEOJr20qc2Ps7yniUWAr0IHNv44MpJusZyjcbdVmHSUseyCc71awy0iHhF42MtY7CFQC8CrQfBd1dS/WTjQan1fqF+ZSf/9Px/lR4s9LoVGGuVwpTNEthZoPVAWCMByCsLWndTP228SB+ocUmbBGDnGO6/BBYWWGSQj+k1NRKAD0sAJED6wJZ9IJ8oWHqRAJQWtT0C6wJjmswXKWvpBOCsEXGC4L9l8F+kfbymrSMNeTOs8xaOrhKAwqA2R2BDoPUAXDoByEOcrZupnzZepg/ceyO4FPouASgEaTMEJgWWGehjeG3pBOBNEgAJkD6wYx84YjLILPm7BGBJQC8nsJ3AGCbxZcpYOgH4leC/Y/Bfpq28to0jD8dHxF7bBZwF/i4BWADNSwjMItB60C2ZAORDSVr3Uj9tXKIPnG+W4DPjOhKAGaGsRmBegRKDfcjbKJkAHCABkADpAzP1gSvOG4h2WF8CsAOOfxFYRmDIk3eJspVMAFp/KlkJb9twBCH7wE2XCUoTr5UATID4lUApgdYDdskE4C7e/c307q/1PqV+05OcklcCSABKRXvbITAh0HowK5kA3E8CIAHQB2bqA/kEv1KLBKCUpO0QmBBoPQE4JiKOKvT1Y8F/puDfep9Sv+lHAH5SaMzl2P31Coy7ibDsVwLdCAhm04MZI0b6gD5Qsw90E+3thcCEQM1ObduCpj6gD+gD0/vARFj2K4FuBAzO6YOTESN9QB+o2Qe6ifb2QmBCoGantm1BUx/QB/SB6X1gIiz7lUA3Agbn9MHJiJE+oA/U7APdRHt7ITAhULNT27agqQ/oA/rA9D4wEZb9SqAbAYNz+uBkxEgf0Adq9oFuor29EJgQqNmpbVvQ1Af0AX1geh+YCMt+JdCNgME5fXAyYqQP6AM1+0A30d5eCEwI1OzUti1o6gP6gD4wvQ9MhGW/EuhGwOCcPjgZMdIH9IGafaCbaG8vBCYEanZq2xY09QF9QB+Y3gcmwrJfCXQjYHBOH5yMGOkD+kDNPtBNtLcXAhMCNTu1bQua+oA+oA9M7wMTYdmvBLoRMDinD05GjPQBfaBmH+gm2tsLgQmBmp3atgVNfUAf0Aem94GJsOxXAt0IGJzTBycjRvqAPlCzD3QT7e2FwIRAzU5t24KmPqAP6APT+8BEWPYrgW4EDM7pg5MRI31AH6jZB7qJ9vZCYEKgZqcewrb/OyKeX+jryBAEh9CmyjD8fnjEWpx5VKGvo1Zg3E2EZb8S6Eag9WB6eEHGB69AIGq9P6hfN8lDjpVSS47h1tutlJXtEJhLoPWBJQFoP3i23ofHWD8JwHzjbq6gbWUCpQTGGFzmKXPJBOD+K/BOZB5b684X5FfJ6x9LBaiIcASgIKZNEdgs0HpQKpkA3FYC0Pyh2NbHQ1f1u/XmILPkzxKAJQG9nMB2Al0FhL72UzIBuIYEQAKgD8zUB666XcBZ4O8SgAXQvITALAJ9Tcxd7bdkAnBhwX+m4N9V29rPcD+CuOAswWfGdSQAM0JZjcC8Aq0H0ZIJwD4SAAmAPjC1D/wxIvaeNxDtsL4EYAcc/yKwjIAEYD69L5sApk4Arfcp9dv5yMPn5htSU9eWAEwlsgKBxQRaD2YljwCk8GESAAmAPrBjH3jkYqFo21dJALal8Q8CywlIAObzO1Dw3zH4t96f1G/nd//pc9n5htTUtSUAU4msQGAxgdYDWukjAKn8bUmAJEAf2LIPHL1YGNrxVRKAHXn8k8DiAq0nAG9ZnGbbVz5W8N8y+Lfel9Rv+rv/x207ahb/R47h1u0X1/FKAksI/KrxwfWKJWy2e+mZI+Lnjbu1HnDVr/ykmmMix0bpJcdwy+2VMdhCoBeBrzU+uB5fSfWfGndrOeCqW50JteTtfzcP2xzDLbdZxmALgV4E3t/44LpPJdXTREQ+arjlwKRu2nfWPvCtwtf+bx62OYZnLccY18sYbCHQi8CrGh9cN6+oesOIyJuejDHoKLN2K9UHToyIgyuOsxzDpco6xO1kDLYQ6EXgiY0PritXVs3Hng4xqCiTdumqD5R89O9WwzXHcFd16WM/GYMtBHoRuFPDg+uEiDhLB6qvbNiwj4Bon+OZ8F7bwfjKMZxjudV+kTHYQqAXgf0aHlwf7Eg0zwf4aMMBqtXAq17LTapHRsRpOxpjOZZbbK9MbDIGWwj0JtDq4Pq/HYpmIMx3Qy0GKXXSrpN94I0RcboOx1eO5ckytPB7V29SOmwquxqbQKuD6wI9NMRDnRjYZKBuYbIpUYc86fVREbFHx2Mrx3KJ8g9tG12+Sem4yexuLAItDq7P94h/44j4YaMBa2gBVHm6mxizT9e8qmbakM0x3Vp79/EmZZqz/6+gwDsbG1z36LkN9107t+JhEfHrxlxbC8DqM31SzTvV5ZGt7NN9LjmmW2qvjLkWAoMQuHRE5PW8LQywvLPWqQahGnG2iHi6Wwc30a9aGBvz1OHHa5P+kyPirAMZSzmmW7lzacbajLkWAoMReFkjCUAegh/aksHrmuvJQN41bZ5AbF1eXfWBvLvl0yLi6hGx59AGUUTk2O7KouZ+MtZaCAxK4LwR8fuRD7C8HG8My/4RcfmIyLsJ5qHNR0bEE5b8ev3I265mwG1t229fsq9kX8uT+e4ZEYdExBUi4txjGDgNXHKbMTZjrYXA4ARyIhprsDxuPZANDrWjAl1vxG031j7XV7n/tqM+NcTdZLKSY70v+2X3mzHWQmCQAnnY720jHVx3H6Rod4W69kjbbdmAuoqvv2N33WqQe8qxPsZ2z9g6xI9WBtnICtWPwBki4isjG2DP6odqUHu97MjabIwBfChlrvnwnUF16h0Kk2N+KO0xSzkypmZstRAYvMBFRnTm+hERcerBi9YvYJ5XMEsgss74nQ6s350Gv4cc8zn2x9Cffx4RGVMtBEYjcLWI+MXAB1jej7yLB/6ModEyIHo88TgmhGUnrfOMoUN2UMYc+xkDlvWs+fqMoRlLLQRGJ/BnA7729tVrZ0LvMzrRegW+UcMPdqoZoMe47dvV60aj23LGgIwFQ2zHvG9BxlALgdEKnCki3j2gAZbvch8yWs3yBd97/f4CQwyAylRvYnq+BPgUgyljwpCOgGXMzNhpITB6gbyRzePWJt5je04Evh8R+U7XcrJAfq74mZ7bxCRfb5KfZvvFiLi4wbBLIGPD93oeDxkjM1YO5W6ku3D8QGBZgQtFxGt6yLTzfuT/0vEjSJe1qv36W0dEukybJPy/baPfRMQdane2EW0/H839oB7OX8rb+74yIjzgZ0SdRVEXE8izkN/XweST2XTeS38o9yNfTKvsqzLAvbADe4nDuBKHl0qQTzHQ8gTBJ0bE7zoYK3l9v3v7n4LfL6sgkCe43D8iPlzwBLR8V5u3tc0Tnc68Cohz1PESa49k/VIHAc3kP67Jf6O98lrzA+boT6uw6ukj4hbrJwr+stDYOT4iPrB2qfR9IuJ8q4CojgSmCeS79DutZ92vWnugyPsj4qsR8T9bDLo8WSefNpbP+H5HRLwoIh4dEddZ+/wsT2qz7C6Qt/o9ZgvLjeDv+zgn7dLt9tv1+/vv3oP8Za+IyDtmZqzJmJOxJ2NQxqKtTiDM2JUxLGNZxrQ8opB3YdwPJQECBLoSuOXI739eepKzvZ2TnXyH6ryArkan/RAgQKCSwF0jIk8wMukxmKcP5Dvae1fqkzZLgAABApUF8vyKeYK+dXlN9oGHVe6jNk+AAAEChQUOM/lLfgr1gaetfe69R+H+aXMECBAgUFggA/WzCwX+yXeDfl/dIwR5maCb0xQerDZHgACBUgL5QJ+8mYiJmkGNPvAmV9mUGqq2Q4AAgXICp4mIw03+kp/KfeC9EbFvuW5rSwQIECCwjEAG5LzWuMa7PtvkOtkHPuEx2ssMV68lQIBAGYG8Ocl7TP6Sn477wMfXbmyTt5W2ECBAgEAPAnnCX95hbPIdWhe/b3Xnsy72ax/9tPdW7vmRkxMDexj4dkmAAIEn9TT5/2D9tssXW7+96Y96KsdWk9Kq/C0fUpMnfF5j/fa0fT3G9nmGIQECBAh0K3C/nibdN2/xdMX8GOJmEfFOdx2sfjQm7z2fd+ibfNBVPr0uH4LVRwLkZkHdjn17I0BghQVuvc3DR2oG/3yQ0N1mMD9DRFwqIm4QEfdaP0Lwuoh4d4df+fl0aYsvR8SRHX7l2fb5wJmcXPMhWX8VEeefwT8fNpNPxCxd/2nb+7sZymYVAgQIEFhC4GoRcWzHAf4bEXHxJcrc9UsvW8HnSl1XYon9XaiHxz7nA4SutUSZvZQAAQIEdhA4V0Tk5+/T3o2V/P8HR/j40lVPALILnTEi3tVxX/lZRFxgh/7rXwQIECCwgEDe5e+jHQf0F0dEfr4/tkUCcHKL5Rn6Xd8W+tMRkTelshAgQIBAIYFndDj55+ODH1Co3H1sRgJwSvX7rJ1LcEKH/ScTRwsBAgQIFBC4bYfBO0/2u3GBMve5CQnA7voHR8SvO+xHs5wwunsp/YUAAQIEdgnkGfW/7Shw537yuvKxLxKArVswT2TsKgn4Q0RcYeti+CsBAgQITBPIE7nyDPySJ/Vtt63fR8RB0wo0kv9LALZvqKtGxG866lNHb3HPiO1L5j8ECBAgsEvgJR0F6ny3dt1dex3/DxKAndsw7ynQ1VGlN+xcFP8lQIAAgUmBG3Y0+R8XEbmvlhYJwPTWzKM9eTvh7Y4Ilfx7nsNiIUCAAIEZBM4aET/sIDjnzVtuOkN5xraKBGC2FrtOROTRn5KT/Vbb+nlE7D9bkaxFgACB1RbIW+duFUhL/i0vC7tVo8wSgNkb9vod3VnyHbMXyZoECBBYTYG8z3/JiX67bbV8mZYEYL6xc4uOni3Rcp+bT9zaBAgQmBDIW/3m7VS3m7RL/f05E/tt7VcJwPwt+pgO+l1egnjB+YvmFQQIEGhf4G0dBOEPj/T2vvO0vgRgHq2T191z7br9t3fQ//LZEnvMXzyvIECAQLsCt+wg+H4nIs7RLuGumkkAdlHM9cOZOrrvxF3nKpWVCRAg0LDA6SIiJ+dSh/i32k7e6OfyDRturpoEYLPGfD9fsoO7Bf4kIs48X7GsTYAAgTYFuvj89Y4L0OXT5K4SEfkwmZetXTL4xYj40Qi+apxH8e2IOGoEX/kRz9MjIts7J/NFDrffpIOTAp+1QH/0EgIECDQlcJEOrsXOCWHeJSePfLTrVkcT/G08Lu9f8MS7Qyu3fV6Geul5O6X1CRAg0JLAv1cOtDkB5Dv5WZdc9587SEokEd0lEXn2/T1m7QDr6+WRg9onpX5ozjJZnQABAs0I5E1Yak6E31/gYSzPrFymmvW17Z370+PmHDl5UuB/Ve4Pt5mzTFYnQIDA6AX2joj/rBxc573H/9U7+OzXJL3zJF3TJw+75yOB51n+unKf+F5E7DtPgaxLgACBsQs8pPLk/8o5gfJKhNoJSc3JzbZnSyzyRMZ95uwbz6vcVx8/Z3msToAAgdEKnK3yM9nzQUL7zanzgMpB3gQ92wTdhVOe4zHPcoaIOLpi/zg2Is4/T4GsS4AAgbEKPKFiMM0JJC/jmnd5c+UydTGx2cdsSUaeeDrvct3K/eP58xbI+gQIEBibQO13//+2IEjtGxGZnGebnLtwyiNEiyx5L4ha5XMUYJEW8RoCBEYlUPPd/48jIhOMeZdzVgzstSYM211uMj7PvJ1k/e59P6jYVxwFWKBRvIQAgXEI1H73n491XWTJs/9NqKtlcK1FOkpE3KhiX3EUYMFG8TICBIYvUPPd/xFLVP+aFYO6xGLvB2VgAAAT5klEQVSYicX1lugv76jYXxwFWKJhvJQAgWEK1Hz3/8eIuNwS1ZYADHOSrpk8LZMAHBAReU+BGuVzFGCJgeylBAgMU6Dmu/95r/mfFJIA1JnMakyQpba5TAKQ/edFlRKArJ+jAJMj1O8ECIxWoOa7/3zM77LXUEsAJADzDq79I+KYSkmAowDztob1CRAYrMBhlQJlvlvKIwvLLhIACcAifejRFfv1sxcpkNcQIEBgSAJ5z/+8PK/UodvN28nn3ucDW5ZdJAB12mdzWw3t52U/Asg+d/qI+FGlvp1PMMw7EFoIECAwWoE7VAqQOaHct5CKBEACsGhXumfF/n3vRQvldQQIEBiCwJGVAuQ3I2KvQhWUAEgAFu1Kp4qIr1bq47ldCwECBEYpcIVKgTHf/d+yoIgEQAKwTHc6pGI/P2iZgnktAQIE+hJ4eaXAmO+M9ihYqVVKAI6PiE9HxFsi4rlrt05+TkTkg5A+GRHHVWqvoX3+n+UpcQ7A5i74uUp2b9q8Ez8TIEBgDAJ56d8fKgXFuxUGWIUEIO+UeKeIOMsOdnlC5e0j4t2V2m1IiUDpBCDdatQvbzh03h3azL8IECAwOIEHVwqIeUXBPoVr23ICkO/2FzmMfI2I+ESlNqwxUc67zdIJwKkj4ruVvB5TuL/bHAECBKoJ5IlRR1cKho+oUOpWE4C8ljzbYtFlz7VL3Z5SqR3nnbBLr186AUjjB1SyyqQ3L6e1ECBAYPACN6kUCH+34ON+p4G1mADcZ1ql5/j/3Su1Z+lJfZ7t1UgAzhgRv6pkdbs52suqBAgQ6E3gvZWC4PMq1ai1BCDftZde8jD0PBPs0NetkQCk+VMrOX2sdIPaHgECBEoLnCsiTqwQBPOJfxcrXdj17bWUAHxgycP+2xHnVRfvqtCufSUKtRKAfC5FXmlRo14X2q5x/J0AAQJDEMhDzzWC31srVq6VBCATr0tXdMoErNbkVqPP7LTNWglA8r+20hjIE2stBAgQGKzAxysFvzwrvdbSSgKQ912oveSjaneaWMfyv5oJwIGVjL5Yu3FtnwABAosK5OHPPFRfehLIS9lqLq0kAFesibS+7ctWaN/S/WWW7dVMAJLqg5WcLtlBG9sFAQIE5haodRlU3mSl5tJCAvD9wndH3Mn7vytNbrNM3KXWqZ0A3KiS0aE7NYz/ESBAoC+Bz1QIer+JiNNVrlALCcBLKhtt3vy/VmjnUhP7rNupnQDkjYF+WsHpPzc3hJ8JECAwBIGLVgh2Gcxf1UHlWkgAHt6B08YuHliprWedvEusVzsBSKt81kKJsk5uIx+yZSFAgMBgBB5WKdgd3EENW0gA7tqB08Yuat33fnKiq/l7FwnAVSqNiRr3edhoW98JECAwt8CXKwS7PISah1JrLy0kALepjbRp+7Xu9Fhzwp/cdhcJQJJ9q8K4yGcOlHwa5qam9SMBAgTmE7hUhSCXATsPoXaxtJAA3K8LqPV9/H2l9p6cpGv+3lUC8NhKVjUvi+2wK9kVAQJjF6h1m9irdgTTQgLwpI6scjd5JnrNybmLbXeVAORlezXqkydiWggQINC7wOcrBLlvd3iYs4UE4EMd9oJ3VmjvGpPkTtvsKgHIZqkxPvJjAAsBAgR6FThHpZv/PL7DWrWQAJwQEWftwGzfiPiDBGAu6Vr3x/jzuUphZQIECBQWyMeU7vROa9H/1byn/SRBCwlAOudje2svt6rU3ov2k0Vf1+URgPNWekDWfWs3tu0TIEBgJ4G8//yiQXi7131ppx1W+F8rCUCecb53BZ+NTZ4qIr5Sob236wc1/95lApB+NW4N/LaNhvGdAAECfQjkLWhLB+qHdFyRVhKAbIeaVwPco0Jbl+47s26v6wTgbhXs8i6Ze3U8VuyOAAECJwkcUCGoZQC/YMe+LSUAx0TEZSr4XSIifl2pvWedtEuu13UCcOaIOLaCn8sBK3R2myRAYLpAvtssGZRzW10f/s9atpQApGE+rOds05tv5jXOEhF5D/rSbd3n9rpOABL7/RUM8xJcCwECBDoXqHE52NM6r0V7CUBOrF+PiIsXsLxIRNS4y2Ofk3/uu48EID/aKl3vTxZoY5sgQIDAXAJ5slkebi4d0K4/VynKrNzaEYCNNvmfiMiz9hddbhoRP6/Qxhvl6/N7HwnAX1awPDEi8giNhQABAp0J1Jg0j4uIvM6866VGXfqc3Cb3/fG1w89XnwP1yhHx4QqT1WS5+vy9jwRgz4j4ZQXXW8zRtlYlQIDA0gKPqxDIctLpY2k9AdiYaPPuis9aO8/i5hFxxYg4X0TkNer/JyLy3f4zIuK/KrTrxv6H9L2PBCD79psr+L6wj0FjnwQIrK7ApysEsi6fab+55VYlARjSBNx3WfpKAO5VYdzkSZ8WAgQIdCJwxkp3NrtSJ6XffScSgPLncvQ9wU/bf18JwMUqJABZ1wvt3q39hQABAuUFDqoQxPKEtbzTXB+LBEAC0GW/+06F8bPMyZ5d1t2+CBAYucA/Vwhgh/doIgGQAHTZ/V5WYfw8ucsK2BcBAqsr8MYKAezePXJKACQAXXa/21cYP10+DrpLK/siQGBgAnk2+bTPWOf9f4mb1izKJAEo357ztn/X6/d1DkD20XNVGD95m+a8zNBCgACBagJnrxC88jPRPhcJgASg6/6Xt7wunfRcsutK2B8BAqslkHfqKx24XtozoQSgfJuW7iOlt9fnEYDs7k+vMI7u1PM4snsCBBoXeGSFwHW7ns0kABKArrvgDSuMo2d3XQn7I0BgtQTeViFwdf3438kWkwBIACb7RO3f96swjo6sXWjbJ0BgtQV+VDhw5fX/fS/52WnpQ8y2N2zTA/vudBFR+n4Af4iIvQZQL0UgQKBBgbx3fOmJ7SMDcMqzp39ToW6lrWyvTP8bykRZ42jaEBKbAQxpRSBAoLTAzSpMks8pXcgFt9f60+8kD/+bPHxywT5S+mWHVRhP9yxdSNsjQIBACjy+QsC6+0Bon1qhbibd/510h2Tx3IH0uXyMb2mXFw+kbopBgEBjAkdUCFj5KNohLJeKiGMr1K90gLe95SbN4yLickPocBFx0Qr97QsDqZtiECDQmMAPCgesEyPidAMyemjh+pmsl5usa/g9akD9bY8K555kEuuOgANqZEUh0ILA6StMjkcNDObUEfHZCvWsMZHZ5vzJxecGeJb8f1Tob31fVjuwYa04BAgsK3DZCoHqDcsWqsLr87BsHkY1wbZlkG2abTu05XkV+tq1hlZJ5SFAYNwCNU5YykPuQ1zyWupDI+L4CsFZYtFtYpFtmG051Ovj86z90n3i74c4qJSJAIHxCjykQqDK26EOebl8RLxo/YiAZKD8RFV64tvYXrZVvuPPtss2HPJypQrj6ilDrrCyESAwPoF8YM9GgC31PW8sNJbltBGRwfomvgZtkG2UbTWWZd+IyJNhS42p3M7hY6m8chIgMA6BvGNfySD1i3FUWykJVBf4RuGx9eXqJbYDAgRWSuCHhYPUB1dKT2UJbC+QJ8OWTK5/HxF5iaGFAAECSwvUuATwmUuXygYItCFQ4/4TY/p4rY1WVAsCjQrUuATwLo1aqRaBeQXyZNiSRwByW389byGsT4AAga0EblkhQF1tqx35G4EVFKhxS+ChPGNjBZtTlQm0JfAvFRKAC7VFpDYEFhbI22GXPgLwxIVL44UECBDYJFD6EsA/rj1Z8DSbtu9HAqsu8MvCScCbVh1U/QkQKCPw0cLB6adlimUrBJoRyEv3Sh4F+GIzMipCgECvAqUvAfTI0l6b084HKPCewgnAMQOsoyIRIDAygXy0aOk7lb1jZAaKS6C2QOmP2fJowplqF9r2CRBoW+Dshd+ZZGB6YdtkakdgboHDKoyzP5u7FF5AgACBTQKXqBCYHrlp+34kQCAin+BX8hyA3NZVwBIgQGAZgWtUCEx3W6ZAXkugQYFDKoyzGzfopEoECHQocPMKgengDstvVwTGIHBghXEm0R5DyysjgQEL1Dg0+RcDrq+iEehD4JwVEoC8gZeFAAECCws8vEJg2m/h0nghgTYF8ul9xxUea09vk0qtCBDoSuBZhYNSPqrUQoDA7gJHFx5rr959F/5CgACB2QVeWzgofXP2XVuTwEoJ/EfhsfbeldJTWQIEigu8r3BQ+nDxEtoggTYE3lh4rH2+DRa1IECgL4G8bW/J65PziIKFAIHdBZ5ReKx9b/dd+AsBAgRmF/h+4aD05Nl3bU0CKyXwwMJj7diV0lNZAgSKC2QQKXkE4H7FS2iDBNoQuF3hsZbj1vMA2ugbakGgc4EMHiUn/9zWHTqvhR0SGIfAtSuMN88DGEfbKyWBwQlcpEJAusXgaqlABIYhcLUK483zAIbRtkpBYHQCV6oQkG4wOgUFJtCNwOUrjDfPA+im7eyFQHMC16oQkA5qTkmFCJQROKDCePORW5m2sRUCKyeQ79ZLnwNw5ZVTVGECswlcuMJ4u8tsu7YWAQIETilwswoB6XKn3IXfCBBYF9i/wnj7B7oECBBYROC2FQLSny9SEK8hsAICZ64w3lx2uwIdRxUJ1BC4c4WAdIEaBbVNAg0I7FNhvD2oARdVIECgB4F7VAhI5+ihHnZJYCwCfyw85h4xloorJwECwxK4T+FglCcUnnFYVVQaAoMS+F3hMffYQdVOYQgQGI3AAwoHo0wA9hpN7RWUQPcCPy885p7SfRXskQCBFgQeWjgYndACijoQqChQ+uFbz65YVpsmQKBhgUMLJwDHNGylagRKCHyz8Jh7YYlC2QYBAqsn8MTCweinq0eoxgTmEvhS4TH38rn2bmUCBAisCzyjcDD6DlkCBHYU+HThMfdvO+7NPwkQILCNwL8WDkZf32Y//kyAwMkCHyk85t4MlgABAosIvKRwMPriIoXwGgIrJPCewmPuHStkp6oECBQUeHXhYHRkwbLZFIEWBQ4vPOaOaBFJnQgQqC/wxsLB6IP1i2wPBEYt8LrCY+6jo9ZQeAIEehP498LB6F291cSOCYxD4GWFx9ynxlFtpSRAYGgCpY8A5EcKFgIEthd4auEE4GPb78p/CBAgsL3AwwoHo3/cflf+Q4BARNy+8JhzJ0DdigCBhQQOLhyMrr5QKbyIwOoIXKzwmLvT6tCpKQECJQXOWTAYnRgR+5YsnG0RaFBgj4j4VcFxd8kGjVSJAIGOBD5eKBi5HrmjBrOb0Qu8otCY+1pE7Dl6DRUgQKA3gYtGxG+XDEi/jIjz9lYDOyYwLoGzRsSPlhxzecTtyuOqttISIDBEgfssGYzuOMRKKROBAQvceMkx95QB103RCBAYkUB+LrnoXQHzeQIWAgTmF3j6gklAfmx32vl35xUECBDYXuDWEfGzGYPSDyLihttvyn8IEJhBIMdQjqU/zfD1h4h4UEScaobtWoUAAQJzC+SVAXmS0ve2CUhHR8QLImK/ubfsBQQIbCWQYykfzPXTbcZcnqPzvog4YKsX+xsBAgRqCJwrIg6JiH+KiLxnwNlr7MQ2CRDYJXDBiLjl2tn9h0bEXSLi0t7x77LxAwECBAgQIECAAAECBAgQIECAAAECBAgQIECAAAECBAgQIECAAAECBAgQIECAAAECBAgQIECAAAECBAgQIECAAAECBAgQIECAAAECBAgQIECAAAECBAgQIECAAAECBAgQIECAAAECBAgQIECAAAECBAgQIECAAAECBAgQIECAAAECBAgQIECAAAECBAgQIECAAAECBAgQIECAAAECBAgQIECAAAECBAgQIECAAAECBAgQIECAAAECBAgQIECAAAECBAgQIECAAAECBAgQIECAAAECBAgQIECAAAECBAgQIECAAAECBAgQIECAAAECBAgQIECAAAECBAgQIECAAAECBAgQIECAAAECBAgQIECAAAECBAgQIECAAAECBAgQIECAAAECBAgQIECAAAECBAgQIECAAAECBAgQIECAAAECBAgQIECAAAECBAgQIECAAAECBAgQIECAAAECBAgQIECAAAECBAgQIECAAAECBAgQIECAAAECBAgQIECAAAECBAgQIECAAAECBAgQIECAAAECBAgQIECAAAECBAgQIECAAAECBAgQIECAAAECBAgQIECAAAECBAgQIECAAAECBAgQIECAAAECBAgQIECAAAECBAgQIECAAAECBAgQIECAAAECBAgQIECAAAECBAgQIECAAAECBAgQIECAAAECBAgQIECAAAECBAgQIECAAAECBAgQIECAAAECBAgQIECAAAECBAgQIECAAAECBAgQIECAAAECBAgQIECAAAECBAgQIECAAAECBAgQIECAAAECBAgQIECAAAECBAgQIECAAAECBAgQIECAAAECBAgQIECAAAECBAgQIECAAAECBAgQIECAAAECBAgQIECAAAECBAgQIECAAAECBAgQIECAAAECBAgQIECAAAECBAgQIECAAAECBAgQIECAAAECBAgQIECAAAECBAgQIECAAAECBAgQIECAAAECBAgQIECAAAECBAgQIECAAAECBAgQIECAAAECBAgQIECAAAECBAgQIECAAAECBAgQIECAAAECBAgQIECAAAECBAgQIECAAAECBAgQIECAAAECBAgQIECAAAECBAgQIECAAAECBAgQIECAAAECBAgQIECAAAECBAgQIECAAAECBAgQIECAAAECBAgQIECAAAECBAgQIECAAAECBAgQIECAAAECBAgQIECAAAECBAgQIECAAAECBAgQIECAAAECBAgQIECAAAECBAgQIECAAAECBAgQIECAAAECWwn8f72PHdJoQ2U/AAAAAElFTkSuQmCC;" parent="1" vertex="1">
          <mxGeometry x="598" y="250" width="92" height="92" as="geometry" />
        </mxCell>
        <mxCell id="p51MJaRD7cqvYZ4VCD2m-9" value="" style="shape=image;verticalLabelPosition=bottom;labelBackgroundColor=default;verticalAlign=top;aspect=fixed;imageAspect=0;image=data:image/png,iVBORw0KGgoAAAANSUhEUgAAAgAAAAIACAMAAADDpiTIAAAAAXNSR0IB2cksfwAAAAlwSFlzAAAP/gAAD/4BstaVKgAAAvpQTFRFAAAAAAAAAAAAAAAAAAAAAAAAAAAAAAAAAAAAAAAAAAAAAAAAAAAAAAAAAAAAAAAAAAAAAAAAAAAAAAAAAAAAAAAAAAAAAAAAAAAAAAAAAAAAAAAAAAAAAAAAAAAAAAAAAAAAAAAAAAAAAAAAAAAAAAAAAAAAAAAAAAAAAAAAAAAAAAAAAAAAAAAAAAAAAAAAAAAAAAAAAAAAAAAAAAAAAAAAAAAAAAAAAAAAAAAAAAAAAAAAAAAAAAAAAAAAAAAAAAAAAAAAAAAAAAAAAAAAAAAAAAAAAAAAAAAAAAAAAAAAAAAAAAAAAAAAAAAAAAAAAAAAAAAAAAAAAAAAAAAAAAAAAAAAAAAAAAAAAAAAAAAAAAAAAAAAAAAAAAAAAAAAAAAAAAAAAAAAAAAAAAAAAAAAAAAAAAAAAAAAAAAAAAAAAAAAAAAAAAAAAAAAAAAAAAAAAAAAAAAAAAAAAAAAAAAAAAAAAAAAAAAAAAAAAAAAAAAAAAAAAAAAAAAAAAAAAAAAAAAAAAAAAAAAAAAAAAAAAAAAAAAAAAAAAAAAAAAAAAAAAAAAAAAAAAAAAAAAAAAAAAAAAAAAAAAAAAAAAAAAAAAAAAAAAAAAAAAAAAAAAAAAAAAAAAAAAAAAAAAAAAAAAAAAAAAAAAAAAAAAAAAAAAAAAAAAAAAAAAAAAAAAAAAAAAAAAAAAAAAAAAAAAAAAAAAAAAAAAAAAAAAAAAAAAAAAAAAAAAAAAAAAAAAAAAAAAAAAAAAAAAAAAAAAAAAAAAAAAAAAAAAAAAAAAAAAAAAAAAAAAAAAAAAAAAAAAAAAAAAAAAAAAAAAAAAAAAAAAAAAAAAAAAAAAAAAAAAAAAAAAAAAAAAAAAAAAAAAAAAAAAAAAAAAAAAAAAAAAAAAAAAAAAAAAAAAAAAAAAAAAAAAAAAAAAAAAAAAAAAAAAAAAAAAAAAAAAAAAAAAAAAAAAAAAAAAAAAAAAAAAAAAAAAAAAAAAAAAAAAAAAAAAAAAAAAAAAAAdXxHkwAAAP50Uk5TAAQvY4FTHh1RZTG+9v/qmQ8Nlej3wTN8+uNHQuD7ggUMyoeA/s+XQJ9E3ksI4ZHmCzhrGxNznU1Fpc19ddXYiCNXi6+w89qpSBQReahi69A1LskZtPyEKe3IBsKGfjcizBpPQ8uD8qqb/TkyiizxB8e7AWo00QIrX5O3uPSxkNmJCWGtWRKN7mkDZNbphQ7O5yfEj7zvxew85DDc+Fo6btf1F7ldoAo/mBZejn+edMMttZoYo0lWWGdGnLrleMD5Pkqh0hxw33E7INQQcr1tTKKmv2+rH3u2Zj1gs5IkpE4helx301TwVSauUigqJUGU4lCy3dunW4yWdhU2xmjb5PKjAAAcAUlEQVR4nO2dd2AV1dLA74IQmhBsAUGIIE0pgUdVkQRFAqH5UCAhCgEVHlUDBESlSDM8ikgRQYpUgUdLKEZBAYmAdOnKB0gRkCJgpZmPIsjNzt67d3fP2Tl35vePOLt3dwK/7N3dc86M5mFIo7mdAOMuLABxWADisADEYQGIwwIQhwUgDgtAHBaAOCwAcVgA4rAAxGEBiMMCEIcFIA4LQBwWgDgsAHFYAOKwAMRhAYjDAhCHBSAOC0AcFoA4LABxWADisADEYQGIwwIQhwUgDgtAHBaAOCwAcVgA4rAAxGEBiMMCEIcFIA4LQBwWgDgsAHFYAOKwAMRhAYjDAhCHBSAOC0AcFoA4LABxWADisADEYQGIwwIQhwUgDgtAHBaAOCwAcVgA4rAAxGEBiMMCEIcFIA4LQBwWgDgsAHFYAOKwAMRhAYjDAhCHBSAOC0AcFoA4LABxWADisADEYQGIwwIQhwUgDgtAHBaAOCwAcVgA4rAAxGEBiMMCEIcFIA4LQBwWgDgsAHFYAOKwAMRhAYjDAhCHBSAOC0AcFoA4LABxWADisADEYQGIwwIQhwUgDgtAHGkCaDe4JOt0ChOiXcmm/ZEh6WySBMiSU7txpmsOnJNzRkXJ//cvSYim/STlhFIE0B7Qfrv15zzajzJOqSiFtPO3/hiqaT9IOKMMAcK103f+7/0HJJxTTYprJ+/4vwKnJFwtZQhQ8rj3/9/N1wCYUldPev1/ob3izylBgDKXvX8sT54/+D4AIjzXkUyRIruEn1S8AGW1Q5lDWc4D+zHlD2aOFNO2iT6peAEq7teFsp8RflYVKaz/vXhwn+iTiheg0vf6WMnNwk+rHpWBf+zSG0WfVbwAVffoY49uEH5a9agOfOGXXSf6rOIFeHyHPlY+Xfhp1ePJ7fpYxFeizypegKe26mOVVgs/rXoUB1795Tsq+qwsABpYAOK4K0Dk9bE6MWdYr4/V+EvIqbJuq6gtF3Lkf6h/9l7tTyFHvgT8pmRUF3KqjGusuvnHm//oDbUvhZzIBWpriwQe/Tntc4FHl0pURur1/1wXoKmW5nIyThKtbRA1inbnqGYQUDdj/g0BmmtL3U7FWRpos4QcV4tLEXJc14jJmHNNAC38tN89FaPxDCGHfVHkl4sr3HcoQ/OE/e52Go4TnXOagKPmyhtM1/+b5DqptUoLvh9LzAu01vMFHNRlctfVGq5yOwkRPD/F8UPWF/5W1g0itczTdYKDFyY7fsi2cx0/JAIKai/PcTsHEbSY6PghobEa9WmuvTrb7RxEEPeh44dsP9PxQyIglq8AZgnWKwDfA5gkWO8B+CnAJMH6FMDvAcwCTW1Sndx1tSB8wemJ18YJOGrHlOBbztBkuubRagSd2a3GCDlskZ+FHNZFyq3L0DyezprzX5iuUq7KKCHHLfrcJCHHdY2EjNE35gOEdPjI7VQcJD5rVjH//h5P3JV1wfQt8PK4i3/PCErULgfNRSCinIjv/1t018YLPLpUErJljPDcnhOYpImbEwj8PuZrJeRUWU5czRBtctOjmyOrCTnywsxLQ6/RVUyhkOtzAjOG3vijO7OCX39H+GnVo9YWfaziGtFnZQHQwAIQhwUgDgtAHBaAOCwAcVgA4rAAxGEBiMMCEIcFIA4LQBwWgDgsAHFYAOKwAMRhAYjDAhAnWAXoO0Ife/hb4adVj37D9THlBeivTYFKUIW+Oqse4AVlSkUuhtboNSqzW0zJs1sIFWCQpg022paYU+sp8txKkXSfZvil2FfTEgWeWqAAiaGbfNYffWeriFpeKpIr2mf90QG/viXu3OIEGKW96WePsFP5Dwk7vTqUbbfmUz+7DNn4saizCxOgUO9e/ncqkJd7x9RraOKrcKjWXtDpRQnwzjhTZQeGaa8KSkAVRuUy9Q0/Umsr5vyCBDBdUKd6bBsxGShClkGGt8mZeD9BSAJiBIg6ctL/Tn/vml/Y15sCJHz6q9ld46cIaVMgRIAOcy+a33n03GUiclCCiFwBFOcYs2OYgBRECDCtU0BrWse9KCAHNaj7dSB7D0gT0A5FhAA1dga2/wfxApJQgWq7A9t/fEvncxAgQMAF9fp+QfNLYFZSoD2UJ8Q6noTzAsSdDrjb5cQWpndNrBZbIdDDS+Q/OXYONb0zNPznmz5jHO+G47wAcwN/YA19xkxdj+Qid81edxf2Ij2hb737YpnDZoY56jfvFPDR33P8bYDzAsQuCfwzU573u8vsvy4kWcjGHaJaXfJ/sV5goU7OtOcsZOMTxwV44A8LHxrW3s9zwyJNtRvFzu/66Y2YtASoCeSX6U0sZWOM4wKkWLpT9V3cObVHlJg2UCKJj5nv84ttqfkbnzvIdtZaNoY4LkC5Q1Y+5fM2sOMC06/LUDHgY2A23G36jLRyzIcCfHL0i9MCtFpg6WO+pj5l+yjwmyUcjMzh44trZB9Lx7x4yWIyBjgtgNXq888atuRakGR6XAEfxo0rQmOtfat1fNdyMiBOCzC/tbXPzalvsGF5M6upoGBetMGGNP8PPiDzn7WcC4jTArxusexw6Y1wvPt48fOWRZI73z54Q9Zc1g64oI71ZCCc/utt/IW1z1VaDYYTWjr+4CuZoevh4e6VFp/nCnxvIxkApwVYYfEfrMw3YPjt92zkgoPFtcHw4CHWDjesnY1cAJwW4MtG1j732gAouqqhnVyQsKQWFF0TY+1oKVF2ctHjtAB3W/xcl0FQ9N8+p0srwrJUaHyoAfyd559f7OSiB7UAy5rbSQUN4JMbC+ANKMD9QmbBSee+g0CQBfAGEqDyw/4WTKhB2NQn9UEWwBtIgF5jbaWChxLAzA8WwBtIgAHmJ9fgZggwmMECeAMJ0CVYOlmFZtHP5GIBvAEECL1qLxVEXNKvk2ABvAEE6Cmy/5tcntMvhGcBvAEEsDpehpDL+udZFsAbQIAgamwPPAawAN4AAqQbDaWrx6KndSEWwJuu+jlhjfrbSwURWoQuVHq2xWMFqQCMWVgA4rAAxGEBiMMCEIcFIA4LQBwWgDgsAHFYAOKwAMRhAYjDAhCHBSAOC0AcFoA4LABxWADisADECVIB0g7rQost1JxFyhB9TcBCvmoI+iJIBai2QheyWkUHIcCs4Gc2WDwWC6AgLIBfAAGq7LWXCiI+q6ELsQDeAAIMTLaXCiIq63vosgDeAAIERYmwm3xeXRdiAbwBBLBYdxojK6rpQiyAN4AAZR3vj+MWYVVn6WIsgDeAAJ5v9PfOavLO6/oYC+ANJMArn9hKBQ9QSyQWwBtIgI76uhpqMhxokc4CeAMJ4CkcaGNFnIRDDYJZAG+qrgSCw/vZyAQPjaHeIE/D5dH9g1wAq6Xdlj4FBDcOX2orGRzEdKsCRK1WC09431YyOpwWYGpna5+7/wAU3eRwbXRXAN4DX6PYKWtHG93aRioATguwOdLa51ZXgqJdm9e1kQsOHorQvwS4xhawi4B/Vv3LTjJ6nBZgicX+1n9eBsNbX1C4ZdgN4hvA1/psOawdb3YDG8kAOC1Av+HWPveiQVVI5ceEgZHgG3SYbu143fpZTgXEaQEs9A6/TvRvywy2bKtpPRkErDVqdl8/t7Va+JMcbqPntACDtln6udLLG23pGvmS9Wxcp0Hpvkabvn3CygGjI960ng2E4135rP1cX5cz3NS/CdBuQRHWfRtnuG3H41aOaPybYhHHBbD2c61/zMfG3Y3UvBMMy2g8wnjrLv0cARP4+E2xhuMCWPq5/HRDbFP+bWvJuMqAHvCTzS1KnLBwUJ+/KVZwvjHrnqqBf2Zjad/bI443tlpZ1S0S2sdt873HXugFoR++KWMtG2OcF2BRWsBtsUef7Olvl3r101V6Ldx32YVN/vZJDgv4rWl8XcefigW0Zi59LNBPvDDZxE7Jkzt9cMRCOvJJO1Z+kpl2R23mBXrkQs5PlBYgwNom+gYpPplmut9w06/Scu4cnSmY4+vATucgdTO/0D86tm/NM6bHwxYG+IQbssj5ByIRzdn/lxDQ7rnjh9k6XXS6rY/bYXNJWx/vPuO3gPaHZhbZRYQASa+AIztGXPnD3umq77L3eRt8EG/v8znvCmTvLRMF9NETIYAnf1k/N8B3svURm2eb0M3mAazzicVB/dvsr2h+34idP9s8G4QQATyRBUzfsg/pnGHzZE0/s3kA67xkt7epNvoNs7vGnFhl82RwBiIO6vGM/3mwuR0bnDcaBTKNVty1F4UlN9s9Qv18JhfB987f3u65QAQJ4Pm/r0w95G5vtNP2qQ4mudZj+j1rY593UjbFaLzQi9E1i9s+FYgoATyhHf1PXgsrZf/lTlyN3raPYZ2JA+0LHLPP/xWsy9hzts8DI0wAT/KOto1877Gw+MO2zxIZPt/2MezQvnBX28c4+Fl33zukTCrn91WpVcQJ4PEcij3lw+2EbunGY6VmiSrndoPp6pOK2D5G/zYzfNwyxbfL5vQI0B2IFMDj6Zj9I4MtKTs/9vuy3C/9K7a0fQz7TL1oX+T6VYcZ/Uts2SV0VpxYAa7dDLY4FKm7R0vY16y8haGwzDQf7vjYmCUiHneglEV4+sXlvTIHQ89+VSPA9+qBIlqAa1RO2l254BctS137Y1j7D4ct/2jpx+BE6UCJrjzKicM4wJhxVtd5eVG04KaX63VvN/769+a+mbWPb3rkB4fnfwFIEEAQxysG9iJdJKHp9m8EXEJZAbK+GvC0A4GE5dX3B1cDVQVAV0Isl5rzFlUVAGHtiMnrfMwAxYuSAiSGjHE7BYCp+4W9rRGIigJoW3GuFkra48jTjVwUFKDrLkceugSwoEcA8yCQoJ4AEZMi3U7BkLbf2R7clo1yAhQd2MHtFHyQfMpwLSBSVBMgsbbPAgRhbj+MVauj2J2gagJ0+tjX1mJDK4wffUng6TPWnuuV4HPwtuB3Ak8vAMUESI/2tXV/zKZr3xEbz7wv6CVhgbs/rOLx1L/qcyGCYm+E1BIg6oiPv92ueZP+/lPiyMeOZTzSJeRiMc/P/ea2TfYUzdpp7NqVkzpMm9Cs/JUrnmPdW97919X1n8/zPF+zYPmNjddVTdnRYlS7nC0q1vIM+HPEXwMvjM60VqnN/I7Rz2y/dY8/4xtfsxB69LHxE0pHKQHGl/Ixx6hGjP25OWY5dJePgejQPHukJWIflQRIfQusJXeT9FTxQ6f/MOJ05gVqdzD0KYEzeJxGIQG0BT6W0s1/RW5x+eRzPt5GN8+NZaaCfxQSoI++99ot4uv8W2IiN9kyxHg2+vxnJSZiD3UE8NFCqOuPZtaXO83SxcZFK95OMtyEDGUE6Fy5k9GmMUUjJSbyDxWrGBowcq+9Fc/yUEWAEZ+uM9oUEhJwRQqHWP/2eqNN4SH2Jz1LQRUBqho+Wo3s86PMRLyYfcnwshT3ocxErKOIAFuhavI3yL08gBXWjlPovOFfYM+3ZCZiGTUEqBxvVCcu9NSfUjPJTNoRoCHUDWIuu7tozSRqCNBgtcGG6IT6UhPRs/ovo7eTMxpLTcQiSggQZXhDheBx61gto/EJBMn5RwUBUo8a/U0ezi81EZhmyw02xLbVNwxFhwoCfG9UcypHLgzNRZMOpBlsSZ+Kf6a4AgIcN6rFdiStudREjAitavSO4verUhOxAn4BZtV/CN4QkuUnuZkYcrq3wStBbaUDi6DFgl8Aw6/YQIr0xc3uIaDG3m3O/8vgRtB2DTzhoBcgMt7gQXuwxQZ1QihiUMIvuiX2nkfoBbhQCI6vWoFp+m3ifwxuVBfXlptIwGAXYLVBl7SFvXANtoQeeRDeMLee3EQCBbkAcRMKwhvWuDkCAHG2KnwbMOwD3MvFkAsQswaOfxUhNw8TlDwOx+GmuGjALUC9K/CA+4DfZM4ANUf+wofAeEpdkStVbINbgFoGhVeO5pObhykeNGjsPrGF3DwCA7UARheAE7klJ2IOg145uC8BqAUwuAD0XWn0bshdNr4Mf92jvgRgFsDoArDX4NWA6xyE23qivgRgFsDgAjDEcB6e6yyG305jvgQgFsDgAhD24++mPq557LYiCZyeB8DFIpgvAYgFMLgAIHwF8A/tZ4JhxJcAvAIYXABCLuD9bfJ4mpYBVwUivgTgFcCgFmQlo/mhOLgrJxjuNERyHqZBK0Bcpf5QeOgbonqnOEP4L+Dveuw8ES3fnACtAIfhNfbvB9aVVD6fvgCGS2AtJo1WgFiwndqIgRimgfoiOcs7ULhPD9mJmASrAN3hpXXfGYwOI6LabjCc160VrH7AKsBMsE1in+P451l7RoJFopKMFre5DFIB6jUFZwIqsdbm9zAoGt3V+dbvToBUgJXgXMq+U+23aRSPVuBXKFxvruxETIFTgOQZh6Bwk+mS87DGglZQtO8WlMXkcQpwvjAUzaiJcxg4MyMOgXUkHWg0LACcAnwOFv1SpgzvYPC936AusvMwA0oBUpdBxX7D1haQnok1soeBryt3hEvOwwwoBdhSC4q+NkB2HpbZDt7xL3padh4mQCnAOHDRT2qk5DSs03EaFG3/X9l5mACjANmLQGssmhv1ocbIt09A0YP3yc7DPxgFgB+jTuaSnYcN4NmB+Q/LzsM/GAVoDZXXqp5gv0m7PLSGXwLR43mkJ+IXhAKcCYeisw1WiSLlnstQtB2+ArIIBQgDJ31+EiM7D1tMBrtX/ATPF3IThAJ8Az0tRaXKn+Nri0ePAME8sehGM/EJ0HkqFM12VnIadhneD4rie5TFJwBcE+jz6rLzsMnph6HoqRyy8/AHPgFKnACC+Zqhu3b6A/w58hgUEXAPdALMeRN6C4S8ygIE/DbjwP2y8/ADOgEmvQZFp2MvtqVn7UxoRAvdrGZ0AoCTAfeA8wOQA74O3lJCeh6+QSfAiueA4FNLpedhn6HQ6GX175DNa8cmQM9xUHSFAmW3dWz8FeokgO1BEJsAYHdoJb8BPJ7NkUAQ29xQbALsqQoEJ8PLrbAD1rirs0B6Hj5BJkBcMWh59RJwhhB6mqwEgvE/LJOeiC+QCVAKagGXuwDuYptGJBXtBUSRVThCJkD8YiCY45T0PJzhJFQsfqZRkyl3QCbAy3OAYPl06Xk4Q7cJQDDtcel5+AKXACO+h96ePbJVeiLOcAJ864NrdjguAQpdAIL7pmPqDBAQ56BuN3PcbnXoBS4BLkLTZqutkJ6HD5IiWpqfmgIWj63yhXPZ2AeXADtrAEFU1VVCtsCla2DAleK4mojgEqDweSA4EJxe5wqVx6YnBrJ/KjSTOTZUZP+qQEElwKV7geCRUOl5GJCUu1+gExOPlgGCqNaHoBIAbBA0tan0PJxjdG8gOKmZ9DyMQSXA/6DZEjiX1Ztk61NAEFXVSFQCgE2ClRwKvsWgd4FgA4M+o66ASoB7gSqb+wzasSkC9CZg5ABEk0IwCRCSHQg2gutvqwJ4UXtprPQ8DMEkwE/FgeDh/NLzcBKw5PU8aNaLS2ASoBg06nflD+l5OMmx0kBw/rPS8zAEkwBj3gCCZ7NJz8NJwKXOtaFBb5fAJEAFYPVHfE2VygLoSdwBtL1IWY7nXSAiAcLPAMGKBr1jleEKdA+D6NEWkQATugHBOLhquDqALYUL75GehxGIBADvlzY8Kj0PZwEbSJzLKj0PIxAJAM6iRtcm/haJJpcrV9wPBBFVCkEkwPzWQPDSRdlp+CfpYlbzi9UjagCz3BDNcUEkQMsUfaw39GSoFs+u08dWQstf3AGRAO8BPTXS4W68KtEOqBIf8hKaehd4BACfAh/+VnoeTrMbeuTD882GRwDwKTAyVXoeTgNOCfjhHul5GIBHgOMlgeB/wd5RSgG+DMYzwoFHgB/KAkFciygsMasdEOzWT3YaRuARAHoKDIsBezGrxVhgiSieJnJ4BFj4kj4WBTwZKgdU+RRP6wA8AkBPgZjGTS0zvYM+1nWg/Dxg0AiQ9AvwxmxGY/mJOA74hjMrliboaAQAF4UgW0tvDXBW2DZo+psboBGgOVQ5Zcrz0vNwnqvQ0qZRbaTnAYNGgFUNgaASvYL9AbYTf2Gy9Dxg0AiQDaqjrViXCBiwhRgatdEIAF4on1koPQ/nmdYRCO4sKj0PGDQCPAEN+/R6U3oezpM46zd9cHBn+YmAoBFgPzD1J+S0/DwEUO6QPra9mPQ0YNAIAHVbHfGK/DwEAE0MXlBHfh4gaAR4HWgMqmyBQG+gwjcFvpefBwgaARoDpZPWVpCfhwD6jNTHhkFjhG6ARgCoTwCuelqWeXK7PpYSJT8PEDQCfAm89f0UbMGsHGAXHCyDAVgECL0KBHcVkZ6HCKrvAoJYBgOwCBC5GQgiK6xtlfE9gCCWwQAsAoALaIpAvzrq8QA0ARDLYAAWAcocBYJ5oUqr6gH2QcLy9YZFgMcOA8EXwQ5SytEK6hKDZcI7FgHA+kBXwUbyytH0MyD4JtRNxAWwCDAwGQii67NqjY1QdWgsj7hYBOgFVU5bH0hlbryUhcoC7oZaCbgAFgH2VgGCHzWXnocQHgH6YTeZLj8PCCwCbIE6w/UPqDY7XvIAf8v9oKWQLoBFALDZ+j2ISqraoQXQ+hhLkRAsAkCLqKPnyc9DCNBAF5aS4VgEKPKzPoZn+YxNJgJfZViWPGARoN9wfSwoVgZeB+obMr6l/DwgsAgATZrA0yzGJlA7zBO55ecBgUWAP4F3Pon95echBKj81X6ooZgLYBGgKlA7E88aaptA64OxrHvFIsABYPofqtYqdnhmgz42pJP8PCCwCADNnA2CGnE3abBaH5sGPBq6ARYBLgCTfzoPlp+HEKAOsvcdlJ8HBBYBoCsAmtUzdhkMvPQZ1EV+HhBYBAgDhv4/gzoJqwjUQpjfBHqztIU+tqmU/DyEcKKEPoalfSgWAYA11PHrtrmQiAgSr0zRxbA0EMYigGdcz8wRLE/KDrBGV+hi9G4kbYPQCHBmSaYH43crAOuFFaXywUw9UeM1LPNd0QigmxLyQbw7eQihTaaRbSyzATAJkNjJ62XgKahmkLp495FPPtXXrUQyg0cAjyeq2e3KScWmYu0VZJWtrW93RRxZd5buhsc1MAngmRa+p/v1/4YfTgqG4kDeDFpc4Mvr/x2zLTs0Bd4tUAlwjdSBY0/WgbqIBwMbilSr0HYfnt/+62ATgJEMC0AcFoA4LABxWADisADEYQGIwwIQhwUgDgtAHBaAOCwAcVgA4rAAxGEBiMMCEIcFIA4LQBwWgDgsAHFYAOKwAMRhAYjDAhCHBSAOC0AcFoA4LABxWADisADEYQGIwwIQhwUgDgtAHBaAOCwAcVgA4rAAxGEBiMMCEIcFIA4LQBwWgDgsAHFYAOKwAMRhAYjDAhCHBSAOC0AcFoA4LABxWADisADEYQGIwwIQhwUgDgtAHBaAOCwAcVgA4rAAxGEBiMMCEIcFIA4LQBwWgDgsAHFYAOKwAMRhAYjDAhCHBSAOC0AcFoA4LABxWADisADEYQGIwwIQhwUgDgtAHBaAOCwAcVgA4rAAxGEBiMMCEIcFIA4LQBwWgDgsAHFYAOKwAMRhAYjDAhCHBSAOC0AcFoA4LABxWADisADEYQGIwwIQhwUgzv8DaoQGLe1vLC4AAAAASUVORK5CYII=;" parent="1" vertex="1">
          <mxGeometry x="370" y="60" width="90" height="90" as="geometry" />
        </mxCell>
        <mxCell id="p51MJaRD7cqvYZ4VCD2m-10" value="Wi-Fi / ITS-G5&lt;div&gt;Ad hoc Mesh&lt;/div&gt;" style="text;strokeColor=none;fillColor=none;align=center;verticalAlign=middle;spacingLeft=4;spacingRight=4;overflow=hidden;points=[[0,0.5],[1,0.5]];portConstraint=eastwest;rotatable=0;whiteSpace=wrap;html=1;fontStyle=1;fontSize=13;" parent="1" vertex="1">
          <mxGeometry x="349" y="218" width="130" height="30" as="geometry" />
        </mxCell>
        <mxCell id="p51MJaRD7cqvYZ4VCD2m-17" value="Content Distribution" style="text;strokeColor=none;fillColor=none;align=center;verticalAlign=middle;spacingLeft=4;spacingRight=4;overflow=hidden;points=[[0,0.5],[1,0.5]];portConstraint=eastwest;rotatable=0;whiteSpace=wrap;html=1;fontStyle=1;fontSize=13;" parent="1" vertex="1">
          <mxGeometry x="318" y="356" width="191.5" height="30" as="geometry" />
        </mxCell>
        <mxCell id="p51MJaRD7cqvYZ4VCD2m-18" value="" style="shape=mxgraph.signs.people.pedestrian;html=1;pointerEvents=1;fillColor=#000000;strokeColor=none;verticalLabelPosition=bottom;verticalAlign=top;align=center;" parent="1" vertex="1">
          <mxGeometry x="223.5" y="500" width="80" height="99" as="geometry" />
        </mxCell>
        <mxCell id="p51MJaRD7cqvYZ4VCD2m-19" value="" style="shape=mxgraph.signs.people.walking;html=1;pointerEvents=1;fillColor=#000000;strokeColor=none;verticalLabelPosition=bottom;verticalAlign=top;align=center;" parent="1" vertex="1">
          <mxGeometry x="535.5" y="500" width="55" height="99" as="geometry" />
        </mxCell>
        <mxCell id="p51MJaRD7cqvYZ4VCD2m-26" value="" style="endArrow=none;html=1;rounded=0;entryX=0.5;entryY=1;entryDx=0;entryDy=0;exitX=0;exitY=0.5;exitDx=0;exitDy=0;" parent="1" source="p51MJaRD7cqvYZ4VCD2m-21" target="p51MJaRD7cqvYZ4VCD2m-2" edge="1">
          <mxGeometry width="50" height="50" relative="1" as="geometry">
            <mxPoint x="360" y="450" as="sourcePoint" />
            <mxPoint x="410" y="400" as="targetPoint" />
          </mxGeometry>
        </mxCell>
        <mxCell id="p51MJaRD7cqvYZ4VCD2m-29" value="" style="endArrow=none;html=1;rounded=0;exitX=1;exitY=0.5;exitDx=0;exitDy=0;entryX=0.5;entryY=1;entryDx=0;entryDy=0;" parent="1" source="p51MJaRD7cqvYZ4VCD2m-22" target="p51MJaRD7cqvYZ4VCD2m-4" edge="1">
          <mxGeometry width="50" height="50" relative="1" as="geometry">
            <mxPoint x="490" y="496" as="sourcePoint" />
            <mxPoint x="640" y="350" as="targetPoint" />
          </mxGeometry>
        </mxCell>
        <mxCell id="p51MJaRD7cqvYZ4VCD2m-32" value="" style="shape=image;verticalLabelPosition=bottom;labelBackgroundColor=default;verticalAlign=top;aspect=fixed;imageAspect=0;image=data:image/png,iVBORw0KGgoAAAANSUhEUgAABTkAAALGCAYAAACOFJUiAAAACXBIWXMAAC4jAAAuIwF4pT92AAAAGXRFWHRTb2Z0d2FyZQBBZG9iZSBJbWFnZVJlYWR5ccllPAAA3plJREFUeNrsnbtuHMm2prOEbQwGBxDbHoMlzAOQwmBwTFJPQMobj8UnIOUPwOITiPTPgYpPIPIJVDS2ORAJjDOWit54TQJn7Jz8VZXdbDUvVZUrVlzy+4DYVG91ZxUzIyPW+mNdBnVdVwAAAAAA0J3BYLDR/Nhuxm4z2j/r59aSl7h+5e9vmnH/wt/PFuM57hv7/4YnBQAAAMXZYYicAAAAAAAdDOrBYL+ai5oaWwX8SgitAAAAkJ9NhsgJAAAAALCiET0XNtvxljtiDkIrAAAArGafIXICAAAAACxhOM9T0UfNOG7GJnekeBBaAQAAcrLVEDkBAAAAAF4wmOfi5vFiELUJniC0AgAALGuzIXICAAAAADxjLA8GEjbHFeIm9BeEVgAAyMNuQ+QEAAAAAPjFSB4M1BV9UpXRSAggdxBaAQDgdfsNkRMAAAAAYGEc/5mafsLdAIBHdBFa7xd///Pfa3zwe24nAEAAOw6REwAAAAB6bxRTdxMAfJFoKuFzqoHwCQBgYM8hcgIAAABAb41hxE0ASIPbal4i47Lx0WfcDgCANew6RE4AAAAA6KUhPBiMK8RNAEgPRXlOGl99wq0AAFjBtkPkBAAAAIBeGcCDwaiad0zf5G4AQMLcVfPozjPS2QEAlrDxEDkBoBCHVemG6oS7u/i/dh/99c6jPz9UfxZ+f4rXunNOX/i7GelFAABJ7xXD5sdlRcd0AMgL2a/HRHYCALxi6yFyAkCmjqpEzf1qLmZq5BCN81JXzsddN5/ixY6dzVp+w6wAAHhx39CeIYGA1HQAyBXV7ZTYOeVWAAA8Ye8hcgJARg6qhM3RYhCFszxKdZq98PcvGcqzV/7bG9KnACCD/WPc/DjhTgBAIZw3Y4wNBgDwi82HyAkAGTinu9Vc2DzgbmQFpQEAIPb+ocOxM/YPACgQRXWOyOYBAHhk+yFyAkDCzuluNW8MscPdgBWhNAAAe4gEzmmVSuT/27dVtb398r8zm1XV3R0PDwCWhVqdAACP7T9ETgBI0DEdVvO6aYibkBuUBgBIYx+JL3BuNR+9v19Vu7tzcXNjo/s175sl4OaVc5bp9OW/139//8JSgtAKkCOnjY0w5jYAQO9tQEROAEjMKT2uqJsGsCqUBgD4616iOe0vcG5uNrtYs42NRjaiZoogtAKkykWzX4+4DQDQazsQkRMAEnFKd6t59OYmdwMgK0xLA9AxFjruJXEETomb4/Fc3ITwILQCPAdCJwD02xZE5ASAyA7pbkXdTQD4OxJPZ9VcsLqhFiossZ/4C5yqsylxU9Gb0C8QWiFdEDoBoL/2ICInAERyRncrxE0AWB55+tNmXDa2yyW3A57YV6aue8pO81GTSVUNh9x8iANCKzzPebNXcvoCAP2zBxE5AcDZCd2tEDcBoBuqQTppxhn1QmGxt2g+HLh8mMRNRW+qoRBA30FoTZlDuq4DQO9sQkROAHByQIfNj7Nm7HE3AMCQq2oudk65Fb3dX0bNjy/BP0h1N8/O5h3TASAdEFqfQweC2xwGAkCv7EJETgBwcEAlbh5xJwAgIKrhOcKZ693+sl3Nyxi8DfYhNBUCgNd4SWht/679eX3t+c2umn2RkxkA6I9tiMgJAAGdzzhdbgGgz5w3Y9zYN/fcil7sMzfB9hjETQAIxeXln+PhIfSnfSDbAQB6YxsicgJAIMczfHQNAMDTyGMc0aCo+H1m3Pw4CXLxz5/pmA4APqiBmQ5UwqXD3zX74ZAbDQC9sA8ROQEggOM5qjzqowEAvAxRneXuMzpI+25+4bdv57X7tre5yQDgi8ROHa6Eiez81OyFZ9xkACjeRkTkBABjx1OhL5+T+lJKORwO539WLaTwaUEAkA631Tyq84ZbUdReM21+7JhedGtrnjra7hcAAN6obqdKZFxdWV9Zxu+QQz8AKN5GROQEAEOnc9L8OIj2BRSBs7s7H4rC0djYWM2wfKk7pzprajzHS5078+zKCVAKpK+XtdeMKutsAQmcWsNX2TMAAEJxdlZVnz5ZX5UmRABQvp2IyAkARk7npIolcB40H7u/Px+50nbdfIrXxNeX/lvh28UTIGXOG7uHQov57zez5sem2QUROAEgRRRZrqhO2wwk0tYBoGw7EZETAAwczkkVQ+CUuKlC7aQWrk+X6NRlxFdKA0B6KH19v7F/ZtyKLPebxuM3jOJE4ASAlJEtpQwlO3tKF9pmDwSAYm1FRE4A6OhwTipvgXNvb57Gg7iZL5QGgLiQvp7vnqOFwSaKUyVOtA6xlwBAysjm+fDB8oqkrQNAubYiIicAdHA2R5VnF3U5pBI3lboDsC6UBoA/IX09rz1nt/nxzeyC37/TRR0A8kBd18/PLa/4odn/ptxYACjOXkTkBIA1nU2dAH91+TCJmzLuNEgphFyhNECqXDS20IjbkMW+M6msMgc+f57vKQAAOSA7QFHndnv9dbP37XJjAaA4exGREwDWcDQV+jJtxtvgH3Z0NK+7ibgJsL5j1CU6tR+lAVSnc7exie6ZMMnuO9oEZib7zs7Oy/MaACBFJpOqOjy0vOI7anMCQHE2IyInAKzhaMo73Ar6QTQVAsifVaJT23+OF5V629hE5C6nu/fYZQ/8+MHeAgB5ohIbt7dWV6NkCwCUZzMicgLAio7mWfPjKNgHIG4CgCJELy/nUSt2ztwykLqe7t4zqSxS1U9O5nsMAECO2DYhemj2PFKlAKAsmxGREwBWcDJ3K8umD49R+qAEDcRNAHiMBE+JUhcXXp9IZEua+08zETp2VVd9Z80nyp8AQM6oAafdnkgDIgAoijfcAgBY0sGUVzgJcnFF1uhkGoETAH5F64IOQJRivLfn8YlHi9RoSGf/0eaw2flCNK8DgBI4O6uqLbOqUex3AFCW3UgkJwAs6WSOmx8n5hf+8mV+Ig0AsAw6ENGaEbbhkYqCbtOQIZn9Z7eyyCL4/XdETgAoA9Wvfv/e4krUowaAsuxGRE4AWMLBHDY/fpheVGmDEiu2sasAYEXUpEhC59VVyE+5bmykXW52EnvQuOp6yKYoYNV5TQUJFO33kfD62l64y1QEgF8wSltv9roBNxMAirEbETkBYAkHc1JZNHxoQeAEAAuUsvfpU8hPOGzspAk3uoA9KKWsAdWYPT21vaZSV1+KUlXZh9dKwrwmpGrPJhIWIB1UY/jdO4srUZcTAMqxGxE5AeAV51JekW0U57dvRKUAgA06MNnfr6qHhxBX10WHja10z42Oug/J+d7pdBHVdI1d91mChITW6+syH9Tm5sv32CJiFaEV4O/vxO1t16t8ava5M24mAJTAP7gFAPAKY9OrKZoGgRMArNB6IvFIQqe9ePS2Gcfm6yD4E1vgVGq6BM4wYnwaqE7ua7VyXysx0TXCFaEV+ob2vu4iJxMaAIqBSE4AeH6BmHdUny0c/e4cHc3TSwEAQhAiDZhozhT2omnVNZIzlr2r+rHq6m5QNw8yAaEVPNEBysePXa9y1exxdFkHgDLsRkROAHjBsRw1P76YXGxnZ55WCgAQkjDp66eNvTTm5kbbi7R55ClyhhHeAV4GobU/2NTlpNEeAJRjNyJyAsALjuVN82Or84XUaEidZGOnCwJAP9B6IwfdTugkmjPuXjStEDkB8gKh1XOR7HoFRE4AKGdJROQEgGecSlmmNg2HUupqCwD9wF7opNN6vP1oWnUROXXQdh9Jn1aUlYSYkmtxAqRKX4TW7iJn1exvAyYMABRhNyJyAsAzTuWoskhVJ00dAGKhtefDB6ur3TY20zY3Ncp+pE2kWyTn9++vixmhIJoToL9sbc33opBCqITYjo33EDkBoBTecAsA4BlsCpDLuQMAiIEcv5MTM1d1EeEO/nQPw5xM4n177YNbWzxFgD6izudqPgYAAC4gcgLAs/JA5ysoinN3lzsJAPGQwKSURRvoPhuHm85XkMh5H7Gk6tkZTxGgr1xccOgPAOAEIicA/I1FtNLbzhfi5BoAUsAuig+RMw7dRU7VxIwpNOrA7+iIJwnQV1SyImZEOQBAT6AmJwD8fWEYDBpvrPrW6SKKnFLDhVRQBM/NM36yitLT+R2gbAxqli34jS7r7nuSitn93vlCakCkfSDWeq99SJ9NEyKAfqI1SPU5resDU5MTAOAP/sEtAICnzKXOV9hPKOBJTq26u6su0jqoltpzBeNf68z5WtdN0vkBfNAaYCNy6oWfckP9kKg8GAy0gHcrbClxUSmjsaKptBfo8E8RpRqInQD9Qu+87D6tA7E7sgMAFAqRnADw94VhMGi8wKpbt46vX9MQOuVIfvqU54NQNOxLEUcvCaRdxVeAEtGc7y4snTa205ib6b4vKdfcJt/727f4B0wSOSS4qlYfAPQLNcSzrNFJJCcAwB8QyQkATzHsfoVh3N9AaYESWW0it+JwdzcfzxHqd1M61UsC6Wvp/S+JB5QGgJhoTeguKu1yI6NgJ3KqXvTNTdzfRuugIkr1XTRy3qsAAAAAEoFITgD4+8IwGEybHzudLhJzbbm8nKemkgqYH5QGgNBrw8ePXa9y19hOQ25mpntTi3UkVVdawZN9C6B8rKPJieQEAPjTXkTkBIAgjmSstUXROe/f8xBhNSgN0A8U4f3bb50vgzMYbW8aNT++mFwsdhOi5+anhE5S2AHK5eDAvi4wIicAwJ/2IiInADzhSE6rXEVOda388IGHCPmw88Kr1qU0wGvia1/RPVm3CdmffGjspyk3M8r+NGt+bJq9e9MEH6O+k7IRXipXAgD5ocOVEE2HEDkBAP6AmpwAAAAxeckxec1pOT1d/3O7lAboIr7GRt+7u8gJ8RhXVtGcer8kJsbqtv7S+6MoU6I6AcpCaw2ZHQAAQUHkBICywHgEWI7XhL6rqzCf+2tpAP357Mzv3ZV42/13kwI8ZRL5U9f1ZDAYHDd/3DK5oEREzQkJiqntZRJE1CyLGtMA+aPIcb3Pidq+zbo6bNbXGQ8KAHLnDbcAAIIQKwVQzureHvcfIFWUgqsIunZIZJLQ6bVm2NRg5DQlLraK5KdP6UVztkgUUVTn1hZPHSBXlKYeco2xKU0z5EEBQAkgcgLAU0w7XyGmw6ioMADIB0WpqZauRzRdSo1mYC0W9VBtQ40PD9MVOjVnJXQeHfHwAXJCh+5fvqTX5AwAoGAQOQEgDJeX806xsRxCnEGA/Dg/n0ekyCEEeJlRM2xzuFMWOoUO8CSYKCoMANJD72YrbP7++9wWVrmJ0AKnQSYEzfQAoBQQOQHgSXOp8xUUmRUzonI8xhEEyBHVClXjlZTFJohO45DrFG1kfuHUhU4JJhI02N8A0qEVNtU5vRU2qREPABAFRE4AeAqbMCqJnLGiOWVc4ggC5IkOSRA54RXqur6srNPWhYTOlKOJFe0sMYU6nQDx0Pv3a8QmwiYAQHQQOQHgKcdRyuRt5wtJqIjZsbZNe8URBMgPnEVYjlFlnbb+86qj9N8PHeTRaA/ADx2cqxzSjx9z+zIVYZMSLwAAf4DICQDPMTG5ijonxzS+2q7NBwc8UYCcUMkJgFdYHMrZTxaVTUh9DkpcUQQZ+xtAWHZ25lGbyk5SllJKTYQU1f3Q+ZznjocMAKWAyAkAz3FpdqXYETFyBJX6enLCUwXIAUXKKBIbYAnqulYB6GvzC5+e5hEhpf0NoRPAHr1X37/PD8tTje6+NDHXZzxsACgFRE4AeM5pnJk5jYqIidmEqEVROXSmBUibzU2iOGEdVBvFPm19fz9ebelVkNCp/Q0AuiEbUYfiqrWp9yrlA7c2srQ75LsDQDEgcgLAS9gpkxItUnAU6UwLkPiqc0Y9TliZuq7lpI/ML3x3V1W7u3ncBO1vCJ0A66EDtrZDumzWHPYhfc87k0zzGRMAAEoBkRMAXnIalQNjU6dH9YJSSfWhMy1AmqiJiiLnQpJDVB502bMOzS+sbITUGxG1IHQCrMZjcTO3DumKNLVhykQAgFJA5ASA1xibXenqKh1Hkc60AOk5mh5lLWxqLM54YGlS17W8fnuhU030EDoBytpzHoubuWHTcEg8LCLhAQCKAJETAJZxGO0aOqTkKNKZFiAtRzOljrWvuJc8uOT3LYRONfACgL+ickU5i5stOqi34ZJJAQAlgcgJAMswLtpRpGEDgD+xomjsHENIGITOah4ZzSEewJy2oVDu4mbLjVnw5YTJAQAlMWiMQO4CALy+WAwGMoJsvSU5X3b1hAzMvOa7HB7ysAFC0nZPj+VkKoK7e4rfb439RHHPPPauZrJVJ+YXVqkT7Rk51O/TuyZxFqCvyN7UvpNPtsDrqL686gV3467Zy4ZMEAAoyvZD5ASAJR1FGUE6NrZtS/71a/hGI6ugk3F10rWpcwQALYqiOT6eO5ox3+/37ztfprGdBjzQrPavafNjx/zCEuwldKbefV3NtvQduwsiAHmhBpOKaE79HV1vYbO4yuEi6h0AoBhIVweAZZ36WWWdti4keqSETsaVzvr2LQ8dwIo2RTCmwClsUtWveaDZMWqG/cnV3V1VffgwF1BSLoPQNtqT4APQB2TDff7858F1adg06XtA4ASAEkHkBIClaYwhWVW2oSByElMUOmUY4xACdEMpvT9+zMXNFNJ6bRzDGQ82u71Lz2wU7AOur/8UO2eJTg+9f4o65QAP+rDv6D1Mzba0QvapzYEhHdUBoEgQOQFgVeytxvPzeZfzlFDdJiJfANZDabzfvs3f61RqoEng0aEKjmEvqetam8x50A+R2Pnu3VxcuU+wZKsO8C5ppAwF7zsqgaQ5nkOt3HXQuqIauzYllaZMGgAoEUROAFjVUZRRZN/BQEbbTWLaASl+AKvxuHttSimCcgztonpwDPPdvzQJwhem1MGdxP0UBUW9l0rjBSgJNRaSDZlSjfcQyFa2q63LXgYARYLICQDrMK6s65vpVFrOV6pCp9KfAOB5dnYs0+hskdhkE/miTrREcubNbhWiPudTe9rHj3PRJbWoTgn+EoUAckcHa4reVKR+qdGbLRI4r64sr8heBgBFgsgJACuzqG9m7yimLHRKJMEpBHjeydRhQCqp6b9iF1FHrm/++9d95SV0CokSKUZ1qj4tWQqQM23tzdKjN4UEzgvTJKrbxVoIAFAciJwAsK6jeFOFFDp1Kp8a+k4InQB5OZmKorOLfpnw0IvZv0ZuH9hGdUqoSCWqk0ZEkDMquVBy7c3H+5ds4gvzKlFEcQJAsSByAkBXR9Fe3ZBDeHiYZtorQifAXxsLpe5k2kXQkape1v6liXHo+qESKlLKVlAjIkV0AuS093z/Xm7n9MdondB6oYZm9vDiA0CxDBojj7sAAN0WksFg1Pz4EuTiihRLsdaSfeoQQB6k+k4+h6JMbSI51Zp9Fvjbzn75jMf/PFuUCoFc9q/nUPSkxEXtI2W9IwDsPRbokP/0NNTVT5u9ZMyEct9rtpsf7eR9/Oen/tnKhlDqQHuqds9BLfTmfUPkBIDkHUXVDVM0Vmr1/hA6oU9ImJGDmVP9M6X6/fZbiU+jDe25eeTEyIGZMlET279e4ugojUhKvSeK6ry7YzJAmpycpJndY432WP2e4d5F1eLcZkKZ7yESKHVfh78M/f8pFj++XdgOs1/GDbVaoYh3EpETAAw3eTnYO0EuLoFFjU22E7PNEDqhD6hzeo71z8JGw6SK6iTfPHJapjguS+1f24t75VukUuVPJHTGfre0v374wESAtMjxcG1VVNda+6vWgfAHDe+J5uu0TwyruXi5W/0pZO4U+KvqILU9QP1pTzBvIKt3FZETAAw3/42FUx3OSfzyJZ0UvxaETigZNXjIsf6ZHEcdijw88AzntOLntHVcSH9/0oFVrU7fyBtlK0hkjC106j0/P2ciQBqo/qbEv+0CAw/1vut30/CLoP7UrPnU4lxtP9it5hGa7eh7p7br6k/h8wbhE5J9fxE5AcDYKJBB8C3oh6SS4vcYhE7AwUyLcA0bSuKueiR8ku7+x2HdWDuN6wenInTqfb+95c2AuKTyPljSipoa/odvV836vs/EetV/aQeC5vJcP7IjpmSNQBLvMyInAAQwFBT29Tnoh6RYgB6hE0oh9wYPvItdHZbWWZn23OFtXoJq0+1DU6g/Tdo6sP/YEVfYbNGpxS7i05NrfDt2uCNm3LU2hN4A5h1Eeb8ROQEgkPEg5/AguEOY2kk/UTCQO7mmp7coyvvTJ56jDQ+to1LNRc9Zz/YxbS7Hi+ET1ZNC/WnS1iEWqlErgTNnVCpF+5BvKvpLa/g2pUn+qLu82wxFtCJq+nFb/XlwesntAJf3HZETAAIaFLJUwwqdqaXUqkut0mQROiE3Sqh/Juf48JBnGd5ZmfSpFteiNts4+H7WIqFTQkmsAzy6rUMMchY49c60zYPSsf8kcO72uW5is3ZL0GyM8p/C5iYvWRJcVX9Gec64HRDk3UfkBIDABsYkuGOYWud1hE7IjVy7pz/mpvHj3r/nWfo60JcLR6UX0RkLsVN7WvgooNiZCqStgyc5N7iTsClxNq0md70UOBfR94+FTepqps3tYk+d0sQITNcCRE4AcDA6tIGFj4BJqfO6hE7VVaOzM6ROio28VkUCpw4WeN9iOtS9ETwX0UF6acJGBsUWOvebX/PqitkN/bHdlkXvpYTNNGs/907gXKzJmkR7vFDZcrewI86I8ITOawIiJwA4GSCNNdgzoRPhBVJGEdASN3NzLn+F1NpUHZWiU9rdurArylqCSgwUpaZ3iz0M+mCzLYPexXHz2l9fp/oNeyNwLhoHafIQsVkebYQnKe2w3vqAyAkAjgZJ+K7rIqXINFL+IEVSK/GwLpSGyMVRmZTaYdWlC3vMWoUSdE5PmclgT04CZ/riZrve7pcsCi1KhowWgxqb/eC6+lPwpFM7LLdWIHICJO88dWW4GEubcoufsxCG0iKlRJtV2FPXlArY0wwFUiJ2CqwlcpDTTBeEv6MHJbFzWuBevbHY18KlSsasWajSK0RKgyW5CJx5iJtCdSVGBR8mabJo0BW9v7Rlcc6o3wmvrhmInJDI5jWsVhPinkJOhkVY0vbiWl2/y1Yhj0eW3c1iTC2Ez+Z5by8cwrD3KCWhU87p+TkvO8RF74SinBE4IR5SyxRqX1x0Z/Bsha9f53UyvVFTso8fmblQnm32HCrVIHEz/T1Gws+4WUvPSpsmRG3CC9wu7AiiO+Hp9QOR033BTkmIG1bdhUXBqVr/NpZp1bHemkvki0gpao0mDoBjaQPR0SXQRmWMS0qvXGRg6Peyz1aIWWZCZSHSj2YD9qFuqASKDgI10q9FqxdyVFp6+qNamwe8MLCEHaEFhWZF8Nd1JAeRcxH11SoUu+uaZwZfZbuisDHAYzpH5DTvt/77sI0bUhE6qR8Iscixe+1zIHCWyNXCSZkW4qTLXpTQaR99FGs/o740dCV1gVNzXPtk+qUZJOwcN+vlpKTpQUo6YEeA2XqSmsi5MAx3F2NYlZPyC1AynSJyFobNl6DfMBWhk2614EkpHdRbbm7mBwW8P6Xys8FACc77IlthGsSOjSUWUSICcrfBnkIH0Jrb6WfaaONTYMBZSSm6Cx9gXJGSDjbcLt6RCbeivyQhci4akbSDSEmAvFHhyfGqBtjigGMadA1IxcgmIgY8KKWDekvIA4LNzXlzFa0N7f3Sz8drxa//HMLRvrn56++r8fjP+nf6EQl+t9hHsnZSggqdMepzag6+e8faCnnaXk+herMSONM+OCuujvFibVQN41HVB3FzZxGcKjtDI5SNoffsKZvi8Z/7U3bkpx1RUbezl0QTOReChhY3hE2A8lirELpLQ6JUjG1F1336xEyBMJQmcFqVemjFTF1L90Z/zvUe6fm2jksrgurPZUW5Zi92BhM69Y7rebcOsxdEc0IJe1H60ZtthtSkpPTbR+LmcVH+f2tbtEKlbAzR/kwR7R+tDaGfek9lR6RfrmGdd6m4CGh4Za3xFjkXxYTHFfU2APqAFInRKg2Kgka+tKQidNKICELNb0WneIsfIZHjsKrAqciJ1uloRwld5Zdx3uW0PB75R39mLXYG29c0xx9H7nhANCeswrdv6Qk9WhNlf6Un5ugLtcLmTUnToChxU+vu40PSlIXMdWkFTw39uYwDVMTOHuEmciJuAvSaT2tEdcqZDddZMQWhU2KEDKTyTk0hFimnBa7La5FjJUVnhnZaWtFTf85z3dGXVsONy0yd/GllLXR+/tzckWPfX0afd37OOwXpzc3XSC+LRidQsnenpQmbj9a+UZVrzU3ZVK2Q2R6W9pU2W6S1JfJNe0fs7AHBRc5mYRsuJtIetxug11wsnNOlN5TgnddTEIRkKLx/z+yAMuazNePGLzo9/fOf+xBBEcNh0cgr2lPe1Ti3NM6F0Hlj6uzHSFvXAZ0+jwZg8BypdVJPKz292IjNX9a7/YUGkI+4KTtKdkU7+pD90YXWftDIT/QsovY3PLP+hBQ5m8VNx3fjipqbADBHXvTuikJnY5UG7LyegjD0q5ADkOM8DuGUKuqmjZ4oKf0+Rdq0NA2VO8hDwJJiocOzWUaOv32TvRhp69TmhFz2Ix0CaL7GPcgpssbmM2vcbpVL9qYyQSRmqnwBomZ3HtsQ+RycZpshAi+sQyFEzsVJ9WVFajoAPG3o7a5Yp7OxTgMLnTeRD9NlXPWn4yFYsrc3j5jBOAdrYUCOSh7Oik6Jskk9W4gA30wv+uXLXMjxgtqc8BSpNRrSOib7Kt6hjRZPRTMW3+F5kb05rkKWmrKy+bVWtinoEAYdVMt+yOfgNMsMEXhmPbIWOReGmwROojcB4DnWETrto18eEzu1Sg6jjC3S/yCneQv9QOuTnBTNtXQFTy2ex7mkni2ynT6bXVDikp6T52EH0ZzwK95i+0tovTo8jPXpejEmfRFMmvVsXKXcVEiHwYrW1OBAOA6t2KmRdk1wvbvjnDJE4Ik1yVLkDB5tBQClcbiKQ1q80KmN/+NHZgXkMV+hn6QveCoa4ziHWnfNnqagALua9UdH8xIPnnOBaE5IcU+KI3C2Kem9EUgWwU166OnV3UTYTBdFWOsdTVfw/NmcqHmPxzysTNcmK5FzcYJzwi0FgBVJS+g8OZnXyIyFjLE0CuMDziTAy0jkkqiWpqNyvhAbkk0RDdKI6Pt33xRMojlBqLahhIsUxCT/Odm7bs2LtUtGSFqNhdtUdNnS1PHOA0V4toJnetls1OvMdY2yEDmbhU6L3AG3EwDWdUabteh4hTVne2FcbQX5NjHTrehaC6+BwAkpOyppCV7JOyiL/ey72QW9mxBJ2Hr/nvnfd7zF9efwFzgvFmvMfV8edXKNhVWqQ6Lm8TE1NnOnFTvTC/bIrslh75HI2WUshIaawWAwOo7JimtPGwET5vt8+1Z3XiDXHZ8/Mx8YT4+Dg3jzksFYZvz++3wN29xM6d2RyLmR6i1bCAb57l87O6zNfR4nJ2m8SNof/X5vnSQM+7S06/dd/N5pzLutrbr68mW+57D3ljV+/JivK2nZEfcLoZNHlMHoFMlJDU6AF04VLU4TdY2uqT/675f9Lm30h34qOsM/mvCiWZNGK6xBGwuDayvIM4zZIZRu6/ArSsPSnKS2FOSCIjKUzp7GWqYNbZRqVGezn92Y7WVKHZ7NfJ8z9aT7uy/dJFD+1i+C826xjkz79JiTKkunbBaiNrEj4nG7WANueDgJr1nripwInPAXA8dTiHsJCUNdUaowdVzmxCkMnY7QGbPGFCmA8Os6i8AJuSLBTbWO06i5dbVwUJJKLzVPW/cuuyK7Ke2OuRCCFNLU/QTO06pHdTcfrUuTKlR5qGVR4IGETT1rfDTsiDRKep3SmCjhtWsdkTN4449UsYrOS0mIs/gu0A8ksGhz8TlJ+9SsTUu3iA0qdMaMUpBBd37O3Os7CJxQCqo5rIgMjbhOSpJRnabRUt7RnHqmnz4xx/tE7EaNfvOul5FbSdTe1DqmOUaHdEjPjujt2pDF+rWqyLkQE2auC54WOImLberuOkKjRdovAMzFFolvt7ehP2nVruvhhM5YjV5oQgQInICTEpLkmoY0e5lsbJtu657RnOxX/cJbRH8K2WWHh6E/ZaXGmEWIA4PBsJpHb+5EnV8SN2M1AYU80BqgeRI/i4CoztTWsVVEzqAiwq/s7c1PbRRpSFg6QHrIOdXGEs6h0YV3VzkdC7pGxeq4TnRMv53IWOUSAPrjpOiD91OJxGj2scbwrb6ZrSGeQpR/Z2uIxbdvcbPBdPj34UPIT0i6hm/A9We/mguccaI3ETchTztCENWZ0lq2osipRe8g2Leh3gZAXkiA0fsaLqpTu9X2KlE2ixPoG3MDLWYjImqd9Y/Yja8APEkjsjOZSIxmH5OwsmdyMc8DOmpJ94NY2S2P55kE1nBrhYxaHXzMeiMIzIMEzoL6+S+BuAkWpCF2rlRyDQKtacuKnMG7qh0dzSclESsA+TmnMjbDCZ3XzTq1u6KxFqZucKzIOp+ULEgFBE7o834SV+xU0en92Onrpod13tGcWrfCl7OBmPuT5lMsfy28zblS88sixICYzYU0n7TeI26Ctd8UV+xMwpboM2+WXPy08oQROFVvTJ35tMAhcALkh95bCX8HwQ5/dxbFz5dmkSrQWMGVrZeszTKGIabP3NpirvUFdY5E4IS+7idyTCSiHEQJKFINutkiZTwaiwgym0gQ7VueUXfHx8zjkokdkKJSZuEEzk89FDj1+04rb4FT4qYaV2mtR+CEEH6T5pYyGTY3Y3yD1pbY52FEWttei+QM2kld0ZtnRPMCFLWphKnHJbFye9XUIdPaZo+JUZ8zfP0pSIFYtV/B7j1dB5WkoEzP32kd4OvrGJ8eNX3dtNGnZzQnDYjKJXazIQmsp6ehrr5Ss8siRIDQZeieQwdYBDc9jYJG7tcI/lu3MXMfiJ8h0rvmZUmsby+JnAsDSxFR9hI4jhxAmYRLrV45bX2xjmmh+WL6TXQCLUPEW5SgNmfZfP5MFFTKTkf7U05+6+jr/wthNEtMaNcXOS5yYFohtI+CqMRj2Yz+699VNW8kECXlbJHF8NnkYl+/zqPgPKABUZnEbDYU7qC3dw2GFuUw9Pv6Rm/u7MyFpr6Jcb/aEO2fhWyJEPvaUzZEK4T2VRDVfZeNHWdv6l2d3+jr3Csi56QKccKDwAlQNuGEzo/rGKJBagrLWFs3aiu9+wqxid3Ioe+0ToeGnI72zylHo6mEhZwViQ6t8Bmz27EHiuTyj8aI2jG12b/kFHUPNvDcs2hAVB4xbJ7H63OY6GBdcLdP3ZAXGU6yo/26p/el7qbej1bI1J9DCZhWtEKo7IZW+Czdhmj3J4md/hkiWm8kdE4rCL/WPSdyLmoIfDX/RAROgH4QRpC7a9as4ZqGXfOFjA9tYkTeEc1ZHnt78zqc4Ocwy8htHRKNkt4piZ9yVtpRmtMix1Hr7tWVt3MSJdrLNBtBNfC9InjYq8oiZhSnPtdekOijwGkXGb4spTYWlv1Qqg0h8fOx/VCq8Cm7W7aE/7OLWgqnN+vdUyJnsDR1UvEA+kUYoXOtukmLdW1aWabnxEhb12n4p0/MrVKQICVDmdpU4ZAo9tgh6WPnZ0VhyVFpnZYS5lscB0WNSdyLyZtFc3pGjLNXlUPMTINw8+h9zwROPUC/+puybTRnSkiLbiMz29FHG0LPsxU8S7Eh2merNSZcrd/niFoKpxdr3jMi57iyTu0kFQ+gn9gLnV2iOe0aOTwWDzxTuLQh//Yb86oEJJJLgEPgDOOQSATTT6LJnnZYVJ8x9ygNPWtFCZ2fe37qhXcHZrNoTs81R5/z7h3vWgn8+BGnDnC4sge9aTIU5ID/tTVGh09al3OmtR/6KmouY0O09sN+AQ3E46SwRy2FUzwSOR+PBu1itenY2qr/9kEMBqM/4/Pn2nhdGa37VRq2zde4r1997+fBQW3+OzB8x9u3dfX9O2uD1dC91Dqzs8PcWmcu7u3V1ZcvdfX773k+/2/f6mpz0/O+ySnZ8Pr19FmSdE2+u94Try+uecU7lveQvRHrvZb/aP87jfqyLS7s3ZnbXNH+++NHnjdL31trI2vWekP3Tfcv1+f/2F+VTeR377Sv72PGB1j/nlgQJ+YCZ65GM4PBSFWYm3Y0/I5N1zk5157rnBx6jKq8hwQl1oXuwubRkbe4Vf6Qo5qjs6I1WPPBV+jcdhQsxmb7ldeX1jrHO5X3iLUO2B+Oa5z1TOC8d5snnocn1sJmGDG9v0P3M2fBU9/b/8D8GLM+oMhpHsVJpAqDwQh3Kj/saABemq53Jye+9xJhJ9/hPVdKGjI+ETZ9Bc/cIjx9ozrvvYRO02hO3SMv4Zn3iCjOddZ5+2iqyx4JnCNXQSsnXx9hE8Fz2aEsPd+ozglmfjiR88z0YXkZUQwGI5/Iq0RO5BcO48z0UMdTCPCNWGKUkPqX69B7hVOSRjqad2mOLnPGL+3w3isF1izbynMdIv2TKM5Vh30UlWt5icgC5zEHtk/sBzqso5wNh6bpR3VO+7JWeYucdmHtpOIxGIynhowim3VmZpTOk6eAZSsYM7xOtCnfslpEHvVn06zhqUOWHCIzZIv6RWKMHASMYXaHcqSscyC3avRUptHWCQicE7c9IIdAJtnJmse+0XiMZeaPnktOEcC+tTpvumYrMh6JnKah7USqMBiMl05U7VIJhwZG4TjbyAdSdvMy6nIvyO4ZtcnczicyI/XoTr13flHAYwchY5pVMILeaUQGojjj2TUjBE7jiP7UD2u1tpH5kc/hfy6BcRJl/eZVbw5nPEROm/p03g04GAxGfsMusuPYyDi8yfKQh5T1fAblW14Xooi4yHfI9pM4nbL957deTgKLGftmAjUp64zYcyNMpk9vatwtSi9dusyLlJsLyYbQ/MGGyDcQQM8vh2AAP1sCobOryLlYIG0eSC71mhgMRtxoLRtD5NLISNw23ai9HH37tC4GXUf9U9Kpk0Uqe3np66GFTpt60l7PiZR1DuX8I35npde2W/jvNy7reqqpxe0BKe9tWaUyUhc7tUYWVAqnZJFzlPXJH4PByG/YnITdGxqLdmnrnsXYMYioa5bjkECPuImjUnbK2SSguDHO6gCGLut5pY/GeC/thaptBE4j3z7FCH0OSPsRUZ5yFpTeC785iNC5psg5yfbkj8Fg5DnsGucMDQ1Gm+gYpW7m24WUQaOhsBFd1NtE7EzBOSGF2lfQ4n7nMWLUx9P6wL1PbygYAXGTgdiZSvr6MW7E8uNNNWe36srOTnOV7pcBgJ6wvV1Vm5sWVxpaXKRZEO8X0THduburqstLn/vIupsmb9/O58DGBvdC6F4Mm1f18HD+fkB/uLioqnfvqmo0qqrZLI3vpPdSc/LkpN/P5vbW75ns7/Mu5LBv6T31Zjzm3qc2D758qaqzs3S+03Q6t3c/fKiq62ueUZ/Q89Zz1/PXPEgNvSdfv87fm7B8HgwGEybEcgwWAsGPzlfSYhhjYwTw3GC7ImfCwqGw+C43N1X18BD3/dVnygHuxmld12YWcrOB6ObudL7QwUFVTRz2IjnqHz/yfqaGDB6c+vlaJQcWpwQer42aExK9U0BrqPaidj/sG58/V9XxcfjPub+vqt9+Y/6nzNGRv7Alm1iHIJAGEmq0bysQIQU0P7Q+Y0NAiwLr5F+lYkM89qs1V3V4GJaLxu8dMRFe8eereZfGr52v9PvvRKyUQmpCnAzjroZ1+AUHR2cdZEx/+tT1KtYi527z45uJodh17uIg5Imiw/oemYJjAq+tj9pvNFKwHWVrKEqkj0Ln1tb89/dAwgn2WLr8+OEvHNgcdoPVWiDfLYU1WTaE7CjmBjxHagemreagNe3qKvQnIXS+5s9X8/TMbvk6e3t+qZnWpCTEWRiZj6PzANbZMDyiDx+/f0pB6MZ1s9Dvmi6MVtGcXtF8gwFzNxV0wpxiOo2ngSfhCscElkFipw67UsgE0tyV0NlHEc5L3LI52IQQxPDlOKRNy/7X+xlb4NQ6rO+hgT8Ly9gQKR2Ytkh8PT0N/SkIna+gHS2P7oxhu/AxGAzvbtA2HVenAbpW7lY5FW2nCHsa4+3bfjcaki2ge8BcYKzTACeFxgJ9bUjkZcfbNRxkWI+vX/HlsPtpTMjIc2jexFjDXpvP4W3iCU2GnvXlq2nnG+xtmPp1sWIw6AodfhVKTuRcLI4zk/tI19r+jJS7P4budopjwrAYWstSOCjom/iigzKve8takeYBHR3V+zkkxMReb3X4wWE9w2ov03xKxT7Wd0HojNZdvXt+imd3X6XSnp8TfwsQEqXr0UhsbHIfPepyplIgvs+oDmffOt23tYdUcoKO6WCB6lgpbTp2V1/ZmqpT3RdUO9djrxI0ZEsPOqr3k9hNg7XmaB68f0/9brDbyzSfNK+89rTX/DOVElS923Ac0HX9abqHB3uq4ZxSMBh+Qyft/Y3k3Khyie47OWGu9iUKql9pOIy+ZxTEjsjQPCeiy3YopZD5ndbwfs+I4owfuRt7bSUDhOGRwp5KhpUyVMJHKxPR+UskZze8OlqpOHXfomQAYqIi5Cl1rPM+/alrHQF2b4/n0bWWSM54qOh5ro33uuzFh4c0BYCwKBK+jciIhaKcFO3UB7zWMWz5tFCEkbcNQRRnXJtFzRFj2Y1kgIAXml+aZ5pvsaM61RRJ751864CeOxGdf/Imi2+pian0FhwqAD8jCCNUTE3WL4/NE+KgtNa+3H+lEMsxIq0MPFGH0jblKwZykL5/n++LJXN15fM5Wi93dpjXqeCdriyb6OKC+x7Lto8pcOogRcETPH/wRPNN8y6FgAT5DOGFzhEPPReRUxNCJ/oA4MPxsU8UZyyndYVv2PkKinyDMjk66kd9uTZ689MnDhshDrGjOiUKSBwoXej0cgKpy5kO3s8idr3dvqKIXdncMQTONnrz40dsCIiD5p3mXwpRndK1wmaIfEHozEXkxBgC8ENOnEROD2wEwFmor1fX9TSR3xFSdBj64KxJ9CB6E1IhZlRnH4ROUtb7hSJqPcsSSVxA5Ixjr2jtilGCqo0cJXoTUkDzsN3LYxK+FE7vhc48RE4tymG7UgFAi2f6rY2jOuOhgSsSOfSelAyRF5AqiuqUSBbjHSxd6PQSOXUfS4+KzQHvVHUJnOwnvrQCZ4yyOoq8p/YmpEZbqzN2WTYfobO3TRu6i5xe0R3eGzFAH/FOv7U5SZuF+nrN5rBr4sxBWcgwKvm5tiltRF5AqkgoUfMr7VfeqWclC526r0Rz9gdPe48oTn9iCZzKYNI6qch7gFRpM0NiZtyFFzqnfRU6JXJ2L3bpYWCSsg4Qls1N31MtrRs2hySzpO8rTYHKQul9XuUcYiAnVLUPibyAHFCznBjp6yULnV5pfIiccZEA5mmfEMXp/3xjCJxtiRt6aUAOaJ5qvsZsShS2uaEuKqGzd87oPyQ1dL6KjMvQxkqbss6iCRDOMPE0how2FJO6mS+4slk8O+p++iADJIXujCFo09O9OiwDWCFBXsL858++BxCt0FnyoUdIFLygZmYQz7H2RL6iDgkhPLLlPUtPtWgtPD/n/kNetE2JlM0YK9q8tSekp9kfBrVC527jM9/35bFK5NTxd7ddp30oHhsyBhGAPScn/um3NvXUQp96DE02rtAgcvrN2RIjc+V8an/lEBFyRvah5rKcFK/3NIUGBrmi4AVlkBA1HgfvDLlSDwhhfkiq+USDQsgZCfSyIbyDfn61J8IInWpuo0V4ty+PU+nq3b1jr42LlHUAexQh7V18WaKcjTEU2rvsrlCSrl4GBwdl7kHav2VQIXBCCaiOrOYzBz95QMp6PLsvRqdtKA+JQppLCJxQAprHms/eJXD+8DqDlsLZGQwGk748Somc3Z+inCMPg1KT7tu3+ckvANgQIzTfTlSdBv6m3XOrPJy4WJtxX9CeU2LDBL2HdE+H0mhrbBFhmT405osDQSNggbJbVCoEGwJKQvNZ89om43C9fTGc/XIwGAx6UWPnjVk9O89ujBJUlV4LAN1Q/RHvSAoJcnZdm4PtAiad1b0OZO7vmcuhDfmSInLb1DI6n0LJTsqHD/GcFFjepgd/EDmhK6q/eXjIfYBy0fyOVXNbQme4ruufGx+3+E1gUNe1nHmFAW11upJSH7yjiSR2qo4YIfIAq6NQeL1D3uKNnBqbd/aqWb+CLdKLk67PnS6iIvse0USDAfM5FDELkYdAAifp6dAnVGoCsTNdZIMQCeZr+3EwCl1sCJoUQp/Y24sX7KDPDXOYoE1XjYiKTQV8s/jZ3Qv3Sll/jNLXJSB8/RqqdgFAucRYsPW+2h1KhA4f3+1+hd3w9xRnJRyKxPWuVxuStnYWAif0CWUOKHKNtTJNiOb0hShO6GJv6n1F4IQ+ofmueR/DhtCBQpiITglnk8FgUGzjiH88EguOOl9NKesxwnq1YUtglTOqzlgA8DKKMIxh6GqxtuGhykHk9Kg3Rj3OcJSUpq79We8fEVPQZydFB200g0sL7ZOIJn4gKsO6tmaYrs+RXoPdZivYaJafuZ0+HA5/jsfc3983v/bcxp7NZj+H/vmeA7P+oeCANrjOu5Z06zvbR3QW3XH9Z7r6zz8MBnpju4VDxkhZ/xVNPgmtRKoAPM+PH/6dNZXy++mT1dUumrVrFGxhnNfj/Nb5Qr//Ht6htr2v0FJSmnq4dBeAvFB0tgR/Gt6kg+x21U+Fcu0/yP8dVWBEpgKnxEuJmhoSNbe2ulXoe2jug8ROjWlzbzQQPnuCModjCJ1CYqddT4vHnDc+dXnNiCRyLoTOif6x8/jxo/7jojHHyUlt8vswGKWNoyP/9/H33+tmY7D8PYYhv27DuPN33Nz0ubd6nsxr26Fnpzmbwl7WdXz+zPNkMB4P7UXfv5fxfpcymJc+Y2uLucZYbXz5kuVcHw6H9Xg8rm9ubmoP9DnHx8f1xsYG60wfht6LGO/jwUGo32m/OLPikVO/b3KT5FCl8ttJcN3Z4UVkMB47dzHEm709y99jEt7fqm46f09tRB73ljXOfnz7VsYOH84YYjDy3wtLec9LGOxj5R5yMxA4nYYExtFo5CZsPsdkMvkpsrLmIHRmtF8qFHm7pOXrj3R1UUzK+q8o5VD1OqlFBn3n82f/urlKDfz40fKK75p1axbq6y6KMP/e+UIqFG1Xg/SlL8y8tqSUNPVwaS3ZoLQ01dx6qtZWy+OaW9Ta6iFe6zS8jOwSauqHR41aaTwEy/rOmZRC0v4+bvz8/WZuv02kEbFS2o+bdW2ickGADWFJ2wDMvjSjLqiO62UYwr9EL+lNLDMKhqhOBim4cd472zR1jyjOkcl39SjdobWWuU2aOhGc9fb29s9UscvLy85RHNPptD47O/sZEaLr8m4QjcEgYqyIUUoZFgY2xCIlXVGTKSM7grWn8OGVuRfWv3bzs93T1U1T1mM87GXH16+hJgWDgSMXNqReJ0tDB5HzMhtBmXqLtkP7A85JNmN/f/+ng3N/fx/USdH19Tn6PN4T9kdGIIeNeUg9TgY2xJJp6amLm4/Z3d1l/UHotB+qLR5G0xoVJ3IuHPz7bKKYujRBsa0RyGAQxRlegBs7CJwbJt/Vq+4V65jd0L3MeTfXvtaDbAU5Cx7C5nPMZrOfzQx4ZxA6GcaDAATqcTIQOF8Z2n9j7f9dskNYgxA6M8qCKKI+51NOvk3Kupyt1H97ojoZRKjlEkavBXfDQeTcz+p+S7xmfufbkMtS4FSUTsHPSClfEhhTQd+F6AyETgbNh7ADGQicPgecKdkAq0LXdYTOYOPkJMTvcuPhd3uLnNu92lCJ6mSQopSDs+ISOm92yEN6H8KG5yh0D5NToKiNlB0b6m2xHjCSdtQYOWTYMRA4X7ADVCM7dzgURejM8B0+K0rkXDj6M7PomFw2VaI6GThsqaap37gtiBblOrzSnmnUYDNyyDroYQ1OiYe5pKTRnIh9k2FkhzP3yilZxMCG6Hn0JiInQmcBGV37uS5tb6qnmVQWPDw0t2a/ygJ9z5ubqnF4K4Bi2NysqtHI7/Pu76tqPLa+6rHHVx8MBrpRb03WEg8uL5nfFkwm+X53vdsXF0U9jsYRqBqnpvry5Uv19u3bLL7z2dkZ71FpHB7mvTbkyPY294B7C57IXk/Uhhg33+3bt2+NG7NZxK2WXQM9Qu+VvT/8PBsbc7/Q3m6eNP7xRpbP4JlopmGVe9hu10g0ojoZRKOkkDZ75hjFeWnynb1qO7JGdR9KjyT6IokxHA7ry8tL6m0xiOik+RCDvY7R02wg7aVq1FMSykphHcKGcBnfvoX4PabFpKub1qbLVehUmn3hjRwYpCclvrDq2HPDSeC06aruVf/0+3fmd5/T9woTOI+Pj7PrlkoqWo+akmm9RRSh+VDOQ/YZ84uRuMCp0i+52wJPMZlMWIMQOnMuG6dxnNsy94+XIsWbcWAatvtTOs0k/Wc4nKevK9T49JSwa8gPzzT1MJ+nZkP3Tt9+P6t7Tqq6QQLGJN/vXUiK+sbGRjOVL6sdysRAqqjs0n//71W1tVVV//Iv3I/QkNIZBs+0SUib//t/q+r//J8EXZbRzzI1ZZqbE+Zdn1H5G6WTe5UzOz6uqum0qq6uTHeRwWCgdKt8NmmXTsO/Rjp5pXNaRk0p6ofTCEZO0See75n9qdHYNaS92Q5MvrdXozWizPNoDkWzqWfH/v5+UREbNB9iMBgMBmP1UUL39OdQ6j3PmOGeFSINwF67uqlLSFcPUpvz8YNWF8Wc7pQmS6FdbBl0dev8btjW0bpxFjht1jmvVHXdb+Z4PgcAadfZwaExgneLwWAwGIzVhlK5S4ZSNoxoQmeY0mbjXNymN69EeSok1T5XW+k/Hz/Ow3ZzSU1RmLHCzb9+DdG5CsA+VN0LdRbWO23HyPlukareJ5S2t5FZo0CVTvFKcwm6jW40v8pNdXR0VNSUurJNCQIAACia1h44ODgo9neUbTBV2jCAkK8sX/HeqRLb9nZVff5sfdWTwWCwncX9XrIhx6wKqWrn1vWPpkSMlIdXRGGYKE73EyKz9c0rOtC+gz3vRupZBAWUSym1oYBQ6j3vF4PBYDAYy3VQv7m5KTqCU/bOcDjkeTPi+yL2fuNN9pGcCxFUcvMoqKqtxj5Sm3M57WibEp2ccCoB6eEZxamoOLsozttmvRl73qrFadRm5wvt7flFB3IqvD6KOs4Jnfbu7lbV3V3Wt10NBRTN8LbALIi75tlcEl0NAADwKorglD2wpWZuBTNu/KMZjdTgSW/31rc5sDKRbe3vrcZ/Pk7+Pq8Q7STxIby6fXSUV7001UmzjWRjMPKoN6iIZtvvvxshinNi8t3VEMbjC6uWMfM8/Tq1VqOAOtDHx8dFR2uMRiPeLQaDwWAwiOCk2RBj+eGZyWxf119BkMNsGw8F60BcWmMiiUo7O7ysjH4JOVqc7b77WQSBc2OxSOeTqk7zs/40G7J9v2goEAA5a7xfDAaDwWAgcLZp6vpdeeaMpYan3qVAQtvvPy1J5Axbn/PXIeFQ0WI4pQxGWoulbS1OCY0bEUTOUXbCMlHj643Pn/MSOAuI2C1d4KRrKoPBYDAYCJzYBYxOQRieHdfte8qMihA5F8LAtln007IPPycHlfR1Rqyh5iR5CvrHURY/q8h0L2GZVPX03wuLIWMn4z1Ezszl5WXxjszZ2RnvFoPBYDAYCJw/GY/HPHPGen6KV7aZfAz7tPWNIkTOKEJn24nKU+mm+zojt6Ew9PwiCmeRBM5hdgIaqerrDR085VT6JOO9oy/OzGw2Ix2NwWAwGAxsgp/ocJdnzlh7qAO6l6+h4EHb739WjMgZTej0LtKKKMHIaXgdAqjJjt333o0kcp71WFjGaEh16PvizCTP9vY27xaDwWAwGNgEP39PDj4ZWWlc9r1kdosROaMKnYqeyiU6R4IQ4gSjpJRcu0izaAWLzdYtr5rBpKqn/XzSPFnFmQmAusXzbjEYDAaD8fzoQ13uttHQcDjkmTPyyj6Tf2SrT92k5la9qTqgwwspt814qDy5u6uqDx+q6vi4qu7vq6QZjapqOq2qzc0KIBi7uz6fc9O88re3Vlcbx7hVg8GgeSmrt50vtLNTVcOhz5e+vGSOr8rJid/zsXivPn3K9lY3zky1tbVV/JS6uLiozs7OeLcAAABesAkODg564n7tVrPZjIcONuzvV5XHfJJ/NDZ1w7ca//o4qXtpFBWlrusSPONEsOUQ1alaa/ahwQyGb/MbuxIMMaM4pya/g6K0vdYO5vhqQ6eTXkW8LZ6v9jGiNUhHYzAYDAYj4zEajeq+oN+VZ84wH9KL8kxbT6oJUZp17tatjZeDU0udTkaIkV9dyFi1OLezE9Fsa6D2Y3gJ0D2vw0k6GoPBYDAYDI39/f3eCJyUrmEEHV71Oe27rZ8VKXIuRITdZsyI6kS0YBTWXMVu3kar26EsGpPfQYcViGBpDtWMpQ5n8DEej3vjzNBoiMFgMBiM54f2SR0I9gEd8PLMGcGHl6YlQdX2u2+n4GINFo6/KYPBQOnrSvQ/ipKDf9R8bOp1s1SDTXUUHx4qgE58/jyvTxsa1Qm5urK40qFsBO/btFiXdADTvR7n9+/NEr4d/kurLsu7d8zxVfj2za9GbU/3gNFoVH358qUX0+nw8PBnfTGAlfmv/7Wq/u3fuA/r8j//Z1X985/chy62oYedAnH4j/+oqv/xP6rq//2/6F9lY2OjMWluqs0e9J9QbW7ZQADBeft27gdubIT/LNXoVM8bG64bPz++I+aQGjqtYkXzKAQ35SgefT+7TtWMvg6PeW5XF/I+YhTncZVbpGDGkX5RhldUs8XIdO3vUzra2dkZ7xQjj5SzEod9dEm/hrrnMo/KHQll+UynU2pzMxg5+zWKGrX97vvFpas/Iy7oyOMeA5OGRIwADVbySlUfRxQ5Zya/g2e9x4wb0uDUvTBUQ5p0NNLRGBxEMijtlHutdkav342+lK5B4GREG15+p23fmFkvRM5HHdgnUSaHRMTUnV8aEjFSPuGxOzEeRhI4981EZa+GQ/bFoMseEg5zcE7sT0tdhoz72WzWG2eGd4phNnRYlUNjTNbKsuYcc6jMIX/Wrglop7G7u9ub5oMInIyoAU0eOpbsFNu1ZRRzqXzjmBav8A9FdH5oxl3lyfX1vC5NynW19N1UPwdgFbxqD9rU4rxq1oBZpDtlU7RUdXg8aqOI1OsKp4Tq1ozH6X/P+/v5HMqQ6XTai3pbt7e3zbK6yzsFdqjOVQ7rU2pQT3J9VF8NykQ2RAK1vFWH8/Lysvjb/dDca9kE97LfAOJMQh/fQf6tra1ytuiHEYU33h9Y17UKd2j3PXWfIIeH8+YpqS5Uah7Tk2YOkJETYGfERLGGmgVW682O2TvqgdaoHhiPpmvnxkb631PGw91ddrf37Oys2traKn4a3TXPBmcGgnB+rpMC7sOqDhdw7+DxZjwP3EkACZxv374t+na3AqeaKgFERe+9R/CL/Ck7e18LxHG0exY1Vz5WYyKlcSgNJuUUnURSERjUXDKsH7gRaZ2ZVFZlL6hFRipoz1IvR6NRb9LRVHOUd4pRkbZOgzYaXjFIU392HB8f98IuUDo+6wmj6lvauq2/ch/L/39TRUSlrxYt5j/pwMQxXKOqPnxIN31IqXI68S/8hAw6srPj8zk20SdKVXcPj1qEye+bnW55kXJpjdTQOp561Eqmaerb29s/ozhLh2gNcLM9SVtfDSISAeYkkqYuu2Dcg3Xs8PDwZ5kegISMVR9fQjrU3p7V1SRmRVkw3qTwzOq6lhelqE7fGPzT0/mDTDE1TWnIWlx7UAMNOsyR0OjduL21uFKs3OvjxQLbDb2H+/s+33g2SyYdKXn0XHIQDzNMU1e9rclkUnw6mthv3m0ETnCBtPXVnS1I0z4EPxJKU++DXSCBc0KwAaSIV9q6PsPuPT9alI5z5U0qz0wNSRZRnR8rz6hOTRYV6E6x/p2MFDlePaiFBmvgUVjezhmL9YKNTK7iGcVJw6FVrO30v6PWcAkbmaFIjT7U4SRaA9w5PuYeQFiIgC0HBRskEjl53KxdpdsF5429hsAJiRvo4QP0pDHY2ir+i1iKZUe0PVdzUcS31oFqD6Z4Q1TDibpEjF+HR11Zm3qc00jryKiyqoHiWUeNerzp1UjtWU25/f39XtTbUr1R3iVGRc3EdMfXr8yVdcb378ydUsbeXhJzajgc/qxdXTKTyYS1g5HH0LrgoT/Z+qTD3tTkfEF41Sqq3FDfqE5F2yh6MrX0dZ3IKtKEiE54jEc6kk0K5zTWobPJVZSm7hUVodPjBGouZXOSmTqKyrUp9+C43Wz0IoqBaA2IisolqTQJvG7/Qpr2IYRHvt/VVRJfpfQ09avmPo8yrJ0OPUXrQugsJO2/ttmFro7bYBHxlCyLxiHyRPbcPlSLuNLXU6sFJPFV3ykzpxkCzVEPMX4wsLjKh2admXrenmbd0Mv7zeRiP374lAYQer+px/k6KoidYomRx0jAkKOZmWh92dzXvb29oqfPxcUFzgzER80DKZXw+jr67h33YVUS9+1gSWR7JlDPW3Wrv379Wuxtvm38ajUfvE+xRwfAc6gvgcdhqe069E4lKj1uz5vUn1+UqE45pSl2XyeiE1ryieKsvAXOBTZRnHJCvQRO3W8EzuXIoW6patlkJnDKkSld4CRaA5JB633qhzWx8dp/S6IHzeJ6QSINC5XdcVZwrXgETsgWrQ8eWlWm0ZxvcnmOdV3LEpS14xe3r3QipaqmtPAhdIKX4W8jcrqrdosObjZKjedBBw2HluPgIH3HN6EUs1UcmdLTt+XMIHBCUugwBOcaLCFVPX8UnSUfNIkl6rjaVMRYgTw8PPy0CRA4IVvkO4aO5pQWpqAfIy/Oq9P6m5ye46Oozk+VV1SnHFWlkBpFtRl5owidfcdD5LFZNKcR7s7Y5Coy6rxKVsjAIqJnyac7Tv87ZiikqZt6yfW2iNaAJFEkBgdcL4OtC33DtqtxB3dz46fIWSISOGUT3KTk3wOsPpF91gtb38vFkXuT4/Os61oWoY4qfaLEVANTYkdKIgRCZ7/xOKm3qRXmaj0savgeJLigv4zWFhoOvU4OUZwSLBJIMVttOdmujo6OCrYBH36m4iNwQpLQhOh1exegLySUCaI09VIPPyXeInBCEXg0IZIOllk055tcn6eKljZjV+ahk5dUVR8/phVFhNCJ0R8SG0HA23OzOc6SUecZjZdDdGJs9ExSj3jSO5Phsyy53lYbrTFDRIK0PW7uAdg5o5AviWSCDIfD6uDgoMhb/OnTp+LL8wDrRuK+avAv/Cb3Z1rXte74+2b4tBxPrU4nQmc/8Yhmu721eD/djkkXUZw2nqKnw6n3N7PIv2giQOoRPTIAMovIVT2qHbvT2eRQBCfRGpA8HpEYuYJoB30hoUyQcaGH7xcXF0Uf7EJP0boRWri3jeY8XvjtwXhTwnNdCCmygi7cjFE96FQiQxA6+0dokdNGxL91viujZtjk1XiKnBhbr6MoztQjnbQfnJ9ndVtVb2tccBTx4eFhszVOeX8gD4jmBOgvCWWClBrFSfNBKN6GCB2EZ7dGyV8PavS8KeW5LpoSaeX6WHk0JVKUm+oiphIhIqFTdf0KbhwBjtjMa+9wZ5vFUoadV8SghLHMunBH27hTj+LM0HAuuWvq6ekp6WiQmwcePhIDyocapnmiA+9EMkFKPPy8u7v7WboGoFi0foQOnDGO5gz5Vd+U9nzrulZ3IHVluXWZTHrYqRiliu5T1ApCZ9nkI0pMvT5oMBiMdGeMrDtfoxZeJocoTq2719dZ3daSu6YqHW1MnVvIEebt004VLI9HY0qwRQfeidiDJUZx0nwQeoPWkdCZxobRnAv/PQhvSny+i6ZE2uXDNyWS0Hl4mI5YIeMmpS7wEMICCf8Z+dWws1lx9/b8unfL2CJq53VyqcWZ3W09LrJrKulokDWqq4XQCdAvEqrnXeL+qd+J2tzQC7SOhLYhbKM5g33ZNyU/50VTog+VR/r6p0/ppCtq8n35wosO65NRZ3XTKE7PyDYJnJk1qXEnhyhOHSoRxZkEpKNBEejQnIgjgH6gqKuLiyS+Som2gUrXXBL8A31C60k+0ZybjR8fxHB/U/pzrut62vwYNuPaZVKl0nldguvJCS86RDXdvGa7yVV0KuUpkJCq/jo5RHFm6BCUGMVJOhoUNJnZHx5D+jWUTEKR29pDS7INrq+vKV0DrCshyKA256Cu694878FgIKvxKPgHqcu5arSl4JxL7EzkhBCM0KISumOwFsfTztUePiwOGUK+080qW30zudi3b34ip06VP35kLr+EDG2dRKYscioaV+VKMkKRGrPmvpYmcn5s3ieiNYD1r1gDnnuwLP/tv1XVv/zL3+0ZzaXHgrFK83iV54GnUQr1+/cJfZ2bxoXdKuLW6uBT9UU5+ITe8v172ENCaREfPlhd7Z3KTVp+vX/06Vk3N+94MBhM5ZpW89b1YVCHTBkXKQidigbQJnp7y8teCh5CXOgwdzvGJldRMyeiONOCWpxBKC1SQ5COBsXRRnMShQSr8r/+1/znKmVUZAO1gudj8bO1i+QoI7iHsXMSYbt5xqUInPOpu4vACawvIYOitD9o71AtcYNvWxlHdPYqkvOPX3owkKw9aUbY1VyOpCZX7FQbCVb6DtT/KwOVIfAIQ+9eZ/C3Zn25D/gey/q2ieJUDVuvmrqJndwnCVGcAbeDWWOTbBYzVa6urn4KtwCsg0Ub7tyDFJAI1kaEPv5JLeTVsY2CMjBpJsV0VdfBJ2nqAFX4LEU7X0gi1dBUN5DI2cfRIKtxolsQdLx9W1ffv8f/hb99q4P/rgyfcXISfr7s7HT+ng7v8NTkfm5u+r6LBwfM4dfG0VH6m4jmTWb3dX9/vy6Jm5ubemNjg/eFwX5f+jCwSRiBh/ZEPSft358/z/2O339n7mYyp+/v74uwC6bTKe8ig9EOrTP5+EMjy69VfOOhF8Rdreaj5o+fgn6QoieloCt6Kyb6DjQigmKCOn5GcdpUPPY87U2oi2bSpN7MRyeXNukZroy8opUdUL0t/T6ko0HR0Gl9zn/8B/cgdbQnKgPo/LzxrD7NoxR/+22e+i4fRLaWyorkUw4pHPIJr6+T+TqllLFp7QIAWKB1JrQGZffOmTp/b/r+7Ou6VnE85QuEy+VOReiUgbG3xwsPJWCzosqo80x1pRbn6yhdKvVmCBmmQakA/15B6786xN/E3lMBwnvt/ds39F7rd5bjpHRopaq3dSYhP1rxU80s1XDx3bt5irtsL+2loRtppkhi73QpJV8kcM4Q0QF81xsFptgckmwtSkraQMbAH6mvuqnymMpOXVfqiL4HIdykr2Wari69psoxFZB3b7mRQnmPl8aXL1ne1/F4XEya+mQy4T1h9Gdo3yg17Ve/19ev872YlHTSKpXqrvlQcpr7jx/J3fsSUtUvLy95hxiM54bWnTxKsU3M9AIEzr/V6ZwWL3RSnxOR87Wxt2fxXbcDvaeTLB1HPTfmb/zaMT2tDTebzYoQOPV7UIeTwb6fuagpMWtri+fKeNke0LxP/eAz87rsJdTqlkiLXcBgvDC07uRxeKP6PBvU5DRmUadzt/ljuKJ5KaSuU58zbzzqc22bRIubt4QdDAaK4rRp/6jwes+utarjCK8/k5RRWl1CdbSWf523i+morrQ66nBC78h5/1AdRq3tsitUo1Epy6rbeHvLc4XnaVPc37+f22oqX6D3IOf1P8G67CWkqlOfG+AVtO6ELOWgMmM7Jq0ylPdusighcj7BoiHRYbAPSEHoVB2crS0edo70uw7d2OQqqh3iKahl2qjGFYlwqRvbGdbibB2AEjhtHF7qcEIv0f6Ri9ApR0o1wLSeq54moiZY+E1y0g8P50K55laOgmeC9XV35Y9mzPX1dXWpgxQAeN0XDetsWF3JxkEnTf3FtFg9Le2gZaau67MJ4SalN1xq9XGytTiVKuf5rm1uMm9fG6p1SR0tUtWf4ebmhneE0e+hfSTV9VH2pOwGUtAZ3kPllWQ/pF7HM8G67Nvb29nbBsPhkHeAwUilTJudvzskXT0g6m+gQ64qVOf12BGdSh0ibR2emxvdsc4FH5tdyTOKUyfMRHG+jHeX+7Vm3zjTV7mMVPVSolEB1kb7SEqdqGW7ai9VmppSipVaTLQmeHN19WeEp/aJVKP6FEX18JDUV8o9ilPZHXRTB1gSrT99iuYkYjOBzus6+Y55AsnJO9EcYZpTXSYZxRm6+HIhjWpcR+pNNbQ+Z3pvz87Oso/UUGd43hMGI4HmbIpo//wZu5GRvp0suyKl6M4EM3rUkZwmhAwGGkKCWW8zuqv7dl4vU+ik23p+I4/U3JvkOqpr6Hfj3UpreD6TeOUbogyleefeTZ13hMGIvF4qHVhpwdx/Ro5dhWWLxbQh9P4keG/UlTxX1BWe+c1grDG+fg273tnZCvuInKUInZoUsX45GQG8+Iicf53wnQdRnERxJvdMelRTVbWqcmd3d5d3hMGIsWZKTFX96sTqCDIYa0dBx6r9naAtmHM9zul0ynxmMFLNCJGIavNdJ4ic/kLnpDiHP8GC2IwXhseptE062m5vozhp7LXciNl8LeMIjGXGaDTKWuCcTCa8HwyGd/MAOSgc0DFKTtf0FDsTbVqYs30ggZa5zGAk7A/baEpq/r1B4yEnmpum2P5R88eLIB9wcRG+KOxTbGz4NmOB9FEzge506mA0GAz0JQ5Mfp+DA6vfaTnOzphDr7GzY9XkKhwx1mMjcm4q8PDw0GxJ7EkAT7wc9s1V7u/ne5b2yI8fq+r6mvsMZaIGXmpUpLnusb8n2rRwO3Xb61k3+aK6idWwF6AUQq9LNg2I3jZj7a60g0WkFKxz8wYD7Y4HQS7+7du887o32vTpBJ0+JyfhFyhdX91Su3Gl0jlJvGM/fviJnOr2+O4d8/Q1vn5Nu6t65s9RXUdz7ayurqnjTDvaAwRH77VFV+FW3NRIrPMzrMHW1l8PWKfTv/7943/W/MHen79LEjtD+Fx6v2R3JvhuTZu5sKOD5ozQ4afEWTqqA3Tk7dv5HqAgt7T9p7V1hH/wlNdHEZ2DwUB/tBc65fjrpMoz8kzIqdQJJ6SNDKfQ2Jzyrm01Zh3FiTiznGORssApMo7G3WgMl1wFzrvG8UbgBHjxJZkLVusKM4ibZSKH9fGcWHZ+yN9o7cpWCG3/v9LFUP1uHz7MM0v0PlhGOCriOtH3KzeBc26SnSFwAljQZoTYRFz+HfncOnS7ve16pb3BYKCU9dWFD+psJtb5+deO6zTZYMQoGmxbR2i7V7U4E62/lNyI1QDAv6ZMlKHOo3RNZTBoQPS3+usnJ9RgxzZcz7ZRPfjPn+dzSJ9lU7s9raFmW1Y1bxO9Pzk2JVQn+I2NDd5xBiMXnUl7hc13HdF4qEShU5stjTYYTzUeyEfwPu5VR3V9HnM0buMM1sF6PB7TNZXBKH0su44ibiJyhm60qIZVmmN7e/mLn3pP9PsU2nxyd3c3O9tANg3vOIORUfNX2R023/MSkbNUobPrRks0Z7+dmy5Dxmr37zrtTRSn3YJe9pAjlPqCnnl3YYmFOSLni3eEwTCMiNe/U4JN95/+E887VZHzudFGfurwN0fhUzbwurZ2wgfex8fHRHEyGIzwgUA2OoLGyl3W6a5uyKLrun1LStVL8K5BQmfo9PHoLmhTiH1H9TSW/ZfpqN4DQtWAsULrbebdhYfe9ZwNUNfU6a+NMgBgvT2nrdmpOuu51VRULS/t31++VNX37zKwq+pf/5XnnRuaf8fH88Y+sll//33ecFDNM3OoCXl1NbchVbtuVdb5b5zYCNVsJBCq0X3v0YsAoG+EXqfsei+sfiEiMM2jObVzSH3K/3Q280imimi4lOpLjnoRxUkqYHrlA9YZercyv885ojphvCMMRsd0M+1FKnWUWwSi1l1F/j0XOYdNmk4pI+toTz371CM9ZbssG9WZeLmbnDI9ZrMZ7zWDkWuPhIgp6wiTOQmdSvnwrrHDy592Gk0+pQsul3x3drMV0woQxqI45CmOzFM7c6y3NZlMeDcYjK6121XeKIfDNgla+t4SuDh4tx05O1ByiOVwy35LcR5r3i5jw9ilaPZe5ByNRrzTDEbOekKklHVEyXBC57AZ9+YntJ6RaTRRSXtIiMlrDgyXeG+mRHFSLyx6VEnm91lOQW71tojiZDA62ALag1IWVrQ/ypaQgLVujUNEzvJFzl+HRHuJ4SkdPGouvxT5lEFtdkVHEsXJYDAqjz4fdpHt+9TkTACtzYuotAeziz48zGvbeDIeV82GzgNNEdXY8qjV6lRPYzAY6H2xKdIUoxbnwwNz8jW81691UO2wzMmtHudZ8/7MvOtOA5RkC/yX/zKvH5gSm5tVdXRUVd++VZXq6WltVT3mzOoBQkRkf8q+0v6geSTbLrZPIltPdW6fs2cysCE29W5mYhsAQOa+T6y6nERdBo/oHFXWavsq6T2k4VJHw2YiW4wZUZxEHic/CniWSv2mayqDwYiyzivyLkRZktzqjBLJGTbCM4XI5afqdGbQRR7bgMFgVL+W4kg/Zf2eSM6EUKmx5se56UW9OxPrtDKTU7/e4dWJeG/P5PB4MBhsP/UXRHH2AEWFp466DBbwLHOK5FSkBl1TATJGkXXad9UFXRF32hO3t+0/hwhQaFFkkPbrHz/mndpj+SgXF/MO8u0epvl/e4t9gG0AkBdat0JmVNlEc75d6AVLgcjpQF3Xymm4NrugUpM8BQMZljkIFH3ES+S0CzV/Ll/ZboJ5zlUZYKTTLOcE282hcMhpAjceHh5IRwPIFR1+fvnyZyp6CGET4CUk2Mnmk3Ouubi1FUccaIXODGyIHERObAOAwnygCCnriJx+6KHYhQhp8fc84VL06M4OTzE1POty2tRBOhgMBn8JxyCKswcoGjyHKJxCRM6dTNZqIjUAMkN2gOpsKoJO66V3ZhHAS37Kzc28dqf3HtgKnf/+7zwHbAOAPAlZl1M+oE1W6O6y/yIipxMqL1KtWjD1JSSseJ9yEc2ZJh7RnFqcwkVzTrKco0RxruZ8pE4hqeq5OTIAkAFKB26jNvXeZtbcDHqExEbZxd5ip4TO//2/uf+d3VuiOAGikEfK+tZgMFjKAEHkdKSu62bXrU4NPUTfaE4ZDjYqPFjiFX1mJ3KO2j80C5X+bFNMiSjONPF+Lqm/R/CTi4sLIjUAUkcikcQiOT5EbUJOxBI7oaMpdoltAFCiL6Q12ehKy/xLiJzO1HU9bn7YVKWOEc3J6Vp6XF35fI5ETpvi7psLcVOMTb6bUuiI4kyT42M2dke2M6mLNyYzACBdWnFTIpGdYwLgTyt2KhKZJqrYBgDwPCFT1hXwYlM3eamoK0TOOIzMruQdzakJqk6GkBZeAo1dJMfYNIpTQhpRnGk6yjmIbgWlqm9kUPtUUZwzj1rCALD6mp2quInYCl3tV9XsxIfBNgCAp8kjZX0pYwCRMwJ1XTe7rFHauhxz70gpfZ5NExqwIj+RU+LmF5MraS56vgNEcS5PLifypKo7T4sxNwEgJRRdQeQmlI4OAbX/fP8epxM7vAi1OAEK94lsRM63g8Hg1QgaRM6Ia3kz7kyudHExP530NhKgHwvSYxQtmVpdVu/O3URxLofSwnJxlj2ad8FPrq6uiNQASAUdEiqNVzYk4mYZsL6+jjJMiOpMiuvr6+aR3HAjAErWFLT22gTKvaqWInJGYtFtfWx2wRjRnNS2SQeJbl5CZ0o1FoniTJdcDkJkVN/d8bycIFIDIBGOjmgoVCKInKvZKYrqxJ/BNgCAOdfXYUshOqWsI3JGpK7rSWUVzakJ6R2NFLI4LayOl8ipaI9UDEKiONNE4nMujjOp6o5203WzTU25EQAxUZquhB3tZxnU8AUIShvVmVqWUo+4u7v72VUdAHrgG9lkjey89i8gcsZnbHYlb1FBk3RnhyfYhwXpb7N2HP/3JYozXXLpqO793vQcIjUAIqP0XAk6OTSEA/BCYr9sAdLX4zjClEADSIuQAQlGpXEGg8GLF0LkjIxpNKdSLr2dSJzWdFCEoVd0rQT12M2nvKNQiOJcnlxETqX1qZMgBIdIDYCItNGbiAkAz6P348sX7oOr6/LQuC4TbgRASoS019Xfw6bx2+5Lf4nImQYj0w06ZB2FX1E0wMEBT7APi9KvxBSylC7vGblMFOfyaD3IJQWS1GlH33HMTQCIgWpvaq3LPXqT6FNw8chG8wOB2Af5PYEMD4AEUVBPyEZgNtGcL14EkTMB6rqWp31tNim9nUltUBgDaXB15Vd0XiJnrOceY44TxZnms+kCIqeTrUSkBoA7//k/z6PSSqm9Sf1Q8EKCuuwDfJvgYBsAJErmdTkROROSBsyudH7u211RhmdONfjKtxjKfu5EcaaLavQqDYENHB5BpAZABNTBlM7pAOuB0Bmci4uLxl2dcSMAUiTzupyInImwiOa8MLugt/ik6K1UOm73Hc9T0RjRnN6RgvodieJM89l0QWkYPFcXEDkBIvDPf3IPALqA0IltANBXrq/DXVuBUjZ1OZ+tY4PImZhEYHYlpS17p2JScy0N1IDKK0LNO5pTkYKekSk6Yb64YE4tgw45jE7mXCBV3QVFatx71okGgD9tAaKkADq60Ntk8wTg+vq6uglZ8w8AupN+yvqzF0HkTIi6rmWNnppd0DuaU+LTzg4PMgU8DTLPaE5vIR3hvtx7hcjpNC14hwBY58AND+FI9r6yhvoiouv3PTlhbpm6KQjHAL22IRA5+7fuN8Mmh/L21jd1ee7R8gRTQCHmXsanVzSnBHTPSEGiOJdHIndutd9w/h2WoWvqbQGwzoEnHpHziu45PKyqd+/mNqDqv0q0KjkyT/7N3h7zy4C7u7tmClETHaDXNoSNT/92MBgMn/oLRM7EqOta1omdYqRN2TNVUBP24IAHmYpB5vlZoWuyEsWZLrk1HqMepwtEagAU7KBAf9l+VAZNe6lKZH36VFXv36sTxNwXkA1V2vxT4Aj9B7ANAPqCAuZC6Ug6ILNZT5+sy4nImSB1XU80rUwupppM3psJ4lAa6JTUU+AO+dwlnBPFmS65iZw4/sEhUgMgiRexrJRiGsDkgbKJTk+r6sOHv4qe3nZpCKfcO0POmNh1MB8eHppbOOEdAchn0Qh37YAp64icCcsGZleSyOlp5A6H1K5JAZ2uewrcSle26ZT2d7yF89xSr2MiAVqGf04gcgaHWpwArHfmbG/zPHOkFT0/fqyq337LO9JT3/1f/zXbR6FGgNchuya/ggROmhECYEMY7ulEcuZEXdeaUTa7kMQub4fTsxkNPI93FG+Iz5OIJuHcczGPaABmR45iFiJnUBSpQRQnQCLQwRhS49dIz7amZy5Rx//4R9a3P+b+TKo6AD7TH9hEcj7Z9RqRM21GZldS6q2noavILjay+Ejg9kwL0WJlWZhdQjm1ONNFzaA8BWgrh596nMGdGCI1AHrgoABY0Nb0VCMjRfYoUCJlcf6f/8z6dscSOS8aX5RmhACZETLwxyg7YzAY/O1CiJwJU9e1doJzswt6181Tyi8FuuPjLdpZituas0RxMrcsKTyq6SaB3496WwAJcXvLPYC85uv5+byJkey/1CI8Czg0kNB4G2FdwDYAyNa5CHftnR2LqyBy5igjNMMm7EjijffpHRtafNR4wPM5WNVkVRSntzBPFOfy6ADDsxkUDspSKILyNqKoQaQGAOsegJn92kZ4KqU9hXlcyEGpdzSn6oBOWYcAsCF+JVBdTkTOxKnrWjl/dqFx3qKRRBAbhR66EKMma9coXl3Ds6GNhGCiONOdUzgoK0zlSS8/GwAiOCjQv2cdo9mgUtpVw1MOccx9BpFzLajFCZAxIdc9RM7+Utf1uPlxZ3IxnYp6ixM4vfHxjuaUAdzl8ySQUoszXRRlm2sH+h6kbsaqt0WkBkAPHRToHzG73GsPPzycB1HE2G8K2eNU2ubu7s7ls/Q5NCMEyBgiOSEgdiGYOk3zbAqh9GV1yIa4eIt4XZoQxRDinYy9Mlaj4zy/d08EOKWL30WYz0RxAiQKIieUhjJvFNmpA1cvn0afU5Ct6BVdOSaIACBvtO6FWmdtRM63g8Fg+Pj/QOTMhLqudQRmk0urzsIxmtEo+gviLlDe6SLrPHdFcXpHCWKArUauImePHH3vqAmJqoicAD10UABicnExD6bw2H8KsyE87ARsA4BCSL/50PDxPyBy5oWdsqDOhZ7NIZS+nKswUhIS87yjeFcVEL2NIX0/ojiXR1HZMepx4aCs+BpNnF+jMe8GAOtfeFsS4FcUvNGmsIec54Vlg3h0WUfgBCiE9FPWdx//AyJnRtR1rZ37wuyC3tFyFs1ooLsh6B3Nqee+tbXcv6uTHM+O3RJ8KYa+GjmLWT0SOT3rbT006wr1tgB67KB4EbMWJKSPUthDzvMCbYiQKeuyDWg4BFCMYxHu2gqKMrjK439A5MyPsfaNLIyBX9EJPNE+KVg0/mlry57kxiij8PDAnFgWidA2G1EcetB06DFewqOcmHtSYQH666AApEJIIdwzA64AOwHbAKAgQq5/Nuv2XxxURM7MqOtaM8zuWMw7hVzRozZ1F2BdJOp5P3ctXkdHL/87SoMmijNtiOLMCo8ICiI1AFgDAZIhpMhZ4EGpRMiLiwvz62IbABRGyPXPxv//i8CEyJmp79qMO7MJG6MGIsRFBo23w6Pn/lK5Au95IaGXKM7l0bPzFKFx8DvjVW+LSA2ADKD2dD/w2OtSrY2qRpehvlth9Tj/4lQGECOJ4gQokJDroEFJw8cd1hE5M6Sua+0aY7MLSuzx3IgklOzt8SBj4x3NKcPzOUNKUZyeadAKuQ9wcl00uR9OFJhmtgyhi/4TqQGAgwIJ4XF4m2ptVFLV10I1vK9VwsxsChLFCVAkIddB47qciJyZUte1PFebEJ0YzWjY/OIjg8a7Wcj+/t8Fbp28e88HoolXQ6dr3o3KcO5NCClyKsVt1lPxGAAHBSAxQh6WF/7uWNoKx8fHRHECYEOshk224B8nXYiceWMXiieRyXMDlyFycsITjD6Djv2bEGmuSdh8/B08U58kdhHFuRq5C5w9du5D1dsSYw4LAFgHAVIhpMhZ+EGpRM47g5IWusbEuwwaAPj50KGw0QL+uAgiZ8bUda2ZdmVyMUVzxqiJ+FjsAn9k0HhHUcoIbeeanr932jzCzGrEeEah5npPCeFwEMUJgIMCkBQh64b3YL+zOLgclXAoDgD+66BNuZE/NgFEzvyxUx8U7eNpAEuxR3CKz+mpv/Em0Wxray6wekdxGtYd6gUqMZBqkwEc+yV//alJhEaL6m0RxQmAgwLQxfpsxvtmnFdWzVRD2io9OCjtGs15dXX1094AgEIJuQ7aiJxEcpZCXdezhYFgQ4xoToNuWtCRGCevqgfq/bmcMKe/JoSA2lCmoqQaChDFCYCDAtDRh7lpxnEzhgk5yX/Ho2N9Mu7AenayDj+J4gToAaHWQ5tDqq32D4ichfiv2l9MrhSjGQ1NiOIT47l7dlMXStnFwVsNNYnyfk44KIGmv029LbqmArAeAlgyGAy6e7chAyZ6dKinSExFZK6KBE6aDQH0gJDr4c6OxX7y03FF5CyAuq61q4zNLuhdf0/psAaTGjqiE9hSDRT9XqTXpr8W4KAExUKcpGsqQAH7Ya7kXjrFi9ApwzaHn7uP/rydyHd6mp4dDEiw1IHmspyfn1eX3oESABCH9NfDn5sBImch1HUt79UmTC1GMxoig+Ijg6YUUeup+UUU52qoZmrIIv6eIHIuXoOzTtGc19fXdE0FyJ2ca+aFSkeGFV3IofUVN5KeGz2zIXSQua8AlCVQE8LjUn0HAHhqgQh3bRu/8+cGhchZFna7jKLePE/7ZZwcHPAEY+PdfMprMUZEX2M1KchoJT3z0dI+7jAlcGQAAMDeC+h8hZBRvj08KFXa+uHh4SsuwwV1OAH6RkifymYdH+p/EDkLoq5r5QrYtI5WVJ93eq8+7+1bHmRsSktb17x6eOC5roJqW5VkuPL8/0CRmIrIXJXT09PGrkEsBsgeuh9DiRDJGcReeP/+/d8yQJTK/unTJwROgD4Scj007LCOyFkedqE25+e+G7vSX4gUio+MmVLqV2r+ah7DapRkuCLMPfF4V6u3pSYEY2raApQBNXUhPXa7u7UBIzl7XO5Ih5vDxj+T2Pnhw4efY6O51zQgBOixTpA2P5VSRM7CqOtaHv2F2QW9RUd9HtGc8ZEwWEK0B8LM6uj9K+mwAYf+b8xms6VTz29vb4nWACiJ5p0GKI5QkZzU9P6JxE6lsE+JBAeAUOuiYS8IRM4yGTfDJj/z6spX7NJJLKeDaZB72rrm7cUFz3FVVGy+pA62RHI+idLQXqu3JYFztzE46KYOAAABSbcmJyInAEBO6+KO/geRs0DqutbMs1MKvaO6JK6pszPEJfe0daI4uW8Cge5ZJHR+/PjxydT18/NzBE6AUiEaCwe0K92zrh4Lm90uFtJnYA8EAPBbF43Wc0TOcpHIaVM0QalNjTPs++2J5kwCpa1fXub3vfWdr695fquytzevjYuz1xsum3dF9bYU1anmQmom8O7du5/p7AicAADse0/SPT38p7A5GAy6h2CGzD4hGwQAwG9dNFjPm31l+A+eUpnUdX3fPOBx88cvJhdUdJdnGqtqMuzsIFSlgCJrZTDnlMJMAyvum6ezlzkSMyfeB1kAENdBMax9BdCBdFPVAQDAFwXbdNd/hkRyFkxd1/JabSrMK3XZO7oSpzsNlMqaU+MRzdMed8JcG6UH4PQCAJQPUdpQEqGaDglKOwAA/JWQkZxGGYWInOVjF5ol8cjTMNYkPzjgCaaAGlDlUEJA85NanGuuFE5RnN6pX0SDAwAApMo2twAAICPSPyjdRuQsnLqup82PK5OLKaLPO51Vwlr34uZggcTD1GsTab480UQFXmFz0y9al1ICAABxIToN0qF7rnnISE6ingEA/NZFm/V8A5GzH9ipChcXvkKX6uwgiqRBm7aeqsGn2ounpzyndfASOOVYe0ZW4pwAAACUTcianLe33F8AAK910Wg9R+TsAXVdz5of52YX9BYdFUGoSDNIY1FLVXQmTX09FCnt9Uy9nxFdUQEA/g4HQGWTScM9dcBtfgx5YAAAYAiNh3rEuBk2ebyKxPJOdULASgdF815epvWdNB/1vWB19vd9OpPK6aI+JgBAfIhOKxsPkdOmUeGwshA5Q6WrcxgAAOCLzXqOyNkX6rrWTm3XOca727Y+b2eHB5kKeh4pRckhgqd/7x5/DhGWAACwKjbCGpRGqINabBUAgKcJFfBGujqsSl3X4+bHncnF7prLTCa+vwBCVjqkVJ9TUaVECK7H3l5VDYfhP0dRJY8jbb3mDc01AAAAAAAAegMiZ/+wK76nOn6eIpdO8CXKQBqkUp+TxlTp3zsOKAAA0oIoNUiDbmlaqisOAADl0H1d30bk7Bl1XauYok3Ym6L5zs58fwHvz4OXUXSed0TvYySe3d3xHNZha8sn9U8HIanVcAUA6DvUG4QSCFWPU2TSwAkAwJ2Q62P3df0tImc/GZtd6fTU1whQau3REU8wJRQNGCMiRA4aone35+aBntHDA/cbAAAAcOIBAFgfg4LI2UPqup42P+xaUXunourzSE9JBwlY6tDtHRWieYB4th6bmz7Nw2IL0dTkBACAvpFPlO6QhwUAANYgcvaXsdmVlLLsKSao6xY1/tJCKeMSOr3Q6dH5Ofd9XWJHcVILDgAgLqSrl4tqpofGptzNNg8LAACsQeTsKXVdz5ofp2YX9BYdJdIoGg3SQR3OvcQzjyjEUlEUtNf9e65eK841AEBcOGyC+HQXObfRSQEAikLlCTuCyNlvlEdqk+8rgcu7uQj1GNND0ZWhGxEpavj6mnu9LhI4FQ0dGs0DmkIBAABAKELaMxzIAgD4r4+InNCFuq41O+1C77yi+FqUHr2zw4NMjdCNiLznWYnPxwNKSgAAAECuEO0MAJDl+ojI2XPqup40P2zCrRS1FaMJEaSFajCqVlOIEx5FB3rUmiqVgwOT07GlnhNRnAAAAAAAAOAIIieIkdmVlELumd4hMU3CDaRFK3RaonlFFGfHN33k8zmhSxYsC2UNAAAAAAAAegMiJyiac9r8sFEDJG4RzQlCEZeWotpznbphOVTawVp4foplaqbq3wEAAIAw5FFPkq5BAABgDiIntNiFyKn5zGzm982VfntywhNMkYsLGxFa8+n0lPvZBa8oTg4dAAAA4hK6XprNoelbHhQAAFiDyAk/qeta1tCF2QW904r1eW+xlZJE4mTX9GXS1LuxuekjcsqpIkUcAAAAAAAAIoDICY+RkmSTD3x15ZuSurFBBFnSM6tDx3XNI80n6Hb/PVBJAQAASJ880pkBAAAAVgKRE/6grmtZvHYqhbfoKCFHEWuQHm0jonWETqI4u6EIZ48oTpUUuLjgfgMA5EDodGYADzxqjQMAgB8KXusIIif8ikTOO5MrKW3Vu8sykWTpIqFTYtsq0SOaP2pgBOuje26wWbwKkdQAAAAAAACwLtvde9IhcsJfWERzjs0uKOHDMyVqf3/eRRrSRIKlTt2XmRP6d4ji7I7HPdSzWiWKk7qdAAAAAAAAYAwiJ/yNuq4nzQ+b8Lm7O//oSqI500ZC5zLCm57jwwP3qwsHB1U1HPLOAQAA9AmVkAkNDT8BACBBEDnhOezCvySAeEZzKsRZ4g6ki6L+XqoTKeNcXdmhGx61OPVuI3ICAOSFRxkTiIeHyGmQUggAAGANIic8SV3X0+aHTUtrReN5px0rTZ4T5rSR0PlczVbS1Lujsg0eBfmJuAUAyI9cBaqtLZ4d/IlnEAUAAITH4JAOkRNewk5pkqDlcarcohRdhLL0OTz8u9A5nVbV1RX3piseUZyCKE4AAPCCCFR4zM0N9wAAoCQQOSEkdV1rhp2bXdBLdGmRyEk0Z/pI6Ly8/Otzg25sbvq8bxKoieIEAAAAAACABEDkhNcYN8NGxVBHZUXpeaHTfqLM8kCCnE7jJZrd3nI/uuIlFKssxLp4rgUAAAAAAABQPIic8CJ1XavYjZ1S6B2lJ/FMUW2QNooGVP1Ioji7o+hlryjOu7u07wW12wAAAAAAAHoDIie8Sl3X4+aHjZqhKL3nms2EwvvzYD0kdJL63B0JnB41y3KIkqZ2GwAA9BGPWpV0VwcAgARB5IRlGdtdaezbDVERguo0DdAHPKJhlWpOWQEAAIA08bCzSz9I5KAUAOBp1OQ5YRA5YSnqup40P65NLqYUV+8oMGpzQh84OPDZdLrU4gQAAABIHSJVAQCeBpETCmJsdiWJjrOZr6EiAQigZDxqcSqK89rgvMMzmhsAALJyUAAAAADWAZETlqau62nz48rkYqq96B0Nps9TUxaAElFJBpVmCI1VjVuPemEAAPA0iJxQAp4BEwAAEB6DQBhETlgVu4J/Fxe+QocMerp3Q6l4RHHKmdB7mwukmgEAAJQLIicAQFkY6EOInLASdV3Lmjg1u6C36KjPI5oTSmNz00fkzK0WJ00DAACgj1ASBhsCAP4/e3d33EaypH28sXHupbVAnPuNkMYCURaQYwEpC0Rd7NV7QcgCkbEGCLRgSAsGtECkBUNaMKIFePshujRNiB8AOivro/+/CC5nzjnbAIH+yMrKysJI748kObEN7eJzZ3Ik9fZTjz/PC5JNiFAbj8mC0qo4AQAYq+vr+K/h0SInJVaDAECR90eSnNjYYrHQ9PDU7IAeFWirr6fKN6AGqkz2uIasJwdYYgYA6dSeoAIAAKNEkhNbWSwWynjcmhzs9tZuM5N1eb8eEIuqOGMvGdCyN+trxiPJSRUGAAD1YhNDAKiLwRiRJCeGsFsjq0SNZ/8gVTBoN2qgdF5VnHd35X029NMCAKBeMWMTbVgKAPC9P94OrqO7JsmJrS0Wi/P216VZkOLdK5PenCjdwUH8IFyTD1wrAFAPWvYAaQfxAMD9MdrolSQnhpqaHUmJFM8+fVrKqiQRUCqPDYfOz+NUSlxexn/vDFAAgHsj6sZO8gCAHpKcGGSxWMzbXzZbLiuRMp36/gF6PW3cApRG7RY8ek56X5MM5AEAGC524UAuz9iYfTmpegYAv/ui0f2cJCcsTM2OdHbm20RcAZpHNRxgzeO81WZDt7d81gBQEyaAxmEsSU7+RgCo475oU5k/J8mJwRaLhaKoL2YH9E466vWo5kRJNIO2vx//dWJXcXpMaLx9y/kCAF4DFMAby9UBAD0kOWFFO5PYNO5Tr7753O+dawdmNlZBSTyWkOsajF3F6TEwYYd1AADqFXPC1KMtEACUJOZ9keXqyMlisVC2Ymp2wMND3z9Ar0ffHZRAVcc1VHEKSU4A8Le7y2cAEEMAQF73RZarIzeLxULlkDalX6ogUz9AT96vB2xD7RViB92q4vTY/dxjuTpVGAAA1Ctm71FaOwCA333RqACGJCes2TXUVDLHs8+OKhu0YzWQM48qZ9o3AEC9mPxBTUhyAoCfmPdFmwKYHyQ5YWqxWJy3v2xKwO7u/JMtJHeQs4OD+AG3BgsXFz5/j0clJ8syAeAhluCOg0d/+9qLA7hWAKCo++JisbgiyYkYpmZHUtIx5gztKlU3KJEE5OjoyOHqnfr9PeyICgC+6D+O2sRsr0PVMwD43RfZeAi5WiwW8/bXmcnBVM3pmXQRvZ42dwFyomqJ2MG2JhTOzvz+Jo8JDAYoAPAvlt8iP5dZvzvGBADgcz9U7meYa/0fkpyIZarT1ORISrp4LGvtDwA8KuaATdRWxSm3t/Ffg6VmAPAwxgFqE3OcwGQpAMS/H9oUv9wvEyTJiSgWi4XOUrsGl95JR70eM7fIhZYX7u/HfQ0tHT8/9//bPKo52VAMAJZIciI/wzOUMdvfMFkKAPHvhyQ5UQglOW2qOdVvx6OBev8CZhMi5MKjwlLn+92d/9/m2XMXAMaOqjTUiEpOACg7hrAZE94/DEhyIprFYqFMul0J5uGh7x+g16NBP1JTRbFHFWeqpL5HkpMd1gFgiaq08fBo9WQz4B1+Usas5KT6GQDi3w+p5EQpFovFrP1l03hP/ftmM98/wPv1gFVqnRB7UKrzPEUVp90DjUE9AKyDSZ/xiJn4s32+Dg8EYiZ0SXICQPz7IZWcKMyh2ZGU8PEI2vqDAfr5IenVcxj/NVK2ZmCHdQDwQa9x5Gl4IBBzbEAMAQDx74dUcqIki8Vi3v66NDmYqs28EzL05kQqBwfxKwhUxemxy3ncBxoDFADgXogyDQ8ELi/jvTtVqzJBAGDsdB+MuTrOoCJ/sVhQyQlXdr05lXT03KxEgwIlmwD3q+Yo/mt4bGoU+YHGAAUA1oxngDwNn22lmhMAyr0PDm+d9vMAJDnhosuqn5ldAN6JmdSJIIyP2iTEfpicn6et4gzXs0cLCgYoAMaO3oLI183gI7DDOgCUeR+czy2O8vMhQJITnqZNL8M+yNmZTwVYf2BwfMw3CD8eVZy5tGIoZwdYAGCAgjKUs/HQbn9wurWYq7yYIAAwdjHvgzbPq58PAZKccLNYLHTi2WVVPJJAq6/Hkld4ePOmafb3476GZsxi9rDKZWDCAAUAlkhyjsv1dUnn1PARbsxYgmsHADFEvGPbFLz8fAiQ5IQ3JTltqjmVoLEpbV6PZqtZtg4PHudZTucymw8BQFyxNwwAhhke0MccExBDABi7/JOcLFdHGovFQjO1diWYh4e+f4CqOVVlB8QciMau4lRS0a6Kc3ivXY/JCgYoABicALm6GXyEmMvz2cAQwJgp/xFzotSm4OXnQUhywt1isZg1FrsoijZNmc18/4Bc+hiiTkqkx662savi1HU8/GAelZz6TJmgADBWu7t8Bsh5bDA8EIi9PJ+JAgBjFbvtl8H9u9vo+h5JTqRyaHYkJYU8mqsHqrLTztdAlCvjMO7xlVA8O7M62sxkYOK1wzsDFAAMUOx5bgSJmg0f5cZcGcJEAYCxinn/s4khHgwmSXIiicVioSjEZr3s3Z1/dSW9ORHDwUH8mTK7c1e9dcOFN/xaZsk6AJR3/9Pg5PyczxdDhMDnZvCR2HwIAMq6/xkvVReSnEjJrjenkpweS14DzWYoIQVYip08V8WzXRXnSddj12Zg4lEJRBUGAAYotrxbBmEzsScQbZ6rOyESyGSw7D/IB4AxxhB2Y8AHDzuSnEim65tgk3FRNad3dSXVnLCkFgixqzhtK577Bxs+qmCHdQCI93yJhSpOGA51hw9z5/HenWI0Nh8CMDa678Uco9rctx8MJElyIrWp2ZFUoebZF0oX+/Ex3yCMroRp3OOritMuyXnWq+K8fzwNH9o4XLtsPgRgjGJVsSvB6dVTGWNwk30swWQpgLGJfd+zKXR5cPMnyYmkuk1Lvpgd8OjI9w/Q6zGri6GUeIu9lFoJTlU825iaD0wuL30+awYoABig2KCKE7ZjguEZSsU5MTcjpe0NgLGJed/T/dpgsnT1+UGSEzlQeZlN9kWJEo8NTAJVhrFsHUN5nEN2fdPOVndU7/59+DVMX04AsBcjyamBCUlO2Bs+4xkzliCGADA2+e+sfr36H5DkRHLdstep2QFTVHOyBBbbUiXw4WHc11CC025J4VNr3oc/pTySnFRyAhgTxScxemkpwWm3OgDj9rr3zzeDjxaz2IEYAsDYxLzv2dyvfxlAkuREFhaLhRInNlmY62v/3T6p5sS2PJLydufn5TPLyYY/pajkBIAyBiepqjhJMuX3XH37dvARnhusZvU3awXX8L8XAMqg+93r17k/o0hyImt22R4ldWL25FmlSryYu5ei4rM+cpLTtopzuskDZmNerSa4VgGMRYyJHW0ScHGR5u+JOdiqkUcsbPud5L8qhEQ7gLGIfb8jyYnaLRYLlQXY7D6ipI7dTtLroZoTmzo4iD9gs6tqVhXnPOrA5Pq63EE/AOQoxv2OXpyINxaYm4wBbHbrJYYAQAwRi+7TNpsO/fLcIMmJ3EzNjqQkp2c1p24CVIhho7N9Gvf4qoy027V89sIDRiOKO5P3HBtVGADGQD2fY9zvvFsCYWyGz3iy+RAA5H2/i7TpkJDkRFa6TPyZycHUEN97EyICf6xLCfEYm0H02SVRb9trc52Tu4wl6wxQADA42Y4qL7yq7jFWeccSit3YcBRA7WJtXGh7n370eUGSEzmamh3p7CzukpXHAh8tQQZePMuncY9vW8W57psd/rTy2CSBjQMAjEGMJKd3KyCMUf59OZksBUAMkcN9miQnytAte/1idkBtCuRJySstEQOeopmx2A8Ou6ridas4bQYmXpsPMUABwABlc/TjLIvHRL9Bpc9kMtk1jSXsJnmJIQAQQ8Rgc58myYmiqFTgzuwC8kqchGDPe5k8yhK7ilODmrMzy2txXcMvNLWZ8Kjm3N/nPARQrxj9OBVLGWwSAEeFJDn7TDYfCudrqYN/AEgt5n3O6P781POCJCey1J6w2jFoanZA76SjXo9qTjw18IxdXWyXRNVEw2zD63b4CNgjyckABQCDk83Qdxx+hpf4xIwllNil7Q2AWun+ln8/ziefEyQ5ka3FYqEKMpuSATXJ9wzO1fOPak48JvZ5YVzF2SUuN3psZfLge5k2fwKAGsWoVmepOvzk3/6GyVIAtYp9f4u46ZCQ5ETu7DJCqm778cPxnVPNiSfOi5jskvmq4txmh4nhTy2vJCdL1gEwQFn/2XJ3x+cKL/nHEiQ5ARBDbMem0v7JmzxJTmRtsViobMCme7j6SHnuCqpqTnYhRd/BwfK8iEVJfLtz7nyLKs77x5bJterRR4wBCoAaaXM762VmVHHC1/BYInaPbyZKAdQq5v1N92WbSdP5U/8FSU6UYGp2JCWAPKs51XtRgw3g/kyexj2+zm+7Sput3uxisdCIYvib8Kjm1KYcXJ8AGJw8T3HTxQWfa4k8Yl6bydt3K7HETWPRsip2LLG3xzkGoC6x72s2k6bXzxXjkORE9rpds2yaDCoBFDvRtMr79ZAn9X+M2cBZ7Ko4z7oBxtbDikwegC+jmhNAbWIsVUeZ1JM+tnfvLI7yOkoswZJ1AMjrvha5H6eQ5EQppmZHOj31WQobUM2J+zN4Gvf4tv3Shr7Z/AcmAcvNANREvcCt72skOZFG/rEEMQSA2sS+r12adCJ89uZOkhNF6KrKTs0OSDUnPCnJHXtWzO4cuxxYxWkzMIndS4sBCoAaWT9rNCnsUQ0IlBhLaIUOhQwAahqzxlx5aLdS79nnA0lOlGTaWPT6k7Mzv0oxUTXn27d8g6M9c6dxj68qm9tby+tskKL6cgo9tQDUgipOVMKsL2fs9jdMlgIghvAc292+VJBDkhMlBTtqLmu3Xbl3dSU7rY+Tlg4qyV3GuXXZ9cA1eYxlPzBhgAKAAcrzSHIireGxROwJ09gxHgB4iX0/s7kfvzhAJMmJoiwWi2ljMasr6gfhWc2pJWTafAbjcnQU/2Fht5TQMhN/bnKNeuwMS5ITQA1UlW6z0/WSlvnarRJAKh7P0eGe2r1oeKAeO5bQxkssWQdQOt3HbDaSe5xd+5sXnwskOVGiqdmRYiegfnnnU769sYl9jtmdUyr9tyydnNscZR7/O1JSgHYSAEpn3Y+TFSh1iN3f2ua8e110LMEu6wCIIbzuwy8eiCQnirNYLGbtL5Ntue5nEzyXYlHNOS4HB7ZVNY89LGx2qJOp8XV605TQSytguRmA0llXpXvdf4HSYwlWhAAghvC4D193LQyfRZITpZraHWnq/M6nfHujOUsjf9d2VTa33eSB+eOsmEE2AxQAJVM1uuWOqLr33t3xuSIHwwOB2JWciiHUgx0ASqT7V+yx0MWF2/OAJCeK1G2OYlPCpn5TVHPCmr5jywHnKvU1sXlYyDTSuxw+qtAgO/ZSO9F3xZJ1AKWyrkZnwyHkY3gsoVg/dizBZCmAUpVRxXl/pHX+RyQ5UXRIb3YkqjlR2ndsd/y7xqJK4hFmPT69BtssWQdQbERkeP/SJi12k2hAHrFE7JUhxBAAiCFi3n/v2ufBWrNVJDlRctBz0/46MzmYZng9E49Uc9ZNu9PFbN6sKs6zM6ujnazT22SA4SNl+nICwNOsd1WnFyf87bzw319mf14r7mOXdQCMW39l0zJk7Zs4SU6UbtosK9GGU3/DHz8c3/mUb6/aszLyd2vXi1PXTuztc4c/1TQJocRubEoSKFkAACWxXmbGrup1id2PUoZP3L+UHRyeodRmo7FjCZasAxh7DLFKrUJuby2OtPbDjCQnitZVc9pE4+r95xnYU81ZJ82GxawIVCLebvn2LHIVp83A5P4obEAEANHvW0oCKRkE5IUl6wBQ4n3LbtxKJSdGRZlJqjkxjgeFzlG7HW+jZ/W7iYjhI2avvpzskAqgJAcHLFVH9bpYYngpUOyq1nfvWLIOoBzadFX3rZhs4orLTQpzSHKihsBHJ3y51Zzs6FwPJceOjuIdXwl4u/PzrBs0eBg+qvBYZiZKFlDNCaAULFXHeAwfKWtDrdjFDDHjQACwFLs4x26p+kb3f5KcqIWi8lubIzlXcxIM1TXYtKyo+eX2fm5ZxTl1/GRmZn9/DQ98ALCgijHLJKfdYASIEgUVEUswUQqgpLFr1BHgzOpIJDkxPl0159TkYN7VnEqosLSlDrHbD9gd/8KxilPXZztyNpiE8Fqyzg6pAMY4OPG6xwKPmEwmr1+IJeaNRXuq2EnOnR02MQSQP92ndL+KyeZ+e73puJUkJ6rRnvyKzsus5qQ3Jw+KdQafdhU2KdYjlrEzakA1J4DcWa8EIclZJ4/d1W16uq1zkDKWrBNDAMhdOUvVN36IkeREbaYmR6GaE6kHm7+c2VOrI1121RDebEonvAbhDFAA5Oz9e9uJNdt2KBibmK16YsQSHkvW2cQQQK50fypnqfrGByLJiapQzYkktHmUljhHC+nPLas4p4muzXljsczMK8nJcjMAObOeiGFXdZQR558Xc74zWQpgLDFEvDHbbdf2bCMkOVGjqclRUlRzMutbpthVnHbn4XWiKs6fw4rhj7rb5fKHWgIAANiUYgXL+5MmdM/O+FxRiovhR7iI3/6GjUUBjHXsarc6ZKuxI0lOVKer5rw0ORg7reMlajMQMxmmXlqXl1ZHO0n8aZ2bXZcetIyDNhIAckMVJ8atjGpOVoQAyFE5Gw7JbJv/J5KcqNXU5Cje1ZxKclLNOe7B5i9n8tTqSLfdBEAy3TKz4evuPQfkVHMCyA0bDqFO6zb2LKfHNzEEgLGNXe1Wh2y1VF1IcqJK3ZLc8qo51bidas5yKCEd8/vSUiq7Ks5pJp/a8MGJJh+8Ep1cjwByYl2BYfucQY48vl+/3dUV4ysoH75k/fo6/pJ1VoQAyInuR7E3HEpcxSkkOVGzqclRUvTmRBkU1MfcUdSuivMudRWnxQPr4VGc/hx9vwcHnOsA8sBSdeTIb3f1n2euyVE84nsmSwHkwuN+ZHdf3XqwR5IT1Sq2mlMVGiRVoOoCu40gTjK6LrXsYPiSdY9NAxigAMhJjAqMkxM+V5QY42vwO3xXC69d1mlFBSA1600Lnxq/qkp+OG2Wu/VAjyQnajc1OYp3NaddBR+KPXPNzgENAnIbxc5sjjLzebeq2H3/nnMSQC3PhaWrq6a5veVzRamGZyh1/sdOdKrKNfbyUAB4ie5DsavuM6jiFJKcqFrR1ZwkVcZL55ld0H3S9a/KyczmKDO/d0w1J4CUVIFBFSfQV8Yu60LxAoDUPO5DdmOzQQciyYlRXNImR1E1p2dShYBovDTwvLuzOtostz+vW34wfC2DKjDmc583zeYBAFLSRItlBYbtZBpgYaMTvI0ldAIPD5bUGih2EYOKF7RpGACkYL1p4aMjzpnV+PViaIEOSU5Uz7ya08vubtO8fcsXOEZ2ibuzIf1MIjsp7ppk4gFAKtbV5Epw2k2mYTxxxeNsBs/bbNE+Mxucl3YNA0BO959MqjiFJCfGYmpyFFWOsUQWYzvv47CpwPDcgIjNAwCkoM0IrftosVQdlmJXCEUcDLtdDypeoBUVAG+67+j+E5PGYpcmNWV3XZX+ICQ5MQqm1Zye1VwkVbC9nKs4m24Zgs1aSSYeANQsxoZDNrufAqljifZkLqj9DTEEgNJjiLivYTKoI8mJMbGZpqWaE2WYjeY9el+PTDwA8KIqTusqOao4QbyTJpagvzcAT7rfxK7iNN4w1+IgJDkxGl3p820xgVBAkhPbne/zQt7j8GvSc+JBS0a5JgF4sa7AYMMh1McmANAGRB7tb+jvDaDUGOLRO/DMqsf3pdUqRJKcGN2lbnIU9Zzw2tVZSRVVcgB1sikpopoTQG1iVHHaDUaALHTtb86KiSXUiopqTgCx6T6j+030kZzZ6hCzGzBJTowtENLFY1PN6TkTS+UY6mXzQPOeeOCaBBBbjMEJS9XHyeP5ODxxN2RXnrJ6fFPNCaCG+4xWhtyapFbuujyNCZKcGOUlb3IUJVW8dnV+944dGVGl4iowAqo5AcQUYzdUu8EI8Kt0O6zbtaTyan9DNSeAmEZcxSkkOTE6xVZzetyogDRsHmxe/bSEak4AUe+KM/tjUsUJYok0117qMQSAcfG4v1xdLYu+jCIUy7dGkhNjZXMhKamiJv4emPVFpboNiK6LG8RTzQkghhi9OG0HI0C9sb1X+xviegAxlFfFabbhUECSE2M1a3/uMrvA1wuIAAYnz1zZM7+JB6o5AcQQowKDKk5Ursj2N1yXAKx53L+0cu7szOpo5jdCkpwYcyBkc0GR5AQsrkk9kYdPPGjXYKo5AZQqRhWn7WAEyHp4b3IUr/Y3+/v03AdgJ0Y/78fYTcbedj2VTZHkxJjZZEKUVPGa8dXAZ2+Pbw5ck88e5cS3mpNKDAAWNGFCFSdi8Fh+bZCcn0wmg0bnpu1vvHpm0psTQEn3E42xzs3yklECFJKcGC3TZS2eAQrLY1GvmclRNPFwfu73rumrBcDq+W5dxanBiNdELMYt4e7qUQbNiiM8JkxVdUU1J4ChvKo4NXF6Z9L1764x3lU9IMmJsZuaHOX21meWPARDJFRQoa7pdHkTD+GBDwDbUhVnjElMu8EIUEosMWtKa3/DRASAEu4jmvixuy/OuqIzcyQ5MfZA6Kb9dWE2kPBCNSfqZXMhaeLBc9BAXy0AQ2hiRu0v8h2MAOOLJbza36gKVv14AWAbMfp5P3VPtJs4jRagkOQErC6wiwufJuXCBkSo1GKxuGp/XZolDTzRVwvANrQ6gypOwNLM5Cie1Zx6HTYyBLAp3Tc87lO2E6dnXbFZFCQ5MXqmTcq9AiFVezDji3pNTY7iXc2pVhJclwA2FeM+RRUnxh3ba/Bs0/7Gq5pTsT0rtQBsSvcN65UgT90LC6jiFJKcgOWFpoGK167OWh4L1Dk4mbe/bk0OlqI3J5UYANYVa6MAqjjRd3kZ/zVsBtmWF4NNbO+5maFiFvruA1iX7hdeO6rbTZxediv3oiHJCTQ/m5QPT6p4BkJKchIIoV42T2zvak4qMQBsgipO1OLdu9xi+zLb37AJEYDc7he2E6fRb6gkOYHebcLsJuCF3pyolNnEg/fgJLweExAAXnJ8HGejAKo4AdvBtCZMveJ7VXbv7fHNAXie7hMxVoKssq/inMd+yyQ5gd6wwOQo19dNc3Xl845JcoLByXqDE+9EJ5UYAJ4Ta7MhqjiBn0z77iuO8GpJResbAM/x2mwo3PsKquIUkpzAv4GQIhe7JuUeVAGifl5AndfkrLGq5vTaOCCgEgPAS/ekGBsFUMUJ/HJVmBzFc6d1xfe0vgHwFN0fYqwEWXVz0zSnp1ZHu/Wo4hSSnECMQOjszC+hQjUn6jYtbnASqJqTSgwAqzQBEmPzQKo4gV8UO2FK6xsAj3n71m+Fmu3rTL0+IpKcwMNAyK5JuddyVQ2USKSAwcl6gxPNSHpRlZb3MnkAeYu5xMx2SRlqM5/Hf+YNtxtrqG5yFO8JU1rfAHhsPONB7ffOzqyOdtuN6VyQ5AQeCSmKugEpqIxREQLkw25w4p101HISWkoA+Hk3m8ZZYma7pAzYXGa7q/cVW82p1jefPnFuAVjS/cBjs6EwhsltLLcmkpxArEBIm514bUBEkhNck+vRjKRnNadQiQFANOERq88eVeOAzyBbE6ae/TJZtg5AdB/wetar8v/y0upo155VnEKSE3iczYXoVc2pJCcBEBicrMe7j62qto6P+QaBsYsVE2gwYrekDKhSsROmWrFFr10AsTYsjD9Wct9FjSQn8LiZyVHOz/2WtFDNCQYn69HMZOzeZKs086pG4QDGSRMdsZbzUsUJrH212A3bHcftivG1YRmAcYq1YeFjlEy9vbU62qXXjup9JDmBR7QX403762LwgbSkRYlOD+yyDgYneV8vLFsHxinmTqi6r9gtKUPNvCbd847v9SC2Gb1fXPhOmOpaZ6NRYHx03XuNIfScKHRH9T6SnMAz4YRZUOJBFSIsWQeDk/VohtK7+knX6NevfJEAg5NcByOomUef+OFJOI+d+uwuGs9qTi1TZbIUGB8VTHktU9c9TUVaNpJUcQpJTuAJ7UWpEszhCRVVWHj17aGaE/WzO8k9d0jtBw/stg6Mh5KQsZap2y4pA4bLeIf1Xnw/a6wmTK+vfROPWq7KbuvAeHjupq6JMNv+3kepPjaSnMDzbCIXr4bhJDlRuW5G0GZtpvcOqT/vKjOWnAFjEHM3dU2eshkJsHXEbDeMP/KdMGW3dWAcPHdTD/cyO2ftmO0q1UdHkhN43szkKF59ObWLM5uboH52T3zNWHpvQqTrlOQEUDdNZMR89tsuKQNGxXzC1POZrmWrXuMKAOl4LlO37e991yTqxRmQ5ASeD4JuGosNiLSczCuRQjUnxjE4sVtPkaKaU9cpO6UC9dKAIdbgRPHExQWfMTCM3SD8yxe/1lSitgDHx3yDQK10fXu1/1Aluu1Y6KTLoSRDkhN4mc10qVfPHvXrARicrE89tVJs3qF7AkvOgPqoh1asZ7EGI7aTmTT1HAt2V3+gmzC1my3wLjJQ3EKPb6A+uq69l6nbrQzRgZIvVyPJCbwcBM26C3YYlqwDltflTfvri9kBtdTMswpDWHIG1EfP35iDE9vNhpIvKYMjj93VDaqXJ5PJruOnYle+pKWe3s90vR49voF6xG51s0orQ4w3G2rHaMln1EhyAuuZDR9K3PndtLx2YQPSOmksJiDC9Zmi1YOWonz9yjcJ1DI4iblMXUmqL18sj6h76A1fHEyfaQXpJkxPzQ6oOMKzYpbJUqAunn047VeGXHfFYcmR5ATWY3PBei1Zpy8nRqCbKSy7CkO0TIT+nED5VGUZM8lj2zNL5aDsgAYsq5ntJky929+osIH+nED5dB17FirZrgxpTMdkA5HkBNawWCyuGou+VdoowGOGV4Msev1hHNfmrLHaIVW8qzAC+nMCZVMfzpgTjBqM2O18KtMclpQBGcQRug6mZgc8PfXbbPTn1TylPydQMu8+nPYrQ866PsdZIMkJbDDEMDmKV6UYGxBhPOyiglTL1sOSM3prAeVRH86TiEWR6hdsO/i5zGVJGZCD9nrQBWxX0nSUoKCJGAIok4ocvFeS2Y51suvvTZIT2CB8MAtCPJDkxHgGJ/P2l13XbFVcp1i2rgrsE1aPAkVRUiF21ZYGI3Y7n8oRX9wIeW+uVx67Uf/1tf+ydU2WeleQArDJDXj14RTdm3SPsnPS9TfOBklOYE3dxTt8rZjXknX19GBGF+OhQbtdFiDVsnW9rpa9AiiDkgoxByf2y9RPuxY8GBvb3muPs7kWdhPF+XNF6WYH1FLQK+dLTZOl375xrgOl0PXquWGb/TJ1bTY0ze1jJckJbGZmchSqOQHrwYntJkSplq2Lkhr01gIYnNgvU89uSRkqU9ju6o+wnzD1ptc8OOBcBHKn69TzHmG/m3rTZLoyhCQnsJmylqx77tAGJGa+CVGqZevhHqE+fwDGOzixX6Z+yGZDwLNxxE1j1YNfUixbF21myGQpkC9dn7pOPdkvUz/NabOhPpKcwGbBjwYHw5eyXFz4vGEqOTE+tjOKSjKk6GOmJX8Kfmg5AYxzcGK/TF2bDZ3z5QEvxvrTxnITohTL1oXJUiBPui69iyjUWuf01PKIWa8MIckJbBE2mAUfsSlRQoCDcQ1ONJKwazaTctm6lv2dk5MARjc4UULk82frwcghXx6wNtvrJUUcwWQpkB9dj7ouPTca0jJ1+8KnrFeGkOQENscu60DGzKswVE2VYrmZqOUEmwgA4xqc2CdEstv5FImww/q6ccS8sdyESEtEjxK0rtNkKTuuA/nQ9ejdu9i+9c1F7itDSHICmwc+NkvW6csJRH2kmx4t1XKzEJyw4zqQlhKcHoMTJUJse2ZlufMpEomd5Cx4d/Un4gi7zICWiqZIOLLjOpAH753URa1vbNvk6Z54lPtHTZIT2M7wDKVmVDyCHSU5WaqCkemqMEybz9xXRf9ItDJDQQq7pQLp6BqMPTjR5Kdtzyw55MuDm/J3V+/HET/MB/Op4ghNln79yvkJpKLrz7tthYoz7FeiTUtYGUKSE9hyKGI2oPFANSfGSU92u2Xrt7fp+nMKu6UCaaj6Iva1r8SH/Wt86foUA9hCe/20D97GbgewlH2+VSXOZCngT9edd7uKEFPYLlPXBoYnJXzkJDmB7YIemyXrXstWSHJivNep7WhCSz5i76r8HHZLBXwdH/skJVThZTsYYZk6YEM3ALuLU3HESaI8geIXEp2AH11vKcYN9q1vitrAkCQnsL358CHItU8TeJKcGKkoy9YVOKTqz6l+Z5ocIdEJ+AxOPDYd02tcXlof9ZAvEDCJIxSo294IPn9OF0ewKgTwsbeXJsGp1zw7M49UStrAkCQnsD2bteYe1ZzqkURfToyXBid2y9ZVbZWyPyeJTiA+r+oLXcva2MwWy9TxuCtOi210SzRtZyJSxhGsCgHi0vWVIsGpe/zHj9ZHvShlmXpAkhPYPuC5aX8NrwOnLycQ+1rVKGLf9KCp+3Mq0angickLwJ5XglMrOfb3rY/KMnU8zSOpNvy5lGuZoR76dsvWU8YRTJYC8ei60vWl68z7/m4fUxS1TD0gyQkMMx9+hLnPOyXJiRHrqppsy6XUV8tjKetTVKGt+weJTsCOV4IzDEZs+3AWORhBZSraYX0ljrhprJetp+zPqQTM//4v5ytgKVWCUxRT3N5aH/WwKxYpCklOYJjhIyENcDyWD5HkxMh11U2mXbjvl5l6TVQ8NZgk0QnY8NwgwH5TAJmyTB2IGkcoI3lhetCU/Tn/3//jSwWspExwKqaw7+192t7zzkv8KkhyAsOCHUUlw8swPJasVzqzDmxov7FcbnZ/xP20fc5IdALDeSY442wKcFlazyygUIdR4gjv/pxaiWJf9QWMU8oEp2KK01Pro2oWdlrq10GSExhuPvwIc593ym6KGLluudmR6UFVja2+Wj8SruYg0QlszzPBqevUflMAJVz2+SIBlzjih3kcoWSj57J1xSsnzIkAJlImOFVkcXQU48hFLlMPSHICww0vw7QvL38cS9YBDVBm7S/bMiotO025EZGQ6AQ255ngjLPRkOyXPBiBo5TtVepiG1C/eRMrUfE4vZZtP2BgnFImODVZobG9/bX8ufTWNyQ5AYOQsZjAkyXrwM8Qv/2xXaelDQQ8BylPXeOa1WXHVOBlngnOOBsNiXpmzfkykQ2Dwf5kMtnN9c9r39uh7h6mB9V9yCtJovGGfbsMYHzqTHBe1ND6hiQnMFC3/HV4ssQjyUklJxCuW1U92ZdUqSeOV9LkKTs7y/sJiU7gaZ4JTlGlt/1GQ9ftveyILxNZqXhCfTKZ6I+zTQB8+uQbnx9xywAG29tLl+AM17F9TKF8xmENXw9JTsDG8CXrHhuX6EasJTEAwsZh5s3x7vvtpV4SqGudRCfwuONj/wTnxYX1UenDCTiaTCbKZujGYdcTRjG5NgDyoj6c9okRYFw0SapNg1MmOONUY1fT+oYkJ2BjPvwIc593ypJ14Kco/Tnvw4TEO65LSHQeHPBFA8G3b75JhTg7qctht5IEgNPV3P7Yzhx6LlPX8lbPex9QI+9VII/dM+x3UpePpffh7CPJCdiYDz6Cemp4JEVIcgKrtHbLtrRB17OWn/1IPCGqwZMCIhKdGDttyKUEp+cGYbr27HdSF/XhPOdLBXxMJpNp+2vP9KCqKPdcpq57H5sNAdtTDJE6wRknpjjrij6qQZITMNCVdg/vy+mR5KQvJ/DY9dtG/41t9J9LojMERl+/8mVjnJTgVFWzZ4JTz/M4g5FL+nBi+7Pnks9gQ5PJRG0hjk0PqlYynlWVuv/Zt8wAxhNDeE+SPhZTxOmnqyKP6mIKkpyAYQhhcgOLTZuSAHigW6JhH72o91UuEwsKjhSkvXrFF47xUDJBz1bPVQx6vTjXvSZT6cOJvNnEmVk8OLuNhmamB9Uz2LMaTBOtKZMzQMlSTJI+FVPYV2Lf9/aupQ9nH0lOwM7c5CZWRvAJVKdb/vnF/MBKdOYywND7ULBGohNj8P798nz3fO7d3DAYwbhVEmd2Gw0pLrB9YKqC03PSRZsN3d5yXgKbSjFJ+lhuIE5M0XQxxU2NXx1JTsDwNjT4CF7LiDTwA/CL9mHfjj4a+zVd2ngkl0SngjUlYth5HTX79GmZ4PTc/VQVU9p0LM5g5KimTQGAnHUJzvYG0rwxPfDeXqwlp0+MTNpbxpcvfKHANteq9yTpYzFFvF662mhoXuvXR5ITMNINPobfhajmBFJrIwrjjYgkp0QnO6+jZmrLoOol78GIqi2ur2Mc/bS2TQGAzOl6s50JfPPGf9MSlqkDm9OmYOfnvpOkvjHFWe0xBUlOwNbwDCVJTiCpbjmo+t7ZT50q0XmUSX/vsPM6GxKhFkoifP/uP7CPOxi5YKMhmJ+veNJkMtHgf8/8wN5JEy2Lj3NPAuqkVk5//um7KZh/THHdxhSHtX+VJDkBW/PBR9Ay0tjYYR14VtejJs6FcnrqX83xHCVd//qLPp0om9qwpOidFXkw0sTYEA3jdkXXg6d0CU77JQ6aTPS8N2kswTJ1YH1q4aQVTvuJ9/aLH1OMIglAkhMwDh0HH0E32Nio5ARe1LWg+Bjl4B8/5pXoVEClQRH9elEiLS3z7r8ZfzDCRkMoU6G7q0dLcHr34ZTUiRqgJGrdpBgi5QZDPjHF4VhiCpKcgK3hSU6PSk6SnMBaup41p1EOnluiM/TpVMIIKIGqj1WFnGJpWfzByG6tu56icgXGmNESnKoO837Os0wdWD+GUA9vXaMp+2/GjymaLqYYTRk/SU7AkMmA5PbW582+ecMXBqx3XasE4yzKwXNLdIYBkhJH3COQM1VHaVIwRfuV+IMRdlIHnERLcCqB4p08YTd1YD1heXoOm3PFjyk+ji2mIMkJ2LscfASWrANZ6Zp0x4k+ckx0KtjSYGlvjy8feVHiQP3tUu186jMYmfFFA/FFS3CKnuvey1/ZTR142adPaXp4p4kpPo8xpiDJCdi7MbnhxUaSE9hUG4VETHSm3s1xlRJISiRpKQ+bEiEHofLiKNFm4/EHI2ckOBE/Sr0Z/UcwmUxetz/tAy5SglMTMd59MVmmDjxPK5S0UunkJI/34xNTnIzxqybJCUQIHwcfwWPnS5KcwEa6Zt1tNHLfL8+elpjlWIWh96R7EpsSISX1ik1ZeeEzGDnki0b8KPVm1H/+ZDJRADxvf+IsVdAmJt4TMZr8YZk68LRQvZmixQ0xhTuSnECEUKOIADR1g2WgQNETnWdneSY6NSmiQZSqU6jqhCdVb37/nrbSOf5g5JoEJ6oyvKdzlFm1yWSi57cqCd5Gu195t5/R/Yll6sDT96JQvZnL2FfJVsXVxBTRkOQEIoQbg4/gkeTMoQ8JUKCuebcGSuNKdIqqU+jVCS+pqzfDYESvH3Ew0t1PUilrxpOl1mXIcLXQZDKZtr/+an/izNSFdhreFC94bVoKlCS36s0QU+j93N3FeoXUMUUWSHICxkx2L/PoyQlg6HUeL4hQolOJlRzvBRq8qlfnn39S1Yk41Brh77/T96kNg5F4CYT7wUhXIZ7K8AyyZxKaJCc2NJlM3rU/emYfR3uRFDupi6rTLi7K/XL+5384QWFPEw65VW+KJkEcEpyJY4oskOQE4hh29/JoHE4lJzBIl+j8GO0FdB9QMJTrpIc2VVDCQTPlgFWiQBtdaSCQuhJMiXwGI+uh/Q0ypN6b3e7p35tYy9PDfUv3LO+4WpMwuW1YuKn/+79lxT4TprC6FsMKkJyqN0WTIB8+EFM4+Q8fARAn9Ggi9RNiUALkQzsht4Mo/eO3OCHL9XLgpIRLjhMTuo9oplzL5bSU/fKSkwLbUbJcA/Ycnk0ajHz8GPMVNMrZZzCCNBHqVRFvs1tevi09MOP3VUmV4Ax9OOMlTPzovh9iiJKrUpGW2igpHs1xY12d43E3BiPBuYIkJ5BzEEq1JZC96IlOLZXVjHSoLMuR7lUa6Ck5pGCO/mBYl5am67zJZWCigfbpacxXuOsGIzd8+UiinJZIx9m/QyVVUsTquk95rPryEtrgKI6o7W9DXFqarusw1/hYCXy1oIobUxyS4HyI5epAHPMiglCWhwAmlOhsYi5dV7WGlrl479q6TTCnCRqWn+ElYcfTHJamh2euzl+fBOcVJwCqlmM1lTW11kixSaASOnGTJukoUaUYQp+tnhHAczGEzpMcl6aHmEITIPETnMQUjyDJCYwZlaKAmeiJTtESWlU55EzLjVXNSb9OPDcw0fmRy8BEgxG9l3EORnaLOn/YeKgMtSc5UyU4ldD5/Ln+84cJUzyl33czxTW47nWqMXbcimQSnM8gyQnkih3WgeK4JDpVaaZNf3K/R4R+ndol++CAk4OBSZ4DE70fJWQYjGzPM1lNKwyklirBGSZjxqI/YUqyEyGG0PmQS//ux4TWUnGfVSQ4X0CSE4g0bDIZeAEojkuiU835w7Ku3CmBpGX2JDsZmOQ2MNF5GXcHdQYjQE33MrXYSDVJE/9elad+spMYYpz0veee3BS9vz/+iH2dakZ2h5jieSQ5gTgowwRGzCXRqcqzsCFRCUh2ji8hkHPVhdo+qP1D3MGISjlyT3C+L+acYqm6jctLPoNt7mfqH5yqklKJ1Ro349lkolbPEMUQ//xDZeeYYgh93/rec05uqspaK6zi7qB+H/k37KK+FpKcAABE4JLoVIJGs8ZKIpViNdnJQKUu/Z6bOSY3w2YAcTcYCoORd9VXW7x3zJGS5EQK2r1ZCc5Ufexr3mhom7Y7LGOvWynL0oOw8ZFWWMWPKUhwrokkJwAAkXSJzg/NcslqPJo9VpBVUi/fkOwMAxV2Ui2bkl0huamqoxwHJmEn9/gVUUUMRiaTCbsPIo5aNrbUfS1lglPPyDFsNLSNfrKT3djLFyZIFceWkNwM16dib2KK7JDkBAAgojYomTfLHYzjJjq1BFEJHA3ISh6ovH/PSVMSVeN+/74873Ld6VR0jn344NHTrqTByPBRpOcu2qXd28ashATFSz59Wp5zqf4WVYiprQZePtf07FEMoZ6pe3t8JiXR96XvLUyQlkCJWL3X+C1v5KIhwbkxkpwAAETWLVndbWInOhVsKZFT0vL1PgWNGlQqacZS9nyp4uLr1397ZeVctRV2JI7fK0vOChuM7A4+gmeSE/Cg586ffy6XiacSlsCOcaOhQXe03WWfcrXDYYVI3jGEvh99T2E38lKEa9OnhcRZG0/sk+DcHElOAAAcdIlOZYPi7x5Q4vL1PiXNwlJ2qjvzGfgr8RwqLlRhlHu1lgZPSsL5bLSiwchhYYMRKjnH6gdj5kfpWaMkhjYRSfnd6PVJcA67L4UVIkpYU92ZB30P+j5Cv83SJsk08fH7716bgJ0qpuCk2Q5JTgAAnLQBSxvZ3VdPxY+QwvL1UnZff0xYhqbkhmb8VT1IZYb/oCT02gz9p3KnJIGSsNqUyydR8KXQwcjwElwqOct0dcVn0KdJHD1fQt/elPcu3WNvb/lOrChhrDhIKw/0HWsjKfjR5x1Wfuh7SDmBMPS69OuP+7GNKehVMQBJTgAAHHWVXm201MRf6xJ2X1eisPTKHQ08lbhSsk3L2dUvjYRnHCGxGQYluW4k9JiwlCz+7un9wci01Ktq8BE8WxX4VORibFShnkP/y5BI8akSy4NnXKJnmL5jfddh0pSEZxwhsanPOVxbpfbp9V0RolnZP7pNSzEASU4AAJwp0dlVfvlkYtQ7SMmIWpZ76m/RsqGQ8GSwMoyqmEpObAZa/ua3lEyDkQ+lDkYmk4m+3OGzBF7nCMury7tH505L09V+QxXqqSuSx5jglFQVxWHStJ/wZEn7MPr8VhObJVf6h7YRfitC9CLq6X3OyTTcf/gIAABIQ8tRJpOJovxv0V9My9+0KZEqIJUMqmH32zCY1o8CagWlStApmavf9DR7mpLCGlTrp8TlY6sDZSVl/RIEWku63/XZLfbKGXwEz165LK8uS87PF1Vu6n6RU+sN3/sX+kLCM8QQIX7Qb9oGPE0raUL8oN+1xJQSJnr9Ykhd/OygbogkJ5Dr4AHAKKgSbDKZ3Cisan/ibyeuZbwK4Erpr7jpwFqBqX5EiRENVMLPmJOeYUASfmrppaiEvc/O6bUNRsrqx0mSE9tSpXpIxugnt2SMnlcXF3xPucQQ4TwRrRbpxxBjTnrWGkP0Kcntfz2qddURCU5bJDmBSI/JwUeoLfkA4EltcDOfTCZKOijRGX/ddajqVEWLln3XNAPf16/yFCVKQuJTv2utnNGgXn+3niPhd23fsb5DDUZ8B51nFe12WlaSU8kGlPV5ail40kj8dd7L5se6RL0kusf1J05D0jPEEjX3CValfoihak1q9ikW1qSp72T4l4J7emeNJCcAABnQzuuTyaSNJJtZ++PTHEq9OlXVqeAuBPE1CwF7/2/VgEUDlzBo0U9JFZ9adq7BfEho6qfmwUjYOf3szPuVP1a2GcDw7I/nZCyVnLY8kpxM1j9/HyPBWZ6Q9Fy9N+knJED1u6SKT1Vo6u8KicwQR4xF6B/qm7BWkHlI/814SHICY8ZOpUBWuuUq+5PJZNr+PvYJtdpY6+PH5fJ1JTvfjazbxlMDcQ1WNBANgxf96N+9B6WhKrP/XkNl5ti+K52jGoz4JqHDZgC1ZdmGV4x7nn8kOVELEpx1eSop2I8hwu9UY6/QP1nvM8QOYXJ0zNehYl7fdjeiC/+wwpgiKyQ5gUjDZj4CpKSdc+nvUi4tX+k2JJo1Hn06Q+Ctnalr25ho67t4dxt/alOekPgMwfJzSZjwv31uQLGatAyDECwHizon/QeHVW4G0FWMD6Pku9f5qWuHTcRQA/9N0lBCDBGec08JMcZLcUE/xlBVZu1LzLelCVPFFP4Vt/TfdEKSE8j94YjxsRk4Klsy58Msl5axuPbpDLQxUajqHMMS9m2tDiBK36E8RxoAaiDivzT9/kpor8GjSj/Z4SWYnlWc9ONEDZSkUmxPwp5r+7EYgnFffOkmTOVzG1Oc8CX4+C8+AiCK/MtvfjCJNFish6TN4HGHL6h86tPZ/uiEOHV94bCEXefic9UFQKznkwYiOv/8E5zKQPxRcYLzfjg9/AiOA3LuQSidJg61UoIE50Nj3q0cfpRM16S9Ntz0T3DqJP+dBKcvkpxAHG+zf4f0t6rdDh9BPbqEyx/NMgHjR0vqFBQqoUE1FbySAUpuqk+Wf0JAa0jfjWAzgLIqOYlX7JE49qM+wpo0BOArTJj+9luqFSEXXUzBQ8wZSU4gR6FBNMbJpkJmlw+yLl3iRZkF/2ZemvlWkKiZcJKdiEHJTS3dUzIgTXWPlqdrMFL1CT6ZTNoPuXmTyXNqPSTkUKKwwdDpKZ8F4H3tKbmpmMJ/YyHRDK2Wp+/TfzMNkpyA/QBit4g3SqIi38GXXU9OVKa3fD1J1HY/E06yE9b3UFUFpktuajDyofLl6X3DY5Q3b9h0CHjpvqYES5ref8A4rSY30zw7woaFLE9PiCQnYG945O+xDIwERb5svv9X3aY1qJB2X29/fWiWvX78keyERRJAVU5qh5Bup2EtJdtpr6f5iD753eFH2PV7tyxVR2mUZNF9jeQ84COP5KaEFSE8uBIjyQnYG55Yev2aT7EUsQZgNi0LDvmC6tUlZnS/uUj2Jkh2YlOh52aaDQACjYA+jnQp2e7wKMdx/oyl6igpHgz9hAHEl09yUwUHY1oRkj2SnIC9nSIGEAwc7B6wMdicA/t8QXVTgkaJmibFpkR9/WQnlVd4TL/nZrrKTVFmVZUWs7F9BUX24+R+UlbsMlZKtGj39LT3NmAcNKmeR3JTTruYgoF1RkhyAvZ2Bh+BSs5yxEoW2yQ537BkfRy6TYl077lI+kaU7NRAT0mQ83O+mLELVRZ6pqXruRmEjQB2a99c6Bm7g4/w6pVvJSc9DeMgGWcXA1K9mWccjfpo0kuT6ZpUT5/c/Fm9yeZC+SHJCdgbvs7Yo0qCgYPdID7KUNTsHGDpxEhkU9UZ7i9//LGcZVcFH1VD4xyI/Pd/5zAQuT8jm2Wlxdg3Ahj+YGFXdWBZSaZ7XNqewsA4KI7Us0eT6JpMT4/qzcyR5AQMdUvBhlGVBMoRK7hVcujtW4sj7bfnJaXBI9Kr6jxN/mZUuacKPp3PLGWvmxLZod9mPgMRZVf/GHn15oPnweAjkOTE2O9zR0fLSrI87nFAncKS9LASJI/iHA36qN4sAElOwNbwNVz04yxPrM/TZjCprDnVnCPTVXXqe0+3A3ufKvnCUnbd46jurEeo2syj32afMhA7XdJ/9LrWJcNnUUlyYoyUcFFyU/e501M+DyAWxYf7+7ksSf8ZxbY/X7qd03kwFYAkJ2CrjCQnyQX74DcGJQ5sHFHNOU4KxtqfHQVnTeol7IGSYP3qTnp3lnnPOzl5WLWZx0Dk/gxrlpUWh1RaPLA7+Aj048TYKNEeegAquZnPfQ6ohyZLNYkQqjYvLnJ6d3ozSm5O+aLKQZITyG0Q4TGAYMmofRAcg86FN28sjqTqHR7OI9YFZ++a1BsT9YXqztC7UwEu96Z8heXoocLi8+fcetGFjYWotHgcS9XxUKwJ2ho+F03i6LmknpssSwfiXGdhh3RNluY3iRA2Ftqn3U15/sNHAJganqHUzZ7AtiwxEzOqILDZtfPTZDKZtQ9qskgj1QVp6tG62/6etT9vsnlz6t2pAFc/SuwrkaZz37NqDL9SYlOVtvrJq7JilbIQ9Mh6QlfJX8amiAFJTp9Y0CPmLCWOC/c6NhIC4l1nurdrwjTf60yZ1hMqNwuPe9ovkE8BsBlEaDT+3SATEf/NaqDCMjBb//yzXGYRYxCiqikb16py4stCd89Sz04FcfnudhYSnrpn7e/zpXnQPUcDfQ1E8k5sih5kR0zevHitH7a/vg0+0N9/+yXFiFPi++sv38R1LpRo0X0uJFz0m2Xo6Xz7Ztme6XFaKaJJO53v+iG570fXWJhAuL3N/d0yYVpL3EOSE8hoEKHdtD2Wa04mfGHW/vwzXhJGx7VLNnxhdhK9+5Yy80p2Hmf/ZtUPMCQ7GaTEGYTodxlVTLfdQISGrutd57P218Ggg2jCwXMVCHFKfIo5X4+oXTdJ8zwdHy+XLce0Ommi+1lIeBJP2NJzoh9TlDGBwIRpZViuDhg+QgcfgX6cZScJYiU5NQNtl+Q8bge85zzIId1s9bRLgmiUcZDtm1WgrOsgXAsMUobdr8JPWQP/u24gMuNL3Mjwh5NnJTWbkflgWTbGShWF6rUa+q0ST2xPFbL9mKKs+4oCoCl9vOtDkhOwszv8CLvx3yX9OOMNytSoPsqZtbusuLALHM7VXoHlGAi6fp2H7Xmhk1g/77N/088NUjRhRD/PfwcgYVlmeUnN4K47L0+4b22mvaaVnRzekoJ+nABq9VQ8oTgi/MaS4ol+q4cyJ0u0GmTKhGm9SHICNoOIncZiEw8qOcsOkGI28Vc158ePVkfTuapSmV2+OPR1Fb673eZE06aEZOdTgxR5//7fhOcYEp/9hGYYiOTfA+s5JDeHs7nPU8kJYEwx/djjiTBmrKt/LcnNkSDJCdgYHv2r35zHA5MKibgDMyUjY1BTdu1GaFeF9b7bbf2QLw6ruqU7ZSY7+3S9rF4zqorWZEQYpKgnXWmbb2jQEQYe4Xddm2eQ3MwpPtnb8z23y07MA8iNnvlD4+da4wnpxxIhvqirhy3JzZEhyQnYGP5E83ooUskZj5KQsZKcosbsHz5YHvFgMpk0JDrxlGqSnX1aWqWf1T63YaJJg5Qw4RTuy/3/LLZQjSlhsBH+M/2uu48eyU1DakvSWKwyoYoTQMlirbLaJp7Qe/Hs+RniCAmFLiGeqGty9DEkN0eKJCdgY3iZg1c/zrofZmkp0Im5ZF3niCpq7DYhEiU65wQAeE4v2amTe9rkvEHRtnRvDJUL4Rr78uXx/+37R3K9YUCzyYCj/5+Nu3pNf7ySmzOSm6YOzZ49XlhtAmAs8cRjq/g2TYI+FlPUn7x8CRsKjRxJTmCgrql/GYMIBg/xxVyyLtrcSN+jbfDyrT2PX7fBwAlfIJ7T26Bo2v7WiX7YWGxqUlz4fLnef4aXqCz1hEmWaIbHJ2E5phfbSTwAuRvzCrN+MpRYwoKaqM5IbuK/+AiADAYR2sWPTYfqcBI5T6jBppat2/uqHp18gViHkp3tj5Kc7QnZfG6WlXjAJgORD+059I4EZxxmS9XVD9oLS9WB8flB8T4GUdWHymR/U/stEpwQkpzAcMOTnF5LwajkjE9LTmN/zqoUVXWNvQMSndiElharArj92Wn/9Y/2hzIsMBDJw6FNhEM/TgBAdrQS5GMbS2gl2rRbaQTcI8kJDNAtVR++VNNjEFH/hhX50AZEHoPBV1FWCd/36NTydb5IbKINMM/bH93Mfmt/TptlUgu4ZCCShM0qE8+l6kzEAgCeprhSK0F+ZyUInkOSE0g9iBD6cdbl7Cz+8hsNPOMtjdeuKlfdckdgI2Epu5JaDdWdY6X2BaFqc5eBiK8id1VXO51bul4AAH5xP1mq0U+3EoT+a3gWSU5g4BBg8BG0S+9rh6I5kpy+Thz28FGvtINom1xrgKyKzkO+TGyrV935382ydyfl5PUKFRbqtblD1WZSNvdtz36cHisgAIyTV1swWPplslQtkvhYsA6SnMCWuuRPGUvVhSSnrxOnjco1MIzTn7Ppzm/tvD5j+TqG6PXuVIVZWM5O2VYdVKkblqPTazMPh4OP4LUhYkA/TgAYu9suPvydyVIMQZIT2J5NdpJ+nHW6u/OrTFECO05/zkDlonOWr8NCbzn7jgLZhoRncXe3pktstj//rUpdlqPno6he4cHNDUvVgbFid/WxW01sHrEcHUOR5AS2G0RocL43+ECqwPNo6k+FRBrTqc/rqN1B/ESnykW/t+f+lC8WVhTI9hKeqvBkSXu+gxAtRf+jq9jcZ+lYtmyyk55L1YlRgPGiCGOU33qzXIpOYhNRkOQEtgz/ixpEsFQ9UVrg1q+aU8sKfQaKx5PJhE2JYK6r8AxL2tXDU5WCSqyxS3segxAtRScblbGurYjNruqeS9XpxwkANeuvAPmt2xl9SmIT0eKh9uTiUwA2H0jcNBY7l/79t08lpyr97sgTJKHBonaNfe3U0lKDxY8fvf46LS+ZUs0Fh3uuMi67zTKB855PJAolNefhh+u6yOvksP31bfCBvn5tmqMjnzetpeq//caXB4xZ7HyEij0+fOBz9nXZxRPnJDPh7T98BMDGgwgNsocnOLWrukeCUwk2EpzpqJpTmxB5LV0P1cE+ic5P7c9+e00cUeGFuOOf+wBZPyfdfXi3/RUSn/p5xae0MZKa9Tk0OYpnP06WqgNA6e66GC3EE3M+EqREJSew6UUzmejGPbyS6Ns3n+XqqsY4PeWLS0m9MlWt8tpxg3Lfik7RjC09dZDqvrzTLJOd77ofqj0fuu0NQK4YgFR7Dfw9+EDqFX7leBvXsnh68gHjFjsfoXva77/zOdvG/GHy+YrYH9nFRCQ5gQSDCM+kFwOIPBwc+Pcd8090inooagn7DV86Et+vQ8JT9+3d7vebEfzpYfBx05DQHNP5Pm1/HQ8+EEvVAXjzyEdMJkOPoMnC2cjiidsulpj3YgoSmsg/JiLJCWw0iNDD7WDwgbwSXgwg8vLXX21otOv7mupDpKWH/i0L6NeJXO/jugg1wxQSoDsFDliUyNS1ddX7fcX1Nurz+sbkHP7nH79VB2rl8vkzXx4wdmUkOS/bZ+xuhfFEWGp+0/3cxxVMkKLomIgkJ7D2AEIPrb9NDuaV7GIAkRfvZYCBXlPnm3+iUy+oHoonJF9Q0H1+p/vXcJMOA5hA/xyjB6hK7sN1EhKXTW/g8YMKCjxx3upc/Wvwgfb2fHtkstIEgHz/vrwfxL1RDj3CL0nOLeKJ/n8mMVvrXPb+OcQRTfPv5OgNq65QKzYeAtZ3aHIU7bbtVc3nvTwaz9NgThsQeW1C1B9IqqpX553vgFKJIC2fPGqDPZKdyF4X8Iegf77lYOYlJCuRZ3ziueGQnkkkOAHcPxXrCw0HxBO7W7zWnJMI6F1HVHICaz1wXncPquHVO14bDrFUPV8eM9ZPBZHqtXZ2lvKvp2cnANjGJ/8MPpB6hXsmGtgUEUDgscLNuZITQDr/xUcArBeONxYJTg0ivColPJecYTMeSe7HqM+aqnu1sUQ66mn7t/rbbjNbDQB4wCao8KziJEYBAACRkOQEXtBVSdhsNapBhGdDf+RJS/S8dq99jF5b1aRvkvZFV7Lzr/b6mrc/h5wUALDdHd3sueBFfaJvb/nmAJTkNR8BUAaSnMB6AwibTSa8ejEygMiflumlrGTRcnmdJ9poIi01Xf+mnYHbn2k3qQAAeEF7v1Tfk7eDD6QJL88WKvQLB+Dt7eBb5Vs+RKAMJDmB5wcQdlWcSibt7DCAwL+0bF29U1NRVbESrVq+/upV6k9DZaXapIhkJwCsp7wqTmIUAKliXgCjQJITeN60sari9BxEMIAow93dsoVB6l0ldW6qqvP9+xw+lbAjO8lOAHhCd2+0aaTp2SdaE2t69gEAAERAkhN4egCx0/76ZHIwJY9i7xoYKMHJAKIcqftzBqoyns9zqeqUfrLziBMFAB7YbywmYbXKxLPCiQ2HAKxS/AkARkhyAk+b2h1p6veuGUCU5+wsn42iQlVn+l6dgQbxXyeTyVXXfw4AYLVU3bOKU6sW9LwDAACIhCQn8IjJZLLbLHd/Hk4N/b2qONXf8eKCL7BEnz/n02ZAVZ1Klv/5Z+od2PvU8P27lrBzsgAgRjHacGh/3++NMwkLAAAiI8kJPG5qd6Sp37umF2fZPn5cVlHmQoNfJc6Pj3NZwi7HXVXnDicMgJE6tDnKoe+7zmXFAgAAqBZJTmDFZDJR1G+zA4uqJDwHEQwgyqeq35wSnaJEvd7TwUEu70gVTEp07nPCABhZjKIGmjY3Y8/4RBNm6kENACkY9B6mbRJQBpKcwK+DB7tMoWfSkQ2H6qDvMMdEp5aw6xz7/j2nXdj/ZFMiACNjc89T32Xd170wCQsgpXcm+cnXfJBA/khyAg9NG4vdSkWJIM9eVwwg6pFrojMEidoF86+/ckl2alOiGScNgJE4tDnKoe+7ph8nAABwQJIT6HSN/D+ZHdCzF6eSTiwDq0vOiU7Re8sn2XlAohPACOIUzZwO3w0uxYZDt7d8gQAep3YWAGCEJCfwL7tSSCV9vHZUFzYcqlPuiU7JJ9lJohNA7WyWqntXcRKjAHgOSU4AhkhyAs19dcS0WW5mYsNz6bgCg7MzvsRalZDolDySnSQ6AdQap+w0VpsieiY5f/xomosLvkAAAOCCJCcYOCwHDsdmB9QO1O8cN9/zXBaPNEpJdEpIdmqDojS7sR+wGRGACtk87HVf9txwiCpOAADgiCQn0IbgZkd69cq3ilMVElRxjoMSnb//Xs6AUYl+vde//26a4+PlteHna9djFwCK197PtKOvzayR91J1NkUEUA92VwcKQJITYx84qOLLbm3tUXu4147PPwYP4/PxY1nfuyqGVG2shPy3b03z9q3XK593iQEAKJ1Ndbo2HPLsF66qfjYcApADm1V27/gggfyR5MRoTSYTPai+mh1QgwfPpeNKGpHkHKfPn/2rcSzoPWvJvU/fTpWOzjhZAFTAJsnp3d6GpeoAcvGaeW9gLEhyYsxso2/vYF4JTi1hxjipTYFmpZXsLk1/k6K4lZ17k8lkn5MFQKnae9hhs5y0GUYtQ/Ydb4e00wEAAAmQ5MRYBw0qgbTLruzt+S4Bo4oTcn29XA5ewoZEjwmbKX39GrNn5wnL1gEUbGpyFFXSe1YyUcUJYF2Xl3wGAMyQ5MTodBuSfDI7oJIzVHEilbAhUclJb/WyVbIzzhL2N43VUk8A8I9X3pjdZ73jFAAAAGckOTG2AYPKGM5ND6oeV57VEVRx4jHq06mliCUuXxdVpGoJu3Zit3dENSeAAk1NjqLVJrrHemHDIQAAkAhJToyNEpx262JVeeZdHaHXo4oTj7m4WPbp1ACz2CH9dLkLu+3ydR2Mak4AxeiqOG3K273jFJaqAwCAREhyYkwDhqnZgCFVIH9zQyN/PE/VMx8++A9qLal3nBK1tolOqjkBlMTmJq7N3bx7hhOnAKjTDh8BkD+SnBiFbodl23WwWlbrufxLVOUGrOP0dFnVWeqmRKEi1S7RSTUngFJiFgUXeyYHoxcnAFhN9uzwQQIFxFGLxYJPAbUPFt61v+aN5TJ1VUZ4J4+U8FGFHrApJeRLTZCfnzfNH39YHU19Hnba594PTgoAGccts/bXweADvXmzXAHiSZO/9OMEsCmPnMRkMvQIl20MucuXBeSNSk7UPlDQ8lQNFuwSnCl2UxeqOLGtL1/+3dinNNpMyW4zIqo5AeQet7Q3a4MEp6j1hydNSpHgBLAN7wkZANUiyYnazdqft6ZHVLJRS2m9Bw6Xl3yb2F6/V2dpO7DrmlNFkg16cwLI+o5nchRNyLJUHUApSHICMEKSE9WaTCaKtvdMD5piN3UlpI4oPoMR9epUVWdpu9/aDZ5VzXnIiQAgw7ilvTkbVnG+dpzPUYKCyVgAAJAYSU7UOlBoo/vmk+lBVRWhikpvSu6w/AuW7u6a5uPHZRP2Upawa9m6YTUnJwGADE3NjuQ9OUpLHQAAkAGSnKhOl+D8Zn5gVb69dl7lqsoIln8hFlXdaAm7Kn5KWCZkN4h+090nACCX2GWnsariPDhYVux70YqTFJPAAAAAK0hyorZBgppl2mcFP31aVpJ5UyWGqu6AmM7Omua335ZJxJz7dSoZSzUngDpN7Y409X3nmgQmVgGQu+Ex5Hs+RCB/JDlRjS7BOW8sd1KXt2/TVFOqKuLigi8WfsIu7DknO+0G72+7ewYApI5f2htvoVWcwooTACXwvjcCSIIkJ2oZIMRJcKbqw8lmQ0hF1ThKdr57l+fmRLbVnId84QAyMDU7knfsoOcEfcMBAEAmSHKieNESnCF4TzHrp2o1Bg1ISeefNifKcSd2u2rOfb5oAIljmN3Gqorz/fvlBJWnHCfDAJTn6orPAIAJkpwofXAQL8F5fJymD6ce8qenfLnIQz/ZqSWJOSxjt6vmfMOSdQCJTe2ONPV95/P5cgM7ABgq557wAIpCkhPFiprg3NvzHywESuAAuVGy8/PnfHp22l2fu3y5ABLFMbr/2GxkoSrOXefbGVWcAAAgMyQ5UerAIF6CUxsNpQrclbi5vuYLRr5Cz04lO5WQv7lJ8z702q9MLv9dvlQAidjt2OM9Mat7/9kZ3yAAAMgKSU4UJ2qCU0kTJThfv/b/w7RMXckjoARKdmqA+9tvy7YOWrbozabqeZcvE0CCWEY3sLcmB0tRxZlqtQsApL137/ApAHkjyYkSBwXfmxgJTlGi5l2iFn0sU0epLi6a5sOHZXWnZ7LT5pp5RcAKwDmW0UxquVWcaldCFSeA0thMBhEzApkjyYmSBgVH7a9v0V7g27d0CU6WqaMG6tvpmazX9WqzAREBKwBPimdsJmsPDvyrOE9O+AYBAECWSHKiCJPJZNb++hrtBb5+TVdJyTJ11ESJTs+etjaD+12+OABO8cxO++vY7IApqjhJcgKIcW8BAAMkOZH7YOB1+3PV/uNBtBdRFcTRUboHOsvUURvPQXeq6msA2M7MNH5RmxBPSnCqJzMAWFLRBwAYIMmJbHUbDN00Vo35nxogpNpJXVimjhp5VnPaJDl3+dIAOMQ1++2v96YxhDeqOAEAQMZIciLXgYBKK+NtMCSpE5zn501zesqXjTp5Db6p5ARQRlxju9nQ8bF/FadiJqo4AQBAxkhyIrtBQPtz3sTsvylv36ZNcN7csEwddfOq5nz9ms8aQAmm7Y/JTmnNq1dp2uykqBwFAADYAElOZGMymew2y+Xpe1FfSAnO+TztH6sEJ9UQqH5Iz4AYALr2O59M763eEzyatNLkFQCUyua+yRIiIHMkOZFD8K/qTS3h+quJuTxdQoIzZfWXBieXl3zxqJ821lLVMgCM28zsSG/eUMUJANuwaXHEEiIgc//hI0BKXfWmgv830V8shwSn+nB++cIXj/ppOaWuN++ecQCQV5wzbSw3UEzRaocqTgAAUAgqOZEq6A+9N1W9GT/BqU2Grq7SJjjpw4kx0Q68bAoEYNyxjm6Cx2YHfP++aXZ3/f8QqjgBxKZxGgAYIMmJFEG/1lndNLF7bwapd1EXLdvd36cPJ8ZBu/56JfRT99cFgMdjHc2qnpselCpOALVijATACMvV4Rnw77e/1HvzjduL5pDgFPXPur7mJED9dM15Vv1oAmE4ygcAWLONdzR5lKL9B1WcAACgIFRyIjr13Wx/5u0//tl4Jji/fcsjwallu2dnnAion/re6nz3ZFPJ+YMvD4Bh3HPY/jowO2DKzYao4gQAAAWhkhMxg/xdhcjtz3vXF9aGJ0puanl4atpo6PNnTgbUTX3i1H9TA2Lvvrc2SU4qOQFYxT7qw2k726PJI+97q6rkvSetACB/7K4OZI4kJ2IE+DvNcsf09+4vHnZ0zmHDEzXQZqMh1EYVRbq+tPlF+J2KBuE2bSBu+GIBGMQ/r7v455XZQff20kzaKsFJjzwANbEZH7KrJpA5kpywDu6n7c+nJG9AS2WV4HydwQQbGw2hFqFKMyQ1U/SEe8q5zZ4ei8WCSk4AFhQDvTU7WliZkiKGoYoTQG1eU4QJjAFJTpjolqYrEn+T5A3kssFQGBwoIUQfK5QmpyrNddgMwi/54gEYxUG2k7wpWoCE12WSFgAAFIgkJywC+5MmVfWmqhyU6MhpWTg7qaMUqn7uJzRzqtJ8iaq2ba4zqjgBWLAtfVQVfYrNhm5umub0lG8TQJrYLvcJdgDZI8mJrXW9N7Ve9G2SN6AEjao332XUGkXJVnZSR440IdBPaJYeRKrSyCik5uQAMDAeOmxqWKYuKRKrAAAARkhyYtuA/l2XHHiV5A18+pRuGddT9H5IcCIXJVdpvkQz/Zcmq8zvFovFOScLgKERgOnRlOBMcc/WvfXigm8TAAAUiyQnNtZVLGhZln+CM1Q3pNhp9KUByZcvnBxIQ9dFv0Kz9qU+dpVGJDgBWMREdv3IU+2mbntvBQAASIIkJ7YJ5r8leXEF/kom5rYznt7Tx4+cHPCjKs3+BkE5tWyITRXTdj1vSXICGMouM6jN31ItU9fr0k8cQO1UGDBsY7V3fIhA3iaLxYJPAeudLKkSnLlWb4ZBAQlOxD7/+1Wa+ufcEv1etJTywwero2mp+mtOMAAD4qL2ptz8ZXbA79/TTFr9+LFcHs+O6gBS+uuv+KuRdPyBLY/a+HHClwXki0pOrBvIK+o+cX/hHHtvBiQ4EYMqefoJzXdMGN+7urKe6DjhQwUw0KHZkb59S3e/V5xFghMAAFSAJCde1O2iPm88e3BqOe7JSb69BUlwwsr79w83CHpNceEvVGV0eGg9CJ/xwQIYyGbmRe14dI9LQRNIp6d8kwDSu7nhMwAwGElOPGsymSjjor51PglOLc1VcjNVsL8OEpzYVqjS7PfTxBpphH3rXnFni8WCSBrAkPho3yQ2Ci15UmGzIQC5IMkJwABJTrxESzrfRn8VBfkKtPWTcyUbCU5sgirN4TThMbB30iOmfLAAsriPpIx7NKlsf38FAABIhiQnntRVKRxEf6GDg2U/KDW9zxkJTjxHVZqrGwRh+DV3dmZ91FOqOAEMjI9sJoA1wav4JwW1AUn12gAAAJGQ5MRTAbzKCmZRX6SU5KaQ4MQqVWn2l52XcB6X5Pw8xjWnpp6M6gEMiY80AfzJ5GApl4rb9zkGAABIjiQnnqIqhTh9ONVgX0ukSkkKaRBCU/5x61dpht+IRxthxOnLO10sFj/4gAFsYzKZqER/ZnbAVP3HNYl0ccEXCiAvxNcADJDkxGNBvJ4w9svUtSxLgXVJDzANQOyXyyJ3b98+XHZOlaYfJTj1udtXGF0uFosTPmAAA8waqwlgTfimeLZomXrOmzsCGCeNE0lyAjBAkhOPmZofUUt7leAsZeMVDQK0ozMN+ccTVPX7aSKNeAlOHZBRPYCtdcvU7TZiTPWs0eoUlqkDyI3XPfEHC3qA2pHkxGoQryfMe9ODqvemelqWQg8/PWivrzkhahSqNENSkyrNPMzny4mFOIPvQzYbAjDQvu3R9v3/Ak02szoFQJZ3WKd7IuM7oHokObFqanq00hKc8SrJkAJVmoXcddrbzpcvsY6u3dTP+ZABbKvrxWnXxkd9nr0n2FimDiDHOF3JTcXnHklOjfOGY5kfkDmSnOgH8e0TxrCKs7QEp94ry7jKpirN/gZB+kG+wgZD8WbVLxaLxREfNICBbPv5niRoD8xu6kDZUkyOxKL4XPck7zjdJskJIHMkOfEgBDY7khrql5TgZAf18mj2t1+hqX8upefr2N3cLKs34y6bvG7owwlgoK4Xp90E8KdP/kvVlVRlN3XAP0btU4JyNUn5WOz62P8ONtQayeAofJBA5rHbYrHgU4CCeD1h/zE5mGYaNVNWQsKJDYbKQZVm+dQPTpMf8QfbKlfaaZ9vdJcHMDQ+ulFkY3IwbcJoM8hen+Kx33/niwTW9ViCcrXd0eq/k5gsg76j29uhR/nYxpczPkwgX1RyIrArK1ASo4QEZ9yNTmAxGKRKs2waXOtH15oSnD7Xml5klwQngKEmk8lhY5XgVOLk3Lk9MH04MeYYMlD82E9avvTvqDcmHZ7gvD8SHyaQN5KcCGySnOrDWcLmLnE3OsGmVP3b3yCIYLM8GkyHhKZ+9M9pJhCOFosFASgAC4dmR1KC03uyLm7PYyCe1WrK1UrJ1clvNpbES2yq6O+IMYH8keREsGcSkKRopr8J9QJU0M/y9LRClWZIalKlWZ5+laZ+5zGQ/sISIgAWJpPJTmPVi1N9yr2TMLov04cTKZGoRE7oxwmMBklOhKb6w2nznpyTVaqiYHdRf1Rp1hMcpq/SfM7ZYrGY8kUBMLJrdiTFR2UO6IFfd/XuJyNfSlwCOcWxBkfhgwTyR5ITdoF8rn2fQk8qKhp8qEqzn9CkEXt5VPEckpn6nf9yx8vFYnHIFwfAkM3DK1UbH5KcWKUNHEMCcrUPZT85SY9K1MauLzw3VqAAJDkhwys5tRQrx2QW1ZtxaXa/n9BkqVGZ+hWa+l3W9XLdWG6cBgBLw7M8Wq6rHuApMLFbr/6mOquVlM9VWQJjZbPp2y39OIEykOQcua7n1PCdQ/czyzFQvRkvsKZKs2zlVWk+R2+endQBxDB8za2Wqad4TlLFWQYqKwGfMeHZmcmdlQ8TKANJTthkJ3NKcs5my4EF1ZvDqAKlX6FJlWaZ+gnN8qo0n3PGEnUAWUvRixP+nutZSbISSMtuU9w5HyZQBpKc2B18BFX35dBkXIkcDSjYOX07qijoJzWp0iyPqjT7O57Xey2cLhYLsgcA8sYGLGVZ3Q38uQQlE79A/lTFSZITGB2SnBgepaWu4tQDTD2vTk/5NjcJ5KnSLF+/SlO/b29r/4tVhnq4WCzO+fIBAE96bik4fSuBcdD40GYF03Ube97wgQJlIMk5YpPJRFHeq8EHSpkgY2n6+sE+VZplUzK/v0HQ+CqW9QcfEmQCwBpx2devTfP5c/l/y3PVlc9tugNg3BQr2xXAzPhAgXKQ5By34SWYq8GnFyV6tLFQ/ZVr238noUKzPyBAWcFZv1JzvOe6ZjCmi8XihJMCgKOb9uf94FglVeJNE8B69n/8mM8n2u9d+dxGO1RXAhgibEBrZ8aHCpSDJOe4DY+8vZeqa8CgpQf03fyXqjT7O57T1L7MYKyf0OT8DrQd5pTqTQAJDL/v3CS+dWmQr2ShYjXrFS/95eD9pORzyUsA8KBJnutrs1i0jUN/8KEC5SDJOVKTyUQR59vBB/KqUCC5uUSVZh2o0nyJLvSjNqi84qMAkMjwQe35uXU10XZxWqgofSrR+b5XsPpURSU7gwMogTYaOjuzPOKMDxUoy6QdRPIpjPGLX/bj/Gvwgf75J36STYmg338f5xelpV39XpoMMAocJv/4N5kZEpv0kH0KlZsAiJNiUFVpqCxlOTiAGmmvBtsWHZdtTLrLBwuUhUrO8Rp+w+4vVYpJiaGxUDVFP6lJlWZ5lMTsV2raLZeplT4g9ds8ZzkQgJzu5maDbi2dTI3EJoCa2Sc4my4+BVAYkpzjNbwk0GupupZ71YgqzfJRpbkNfUBzXdn6TdUmgBxp0mUymaiXyJthQ+STPJKcAFArtQWxXaIuquI858MFykOSc7yGlwh6bDqkJFItfThVpdnvp0mVZnm01K+f0KRKcx36kNoP7L4qiqQmgJLo3nUw6Ajquaye4voBANjG5UpwxhkrctMGCkVPzrF+8ZPJ8C/e49xRFecff5T3AatKs1+h6VX1CuPh7fzhBkFUab5EH9BVlxhQQnPORwKg4FhJs7l/Dj6QNg3UYJzJTQCwoSp5TR7Fic0v2hh2nw8ZKBOVnNjOmzc+r1NKP85+laZ+0/eqPKFKMyQ0qdJchz6kkNS8Yjd0AJWxCUI0CFe10TkrHwFgEPXeVHJTVfJxKGt6yAcNlIsk5whNJpPhpQReSbwcBwRUaVYydJ1Tpbl50PezSrNZJjXZKAhAtbq+nGr0djD4YBcXy5hmn+IgANiIYnUlN3UPjZfcDI6Ib4GykeQcp+E73HgkOVVZF/9B9jLtIt9PaFKlWR6dS/0dz2vp8xqXLr55Q5UmgHHTbOuByZFUzalnEHEEALwsftXmKi1Tn/HBA2UjyYnteAToKao41Tern9CkSrNM/QpN/c4hWZ4/ZX7bD+znBkHMYgMYPe2ua7LLumjFgCo59WyiPycAPB3HHx15t47Sff6QDx8oH0lO5MsjkUqVZvmo0tw2kGs/sJ8JTao0AeBp0/bnm8mRNGjX4F0VSgCAfymO1/3RP5ZXS6Z9JviBOpDkRL5U7fD9+/K3RSWeqjT7FZpUaZYbAPUrNanSXAdVmgCwJS1fnEwm08aimlPOzpa/SXQCwHL1nu6H6l2cxiET/kA9Ju0Fzacwti99Mtltf/016CDaTdxr5/MfP5azemFQsC5VafY3CHr3ji+/NPru+wlNqjTXoazvzw2CCNoAwCR2OmysqjmDb9+WfToBYIz8e24+5iN9OIHKYjaSnKMN1od98Z5Jzv6DUMnOx3bBXq3S1D/T76o8VGluQ5nfkNTUBkE3fCQAECV20v31jelBSXQCGBuN6fSTvniBBCdQY7xGknO0gfqwL15JxR8JVryq/6KWr+u1+wlNqjTLQ5XmNvpVmkpozvlIAMAtdmqDjoErYR7z6VPTnJzwAQMle67446XCkE0KRxQ/+27IUysSnECt8RpJztEG6jfN0GqEv/9mox6sT8nMfqUmAdo69CHNG6o0ASCX+EmD4gPzA2uFjBKdTNoCcSg5eHX1eHy6Wrjx1P+WBGMtSHACNcdqJDlHG6TPFVIPOghLrPBSIKmEZkhqPtZmAH36gHRdhs2B5nwkAJBd/KReODftz6soL3B8vOxRB+DXBORjycen/jOSkXg81t6lXz1QeaxGknO0QbrWRX0adJCDA3YGxb9BKFWamwpVmiGpecNHAgBFxFC7TYxl64E2TlR8RVUnSo4L+8lJtZu6WQlzVpdo67+nFzvixt1KcP7gowAqj9NIco42QD9qf30ddJBUfTmRXr9CU7+p0nwJVZoAUFccNW1/HUd9Eao6kcJLCcrHKifpq468fWljb26mwFhiNJKcow3OVR7wffCBWLJePwW2/YQmVZrr0IfU3yCIZTEAUF8spXv8+6gvQlUnNrWapFzn35msRp2UfT8iDgdGFp+R5Bx1cK4IZ1hPKTXK32RHQOSPKs1N6QMKCU39XLEUBgBGEUe97u77b6O+kFbOnJ83ze4uH/oYrFZKrlZSrv47SUpglfoeTNlcCBhpfEaSc9TBeRsxN3uDD/TXXwTepVKQ3N8giCrNdVClCQAIsdS77nnwKvqLsXy9HC8lKlerKVnuDVhQtl/7TpxQcACMODYjyTnqwPyw/fVt8IGo5ixHv0JTv2nwvo7LhipNAMDT8ZRfolPL109OmFz2jJuClxKXJCqBVFSAcELlJoD7uIwk56iD8p32198mB/v6tWmOjvhQc9Kv0tRvgu913DYPNwiiShMAsE5Mtd/++tPtBTXBrKpOkp0vW01OrlZR9hOZ7PANlEJVmzP9EK8DeBCTkeQcfVBus2Rd/aIUNO7s8KGmQpXmNkKVZkhqUqUJANg2pjpsLFbIbEKVndoAcn+//hjsuWTlY/8dfSqBWn1pWJIO4Kl4jCQnAblZQK5A+4qJNLdAv5/UpEpzHVRpAgDKiau2icNU2akfJTxz3pF9tXqyv+y7/9+RrATwr7NmuaHQDR8FgCdjMZKcMNllPTg4aJrZjA/VWr9CU7+p0lyHMr/9DYIIiAAAHnHVYbPc/OJVFm9Iyc/Xr5f/rOSnkqCq/rTQT1A+V2nJMnAA29Esh1YenlCgAGCtOIwkJ9pgfNr+OjY74KdPy6b42A5VmtvQyKmf0JzzkQAAEsZWfpsRbePNm2WspmXuwVPVlavJS+ISAPGxUzqA7WIwkpxoA3FN7/9jelASnevTwCEkNKnSXBdVmgCA3OMrJTpn7c9bPg0AWAvJTQDD4i+SnOgC8WljWc0pLF3/VaiGCAlNek2tG+y0H9bPXppzPhIAQEEx1lH7S3HWKz4NAHiUqjyU3JyR3AQwKO4iyYkuAFc15415AK4+UEp05tz8PqZ+laZ+X19zsr1MH9K8+TepecNHAgAoPM7aaZZVne/5NAAMVEvPiJuGDUEBWMdcJDnRC8CnjXU1p7x6tVy6btXkPmehQpMqzXVRpQkAGFOsRVUnUDZNxj9WaXjT/TQb/nf3/z2T+gBgFGuR5MRK8K1kU5zeUXt7y6rOsMNn6dSQv79BEFWa6waG7YdFlSYAYLSx1k5DVSfgEXOuJiNvml+TjT+6uHTVFcumAaDAOIskJ1YCb60r/x7tBbSbpxKdu7vlfTj9Ck39pkrzJXfNv5sDzQkWAQB4EHOp/9wnPgngp9XE5GMJyJvm10QllZAAgGV8RZITjwTd0ybGsvW+4/bw02m+HwJVmtsGpv0dz+mtAwDA8zHXfrOs6mT5OkoWJrb75iv/rv/+QQKTWBEAYB5bkeTEE0G3ApO4y6hy2pSon9CkSnOTYHbeUKUJAMCQmGunYfk60lrdyGa+8u+rCUoqJwEAecZVJDnxRMAdZ7f1x6iq8+jIr1enqjT7O55fXvKFv+y2edhLk5l3AABsY6/D9tdJQ1UnNvdSkvLBv7PRIwCg2niKJCeeCbbfdUFR/GBbO7Ar0Rkj2dmv0tTv21u+3PWCZX33IalJlSYAAPFjLwVB04ZenWOzutz7pnnYd3L131lBAwDAY7EUSU68EGyrV9Sfri+qXdj395c/myY8f/x4uEEQVZrroEoTAIC84q+dZpnsPODTKMZLicoHS76ppgQAIEIMRZITawTah+2vb0leXH071bNzZ+fxHdmV1FQyM/xQpbmOy6bXT5NKAAAAso3BNNt71P4oFnvDJ+JidYfvee+fbxoqKgEAyDd2IsmJNYNsBdff+CSKo6xvf8fzOR8JAABFxmJaXRN+6Nv5sv5ynh/NwyrLflUlu3wDAFBLvESSExsE17vtr3MC6+wD+n5S84aPBACAKmOy8FP7ruz9ysrVZOW898/s+A0AwNhjJJKc2DCo1mZESnSyZCo9qjQBAECIz3ban/A7/HNOE9OKW256/96PW6isBAAAw2MikpzYIpBWfyglOt/zabi6bh5uEHTDRwIAAJ6I15TknLU/byMcvr8U/EGCsulVWjIBCwAAXOMfkpwYEDyrEf5XPokotEPnvPk3ockgAQAAbBOvHTbLPp57T8QbTy3/proSAACUFfeQ5MTAwDlmlcCYUKUJAAAAAACwJZKcGH4SLZevT9ufT3waawlVE/OGKk0AAAAAAIDBSHLC7mSaTLQUataw+/oqVWn2NwhiuRcAAAAAAIAhkpywPaHYlOhBlWazTGr+4MwAAAAAAACIhyQn4pxYy02Jpk39VZ1UaQIAAAAAACRGkhPxTq7JZKdZLl+vqarzsnm4QRBVmgAAAAAAAImR5ET8k2wy2W2Wyc43hb312+ZhQpMqTQAAAAAAgAyR5ITfyTaZHLa/tIz9baZvkSpNAAAAAACAApHkhP9Jt6zsPGx/DhK+DVVp/twgiCpNAAAAAACAcpHkRLqTb7kT+373sxf55VSl2d8g6IZvAAAAAAAAoA4kOZHPybis8Aw/75rtd2bvV2kqoTnn0wUAAAAAAKgXSU7ke3IuKz3fdf+6+8z/VL0z75ebk9AEAAAAAAAYn/8vwAB6tkJBi0yPegAAAABJRU5ErkJggg==;" parent="1" vertex="1">
          <mxGeometry x="380.61" y="529.5" width="62.27" height="33.07" as="geometry" />
        </mxCell>
        <mxCell id="p51MJaRD7cqvYZ4VCD2m-34" value="People Detection" style="text;strokeColor=none;fillColor=none;align=center;verticalAlign=middle;spacingLeft=4;spacingRight=4;overflow=hidden;points=[[0,0.5],[1,0.5]];portConstraint=eastwest;rotatable=0;whiteSpace=wrap;html=1;fontStyle=1;fontSize=13;" parent="1" vertex="1">
          <mxGeometry x="316" y="565" width="191.5" height="40" as="geometry" />
        </mxCell>
        <mxCell id="jsQxtfPpL2vXqfW5sDo6-1" value="" style="shape=image;verticalLabelPosition=bottom;labelBackgroundColor=default;verticalAlign=top;aspect=fixed;imageAspect=0;image=https://upload.wikimedia.org/wikipedia/commons/thumb/e/e0/Mqtt-hor.svg/1280px-Mqtt-hor.svg.png;" parent="1" vertex="1">
          <mxGeometry x="363.02000000000004" y="326" width="101.96" height="26" as="geometry" />
        </mxCell>
        <mxCell id="F0VNFSj3lpA8AP-Gscmp-1" value="" style="html=1;verticalLabelPosition=bottom;align=center;labelBackgroundColor=#ffffff;verticalAlign=top;strokeWidth=2;strokeColor=#000000;shadow=0;dashed=0;shape=mxgraph.ios7.icons.wifi;pointerEvents=1;fillColor=#000000;" vertex="1" parent="1">
          <mxGeometry x="391" y="170" width="44.55" height="30" as="geometry" />
        </mxCell>
      </root>
    </mxGraphModel>
  </diagram>
</mxfile>
